<svg width="38" height="38" viewBox="0 0 38 38" fill="none" xmlns="http://www.w3.org/2000/svg">
<circle opacity="0.1" cx="19" cy="19" r="19" fill="#0033AD"/>
<circle opacity="0.3" cx="19" cy="19" r="19" fill="url(#paint0_linear_2075_2040)"/>
<path d="M13.6359 18.9199C13.5852 19.809 14.2629 20.5703 15.1432 20.6214C15.1748 20.6214 15.2065 20.6214 15.2382 20.6214C16.1248 20.6214 16.8404 19.8986 16.8341 19.003C16.8341 18.1075 16.1185 17.3847 15.2318 17.3911C14.3832 17.3911 13.6802 18.0627 13.6359 18.9199Z" fill="#0033AD"/>
<path d="M7.67017 18.5041C7.38519 18.4849 7.1382 18.7088 7.12553 18.9966C7.11287 19.2845 7.32819 19.534 7.61318 19.5468C7.89816 19.566 8.13882 19.3421 8.15782 19.0542C8.17682 18.7664 7.95516 18.5233 7.67017 18.5041Z" fill="#0033AD"/>
<path d="M13.5346 9.54223C13.7879 9.41429 13.8892 9.09445 13.7626 8.83858C13.6359 8.58271 13.3193 8.48037 13.0659 8.6083C12.8126 8.73624 12.7113 9.04968 12.8379 9.30555C12.9646 9.56782 13.2749 9.67656 13.5346 9.54223Z" fill="#0033AD"/>
<path d="M15.1558 12.4016C15.5485 12.2033 15.7068 11.7171 15.5105 11.3205C15.3142 10.9239 14.8329 10.764 14.4402 10.9623C14.0476 11.1606 13.8892 11.6468 14.0856 12.0434C14.2819 12.44 14.7632 12.5999 15.1558 12.4016Z" fill="#0033AD"/>
<path d="M9.69675 14.3654C10.0007 14.5637 10.4061 14.4805 10.6087 14.1735C10.805 13.8664 10.7227 13.457 10.4187 13.2524C10.1147 13.0541 9.70942 13.1372 9.50676 13.4443C9.3041 13.7513 9.39276 14.1671 9.69675 14.3654Z" fill="#0033AD"/>
<path d="M10.6657 18.2162C10.2224 18.1907 9.84874 18.5297 9.82341 18.9775C9.79808 19.4252 10.1337 19.8026 10.577 19.8282C11.0204 19.8538 11.394 19.5148 11.4193 19.067C11.4447 18.6256 11.109 18.2418 10.6657 18.2162Z" fill="#0033AD"/>
<path d="M9.78541 23.6343C9.46243 23.8006 9.32943 24.1972 9.49409 24.5298C9.65875 24.8561 10.0514 24.9904 10.3807 24.8241C10.7037 24.6578 10.8367 24.2612 10.672 23.9286C10.5074 23.6023 10.1084 23.468 9.78541 23.6343Z" fill="#0033AD"/>
<path d="M12.8886 16.5467C13.3256 16.8345 13.9082 16.713 14.1869 16.2716C14.4719 15.8303 14.3515 15.2417 13.9146 14.9603C13.4776 14.6724 12.8949 14.794 12.6163 15.2354C12.3313 15.6703 12.4516 16.2588 12.8886 16.5467Z" fill="#0033AD"/>
<path d="M22.7365 12.3376C23.1038 12.5807 23.6041 12.4783 23.8448 12.1073C24.0854 11.7363 23.9841 11.231 23.6168 10.9879C23.2495 10.7448 22.7492 10.8472 22.5085 11.2182C22.2615 11.5956 22.3628 12.0945 22.7365 12.3376Z" fill="#0033AD"/>
<path d="M24.3704 9.49105C24.6111 9.65097 24.9277 9.58061 25.0861 9.33753C25.2444 9.09445 25.1747 8.77462 24.9341 8.6147C24.6934 8.45478 24.3768 8.52514 24.2184 8.76182C24.0664 9.0049 24.1361 9.33113 24.3704 9.49105Z" fill="#0033AD"/>
<path d="M22.8568 17.3783C21.9765 17.3271 21.2166 18.0115 21.1722 18.9007C21.1216 19.7898 21.7992 20.5575 22.6795 20.6022C22.7112 20.6022 22.7428 20.6022 22.7682 20.6022C23.6485 20.6022 24.3641 19.8794 24.3641 18.9839C24.3704 18.1331 23.7055 17.423 22.8568 17.3783Z" fill="#0033AD"/>
<path d="M15.6815 16.4315C15.9538 16.9753 16.5048 17.3207 17.1128 17.3207C17.993 17.3207 18.7087 16.5979 18.7087 15.7023C18.7087 15.4528 18.6517 15.2034 18.5377 14.9731C18.1387 14.1735 17.1761 13.8536 16.3908 14.2566C15.5992 14.666 15.2825 15.6383 15.6815 16.4315Z" fill="#0033AD"/>
<path d="M28.2146 14.3654C28.5376 14.1991 28.6642 13.7961 28.4996 13.4698C28.3349 13.1436 27.9359 13.0157 27.6129 13.182C27.29 13.3483 27.1633 13.7449 27.3216 14.0711C27.4926 14.3974 27.8853 14.5317 28.2146 14.3654Z" fill="#0033AD"/>
<path d="M24.1614 14.8771C23.6991 15.1138 23.5091 15.6831 23.7435 16.1501C23.9778 16.617 24.5414 16.8089 25.0037 16.5723C25.466 16.3356 25.656 15.7663 25.4217 15.2993C25.1874 14.8324 24.6237 14.6468 24.1614 14.8771Z" fill="#0033AD"/>
<path d="M18.9367 9.24798C19.2977 9.26717 19.608 8.98571 19.6333 8.62109C19.6586 8.25648 19.3737 7.94304 19.0127 7.91745C18.6517 7.89826 18.3414 8.17332 18.316 8.53794C18.297 8.90895 18.5757 9.22239 18.9367 9.24798Z" fill="#0033AD"/>
<path d="M18.9303 13.4251C19.4496 13.457 19.893 13.054 19.9183 12.5295C19.95 12.005 19.551 11.5572 19.0317 11.5316C18.5124 11.4996 18.069 11.9026 18.0437 12.4272C18.0184 12.9517 18.411 13.3995 18.9303 13.4251Z" fill="#0033AD"/>
<path d="M13.8386 23.1226C14.3009 22.8859 14.4909 22.3166 14.2565 21.8496C14.0222 21.3826 13.4586 21.1907 12.9963 21.4274C12.534 21.6641 12.344 22.2334 12.5783 22.7004C12.8126 23.1673 13.3763 23.3592 13.8386 23.1226Z" fill="#0033AD"/>
<path d="M19.5383 14.8132C19.057 15.5616 19.2597 16.5595 20.0006 17.0456C20.7416 17.5318 21.7295 17.3271 22.2109 16.5787C22.6922 15.8302 22.4895 14.8324 21.7485 14.3462C21.4889 14.1735 21.1849 14.0839 20.8746 14.0839C20.3363 14.0839 19.836 14.359 19.5383 14.8132Z" fill="#0033AD"/>
<path d="M22.3185 21.5681C21.9195 20.7685 20.9569 20.4487 20.1716 20.8517C19.38 21.2547 19.0633 22.227 19.4623 23.0202C19.8613 23.8198 20.8239 24.1397 21.6092 23.7367C22.3945 23.3401 22.7175 22.3805 22.3249 21.5809C22.3249 21.5745 22.3249 21.5745 22.3185 21.5681Z" fill="#0033AD"/>
<path d="M25.1114 21.453C24.6744 21.1651 24.0918 21.2867 23.8131 21.7281C23.5281 22.1694 23.6485 22.7579 24.0854 23.0394C24.5224 23.3273 25.1051 23.2057 25.3837 22.7643C25.6687 22.3294 25.5484 21.7409 25.1114 21.453Z" fill="#0033AD"/>
<path d="M28.1766 19.0286C28.2019 18.5809 27.8663 18.2034 27.423 18.1779C26.9796 18.1523 26.606 18.4913 26.5807 18.9391C26.5553 19.3868 26.891 19.7643 27.3343 19.7898C27.7713 19.8154 28.1513 19.47 28.1766 19.0286Z" fill="#0033AD"/>
<path d="M30.3868 18.4529C30.1018 18.4337 29.8549 18.6576 29.8422 18.9455C29.8295 19.2333 30.0448 19.4828 30.3298 19.4956C30.6148 19.5148 30.8555 19.2909 30.8745 19.003C30.8871 18.7152 30.6718 18.4721 30.3868 18.4529Z" fill="#0033AD"/>
<path d="M28.3032 23.6343C27.9993 23.436 27.594 23.5192 27.3913 23.8262C27.195 24.1332 27.2773 24.5426 27.5813 24.7473C27.8853 24.9456 28.2906 24.8625 28.4932 24.5554C28.6959 24.2484 28.6072 23.8326 28.3032 23.6343Z" fill="#0033AD"/>
<path d="M13.6232 28.5086C13.3826 28.3487 13.0659 28.4191 12.9076 28.6558C12.7493 28.8988 12.8189 29.2187 13.0533 29.3786C13.2939 29.5385 13.6106 29.4682 13.7689 29.2315C13.9336 28.9948 13.8639 28.6686 13.6232 28.5086Z" fill="#0033AD"/>
<path d="M24.4654 28.4575C24.2121 28.5854 24.1108 28.9052 24.2374 29.1611C24.3641 29.417 24.6807 29.5193 24.9341 29.3914C25.1874 29.2635 25.2887 28.95 25.1621 28.6941C25.0354 28.4319 24.7251 28.3231 24.4654 28.4575Z" fill="#0033AD"/>
<path d="M18.4617 23.1865C18.943 22.4381 18.7403 21.4402 17.9994 20.9477C17.2584 20.4615 16.2705 20.6662 15.7828 21.4146C15.2952 22.163 15.5041 23.1609 16.2451 23.6535C16.5048 23.8262 16.8088 23.9158 17.1191 23.9158C17.6637 23.9222 18.164 23.6471 18.4617 23.1865Z" fill="#0033AD"/>
<path d="M15.2635 25.6621C14.8962 25.419 14.3959 25.5213 14.1552 25.8923C13.9146 26.2634 14.0159 26.7687 14.3832 27.0118C14.7505 27.2549 15.2508 27.1525 15.4915 26.7815C15.7385 26.4105 15.6371 25.9051 15.2635 25.6621Z" fill="#0033AD"/>
<path d="M18.9937 28.7517C18.6327 28.7325 18.3224 29.014 18.297 29.3786C18.2717 29.7432 18.5567 30.0566 18.9177 30.0822C19.2787 30.1014 19.589 29.8264 19.6143 29.4617C19.6333 29.0907 19.3547 28.7773 18.9937 28.7517Z" fill="#0033AD"/>
<path d="M19 24.5746C18.4807 24.5426 18.0374 24.9456 18.012 25.4702C17.9804 25.9947 18.3794 26.4425 18.8987 26.4681C19.418 26.4937 19.8613 26.0971 19.8866 25.5725C19.9183 25.0544 19.5193 24.6002 19 24.5746Z" fill="#0033AD"/>
<path d="M22.8442 25.5981C22.4515 25.8028 22.2932 26.289 22.4958 26.6856C22.6985 27.0822 23.1798 27.2421 23.5725 27.0374C23.9651 26.8391 24.1234 26.3529 23.9271 25.9563C23.7244 25.5597 23.2431 25.3934 22.8442 25.5981Z" fill="#0033AD"/>
<defs>
<linearGradient id="paint0_linear_2075_2040" x1="19" y1="0" x2="19" y2="38" gradientUnits="userSpaceOnUse">
<stop stop-color="white"/>
<stop offset="1" stop-color="white" stop-opacity="0"/>
</linearGradient>
</defs>
</svg>
