<svg width="38" height="38" viewBox="0 0 38 38" fill="none" xmlns="http://www.w3.org/2000/svg">
<circle opacity="0.1" cx="19" cy="19" r="19" fill="#0054F9"/>
<circle opacity="0.3" cx="19" cy="19" r="19" fill="url(#paint0_linear_3401_870)"/>
<path d="M30.6863 13.4526C30.613 13.8738 30.5398 14.0752 30.4299 14.295C30.32 14.5513 30.2101 14.826 30.1003 15.412C30.0636 15.6318 30.027 15.8149 30.0087 15.9614V15.9797C29.9721 16.2178 29.9538 16.3826 29.8622 16.6573C29.7889 16.8954 29.6608 17.2799 29.3494 17.6828C29.0931 18.0124 28.6719 18.5801 28.1042 18.6534C28.0492 18.6534 27.9577 18.6534 27.9027 18.6351C26.2912 17.811 24.9178 17.2067 24.4417 17.0785C23.8923 16.9137 23.9655 15.705 24.0205 14.6429C24.0571 14.1668 24.0754 13.709 24.0571 13.3244C23.9838 11.9693 23.7458 10.5043 22.5738 9.79006C21.8779 9.36887 20.9623 9.24068 20.1016 9.24068C20.2664 9.16743 20.4312 9.05755 20.6326 8.94768C21.1454 8.65468 21.768 8.28842 22.409 8.21517C22.6104 8.19686 22.8118 8.17855 23.0133 8.14192C24.2768 7.99542 25.3756 7.86723 26.5293 8.27011C27.0604 8.45324 28.1225 9.03924 28.3972 9.60693C28.5986 9.9915 28.9282 10.3028 29.5692 10.9071C29.9171 11.2184 30.1369 11.4016 30.3017 11.5481C30.5398 11.7312 30.5764 11.7861 30.6496 11.9143C30.8694 12.3538 30.7961 12.8116 30.6863 13.4526Z" fill="#0054F9"/>
<path d="M24.8447 19.0015C24.918 19.0198 24.9546 19.1113 24.8997 19.1846C24.7348 19.441 24.5334 19.8072 24.2953 20.2284C24.1855 20.4298 24.0756 20.6313 23.984 20.7778C23.6727 21.3089 23.6544 21.7667 23.6361 22.1146C23.6178 22.4992 23.5995 22.664 23.3614 22.8105C23.1783 22.9387 22.9768 22.9753 21.6583 23.1767C21.4203 23.2134 21.3287 23.25 21.2371 23.3049C21.2188 23.3232 21.1822 23.3232 21.1639 23.3416C21.0906 23.3782 21.0174 23.3049 21.0174 23.2317C21.0357 23.0485 21.0357 22.8105 21.0357 22.4992V22.4442C21.0357 22.1879 21.0357 21.9681 21.0174 21.8033C20.9991 21.4737 20.9991 21.3272 21.0906 21.1807C21.2005 20.9975 21.2921 20.9426 21.4203 20.851C21.6217 20.7228 21.8964 20.558 22.281 20.0087C22.5007 19.7157 22.5373 19.5508 22.574 19.4227C22.5923 19.3677 22.5923 19.3494 22.7571 19.2212C22.9219 19.093 23.453 18.6901 24.1305 18.8C24.3503 18.8366 24.5883 18.9099 24.8447 19.0015Z" fill="#0054F9"/>
<path d="M19.5875 25.0809C19.5508 25.1175 19.5325 25.1358 19.4776 25.1358C19.3311 25.1358 19.2395 25.0992 19.1846 25.026C19.0564 24.8612 19.0747 24.5315 19.093 24.3301L19.6607 24.1836C19.6973 24.4949 19.7157 24.9161 19.5875 25.0809Z" fill="#0054F9"/>
<path d="M19.6248 23.0668C19.6065 23.14 19.6065 23.2316 19.6065 23.3415C19.6065 23.3781 19.6065 23.4147 19.6065 23.4513C19.6065 23.5429 19.6065 23.6894 19.6065 23.7627C19.4234 23.8176 19.2769 23.8176 19.0938 23.8176C19.0938 23.7627 19.0938 23.6711 19.0938 23.6162C19.0938 23.5795 19.0938 23.5246 19.0938 23.488C19.0938 23.433 19.0938 23.3964 19.0938 23.3415C19.0938 23.2316 19.0937 23.0668 19.1121 23.0118C19.167 23.0118 19.2219 22.9935 19.2769 22.9752C19.3868 22.9569 19.5516 22.9203 19.6431 22.9386C19.6431 22.9752 19.6431 23.0301 19.6248 23.0668Z" fill="#0054F9"/>
<path d="M18.5997 24.9158C18.5814 25.2088 18.4898 25.5568 18.2151 25.6117C18.0869 25.63 18.032 25.5934 17.9954 25.5568C17.8122 25.392 17.7939 24.8792 17.8122 24.513C17.9404 24.513 18.0869 24.4946 18.27 24.458C18.3799 24.4397 18.4898 24.4031 18.5814 24.3848C18.5997 24.5313 18.618 24.7144 18.5997 24.9158Z" fill="#0054F9"/>
<path d="M18.4715 23.8905L17.8672 24.1102C17.9038 23.8722 17.9404 23.5425 17.9588 23.3228C17.9771 23.1763 18.0137 23.1213 18.032 23.103C18.032 23.103 18.0503 23.0847 18.0686 23.0847C18.0686 23.0847 18.0686 23.0847 18.0869 23.0847H18.1053L18.4898 23.0664C18.4715 23.2495 18.4715 23.6524 18.4715 23.8905Z" fill="#0054F9"/>
<path d="M17.483 23.7078C17.4464 23.7994 17.4098 24.0557 17.3914 24.2389L16.6406 24.2206C16.6773 23.9825 16.7505 23.7444 16.8054 23.5613C16.8787 23.3782 16.9336 23.2317 17.0069 23.195C17.0801 23.1584 17.2449 23.1401 17.3548 23.2317C17.5196 23.3415 17.5563 23.5064 17.483 23.7078Z" fill="#0054F9"/>
<path d="M17.2079 26.0329C17.1529 26.1061 17.0797 26.1611 17.0064 26.1611C16.9149 26.1794 16.8599 26.1427 16.805 26.1061C16.5669 25.8864 16.5852 25.1722 16.6035 24.8242C16.9149 24.751 17.2628 24.696 17.4276 24.6777C17.4276 24.9524 17.4459 25.7032 17.2079 26.0329Z" fill="#0054F9"/>
<path d="M16.2188 24.1838C16.1822 24.2754 16.1456 24.367 16.1273 24.4585C16.0357 24.4952 15.761 24.4585 15.4863 24.4036L15.6695 23.2133C15.9808 23.1217 16.347 23.1034 16.4203 23.195C16.5485 23.3232 16.3104 23.9275 16.2188 24.1838Z" fill="#0054F9"/>
<path d="M15.8704 26.1979C15.7239 26.381 15.5041 26.4726 15.1928 26.4543C14.9731 26.4543 14.8998 26.3627 14.8632 26.3078C14.6984 26.0331 14.8632 25.3921 15.028 24.9893L16.0535 25.0442C16.0718 25.1174 16.0718 25.209 16.0718 25.3006C16.0901 25.6119 16.0535 25.9781 15.8704 26.1979Z" fill="#0054F9"/>
<path d="M24.3673 17.5361C23.4333 17.2797 23.5249 15.9246 23.5981 14.6061C23.6165 14.1483 23.6531 13.7088 23.6348 13.3425C23.5615 12.1156 23.3601 10.7788 22.3712 10.1744C21.3091 9.5335 19.5694 9.68 18.5072 9.80818C18.1227 9.91806 17.7564 10.0096 17.4634 9.99131C16.8408 9.95469 16.3463 9.69831 15.9068 9.46024C15.5772 9.27712 15.2842 9.1123 14.9912 9.1123C14.9729 9.1123 14.9546 9.1123 14.9546 9.1123C14.1305 9.16724 13.7459 9.36868 13.398 9.68C13.3064 9.75325 13.1966 9.973 12.8486 10.9802C12.6655 11.4929 12.6472 11.7676 12.6106 12.024C12.5739 12.2621 12.5556 12.5185 12.4274 12.903C12.3359 13.1594 12.2626 13.3791 12.2077 13.5989C12.0429 14.1666 11.8964 14.6244 11.4935 15.1738C11.4386 15.2287 11.3836 15.3386 11.3104 15.4302C11.2188 15.5767 11.1089 15.7598 10.9441 15.9612C10.8342 16.1077 10.5962 16.6571 10.6145 16.8219C10.6328 17.0966 10.7244 17.2614 10.8159 17.4445C10.9075 17.6277 11.0357 17.8474 11.054 18.1587V18.2137C11.0906 18.6898 11.0174 18.9279 10.12 19.7336C9.55236 20.2464 9.13117 20.7408 8.85648 21.1071C8.83816 21.1437 8.85648 21.1803 8.91141 21.1803C8.92973 21.1803 8.92973 21.1803 8.92973 21.1803C8.94804 21.1803 8.96635 21.1803 8.98467 21.1803C9.00298 21.1803 9.02129 21.1803 9.0396 21.1803C9.05792 21.1803 9.07623 21.1803 9.09454 21.1803C9.31429 21.1986 9.53404 21.2902 9.68054 21.455C9.69886 21.4916 9.75379 21.4916 9.79042 21.4733C9.93692 21.4184 10.1017 21.4184 10.2482 21.4367C10.4314 21.455 10.6328 21.51 10.761 21.6381C10.7976 21.6748 10.8526 21.6931 10.9075 21.6748C11.054 21.6381 11.2188 21.6381 11.3653 21.6931C11.4752 21.7297 11.5851 21.803 11.6583 21.8945C11.7132 21.9495 11.8048 21.9678 11.8781 21.9311C11.9147 21.9128 11.9696 21.8762 12.0246 21.8579C12.226 21.7846 12.4458 21.8213 12.6289 21.8945C12.7204 21.9311 12.812 21.9495 12.9036 22.0227C13.0501 22.1326 13.1599 22.2791 13.2149 22.4439C13.2515 22.5355 13.3797 22.5721 13.4529 22.4988C13.5994 22.389 13.7093 22.3706 13.8192 22.4073C13.8741 22.4256 13.9108 22.4622 13.9474 22.5171C14.0023 22.5904 14.0939 22.6636 14.1671 22.627C14.4785 22.5355 14.8447 22.5904 15.1194 22.7369C15.211 22.7918 15.3208 22.8651 15.3758 22.975V22.92C15.3758 22.9017 15.3941 22.8834 15.4124 22.8651L15.4673 22.8468C15.6138 22.7918 16.383 22.5721 16.676 22.8834C16.6943 22.9017 16.7126 22.9017 16.7309 22.8834C16.7675 22.8468 16.8042 22.8101 16.8225 22.8101C17.0239 22.7003 17.3535 22.682 17.5733 22.8834C17.6099 22.92 17.6832 22.9017 17.7198 22.8651C17.7381 22.8285 17.7564 22.8101 17.793 22.7918C17.8663 22.7186 17.9762 22.7003 18.086 22.7003L18.5072 22.682C18.6171 22.682 18.9467 22.6453 19.0383 22.627H19.0566C19.0932 22.627 19.1482 22.6087 19.2031 22.5904C19.4045 22.5538 19.6426 22.4988 19.8257 22.5904C20.0089 22.682 19.9906 22.8834 19.9722 23.0665C19.9722 23.1398 19.9539 23.213 19.9539 23.2863C19.9539 23.3229 19.9539 23.3595 19.9539 23.3962C19.9539 23.561 19.9539 23.7075 19.9356 23.8173L19.9539 23.9089C19.9539 23.9089 19.9539 23.9089 19.9539 23.9272C19.9722 24.0005 20.0638 24.0554 20.1187 24.0005C20.2652 23.9089 20.4117 23.799 20.4667 23.7258V23.7075C20.4667 23.6892 20.485 23.6525 20.5033 23.5793C20.5216 23.4145 20.5582 23.1031 20.5582 22.4622C20.5582 22.4256 20.5582 22.4073 20.5582 22.389C20.5582 22.1509 20.5582 21.9495 20.5399 21.7846C20.5216 21.4367 20.5033 21.162 20.6864 20.8873C20.8512 20.6126 21.0161 20.5211 21.1809 20.4112C21.364 20.3013 21.5654 20.1731 21.9134 19.697C22.0782 19.4589 22.0965 19.3674 22.1148 19.2941C22.1514 19.111 22.2064 19.0011 22.4811 18.818C22.7008 18.6532 23.3418 18.1587 24.2208 18.3052C24.5138 18.3602 24.9716 18.5067 25.4477 18.6898C25.466 18.6898 25.4843 18.7081 25.5027 18.7081H25.521C25.9422 18.8729 26.3267 19.0561 26.6014 19.2026C26.6563 19.2392 26.7296 19.2209 26.7845 19.1659C26.8761 19.0561 26.9677 19.0011 27.0592 18.9279C27.0958 18.9096 27.1325 18.8912 27.1508 18.8729C27.1691 18.8729 27.1691 18.8546 27.1691 18.8546C27.2423 18.7997 27.2424 18.6532 27.1508 18.6166C25.9238 18.0122 24.7518 17.646 24.3673 17.5361ZM15.5406 17.8108C15.2476 19.0561 13.3064 20.4478 12.4274 20.4478H12.4091C12.3908 20.4478 12.3725 20.4478 12.3725 20.4478C12.3542 20.4478 12.3359 20.4478 12.3176 20.4295C12.2992 20.4295 12.2992 20.4295 12.2809 20.4295C12.1161 20.3746 11.8964 20.2647 11.7316 20.0999C11.6217 19.99 11.5301 19.8435 11.4935 19.7153C11.4935 19.697 11.4752 19.6604 11.4752 19.6421C11.4202 19.4223 11.3653 19.1659 11.5484 18.7264C11.5667 18.6715 11.6034 18.6166 11.6217 18.5616C11.6217 18.5433 11.64 18.525 11.64 18.5067C11.6583 18.4517 11.6766 18.4151 11.6949 18.3785C11.7132 18.3052 11.7499 18.2503 11.7682 18.2137C11.7682 18.1954 11.7865 18.1771 11.7865 18.1587C11.8414 18.0122 11.8414 17.9573 11.8597 17.9024C11.8597 17.8657 11.8781 17.7925 11.8964 17.7192C11.9513 17.4812 11.9879 17.2797 12.0062 17.1149C12.0429 16.8036 12.0978 16.5289 12.2626 16.2725C12.2992 16.2359 12.3176 16.1993 12.3542 16.1627C12.3725 16.1444 12.3725 16.1444 12.3908 16.126C12.4091 16.1077 12.4091 16.1077 12.4274 16.0894C12.4641 16.0528 12.519 16.0345 12.5556 16.0162C12.5739 16.0162 12.5923 15.9979 12.6106 15.9979C12.6472 15.9795 12.6838 15.9795 12.7204 15.9612C12.8853 15.9246 13.0684 15.9246 13.2881 15.9429C13.5262 15.9612 13.7459 15.9979 13.9291 16.0528C14.0939 16.0894 14.2404 16.1444 14.3503 16.1993C14.3686 16.1993 14.3686 16.2176 14.3869 16.2176C14.4052 16.2359 14.4235 16.2359 14.4601 16.2542C14.4968 16.2725 14.5151 16.2725 14.5517 16.2909C14.5883 16.3092 14.625 16.3275 14.6616 16.3458L14.6982 16.3641C14.8264 16.419 14.9546 16.4923 15.0461 16.5655C15.1011 16.6022 15.1377 16.6388 15.1743 16.6754C15.1926 16.6937 15.211 16.6937 15.211 16.712C15.2293 16.7304 15.2293 16.7304 15.2476 16.7487C15.6321 17.0783 15.6138 17.5361 15.5406 17.8108ZM16.4562 13.0678L16.4196 13.2876C16.328 13.8003 16.1266 14.4962 15.3941 14.6793C14.6799 14.8442 14.5151 14.8808 14.0206 14.9174C14.0023 14.9174 14.0023 14.9174 13.984 14.9174C13.6178 14.9174 12.9036 14.6793 12.7754 14.1117C12.7021 13.7454 12.8669 13.4707 13.1233 13.0312C13.1599 12.958 13.2149 12.8847 13.2698 12.7931C13.6361 12.1888 13.7643 11.7493 13.8741 11.4014C13.984 11.0534 14.0756 10.7788 14.3136 10.5407C14.3686 10.4858 14.4235 10.4308 14.4968 10.3942C14.5334 10.3576 14.5883 10.3393 14.6433 10.3026C14.7165 10.266 14.7898 10.2477 14.863 10.2111C15.0278 10.1561 15.211 10.1378 15.3758 10.1378C15.7237 10.1378 16.0716 10.2294 16.3097 10.4308C16.4196 10.5224 16.5844 10.6872 16.676 11.2183C16.7126 11.4929 16.6393 11.9874 16.4562 13.0678ZM21.7119 14.5328C21.4556 14.9723 21.3274 15.2104 21.1076 15.3935C20.6681 15.7598 20.1737 15.833 19.7525 15.833C19.4595 15.833 19.2031 15.7781 19.0383 15.7598C18.5988 15.6865 17.8113 15.54 17.5367 14.8991C17.4817 14.7709 17.4817 14.6977 17.4817 14.5878C17.4817 14.4962 17.4817 14.3131 17.4268 13.9285V13.9102C17.4085 13.7271 17.3902 13.5256 17.4268 13.2693V13.2326C17.5733 12.4635 17.6282 12.3536 17.6465 12.2804C17.7198 12.1339 17.9029 12.0606 18.0677 12.1522C18.2142 12.2255 18.2692 12.4086 18.2142 12.5551C18.1959 12.5917 18.1593 12.7565 18.0311 13.3608V13.3975C17.9945 13.5623 18.0128 13.6905 18.0311 13.8553V13.8736C18.086 14.3131 18.086 14.4962 18.086 14.6061C18.086 14.6244 18.086 14.6427 18.086 14.661V14.6793C18.141 14.8075 18.2509 14.8808 18.379 14.954C18.4706 14.9907 18.5622 14.9174 18.5439 14.8258C18.4157 14.1483 18.4157 13.3608 18.672 12.8664C18.7636 12.7016 18.9101 12.4452 19.0566 12.1888C19.0749 12.1705 19.0932 12.1339 19.0932 12.1156C19.1115 12.0973 19.1115 12.0789 19.1299 12.0606C19.2031 11.9508 19.258 11.8592 19.313 11.7676C19.313 11.7493 19.3313 11.7493 19.3313 11.731L19.3496 11.7127C19.3679 11.6944 19.3679 11.6761 19.3862 11.6578C19.3862 11.6578 19.3862 11.6394 19.4045 11.6394L19.4229 11.6211C19.4229 11.6028 19.4412 11.6028 19.4412 11.5845C19.4961 11.5113 19.551 11.438 19.5877 11.3648C19.6609 11.2732 19.5694 11.1633 19.4778 11.1999C19.2214 11.3098 19.0566 11.438 19.02 11.4563C18.8918 11.5662 18.6904 11.5479 18.5805 11.4014C18.4706 11.2732 18.4889 11.0718 18.6354 10.9619C18.8002 10.8337 19.6426 10.2294 20.6498 10.5041C21.3823 10.7055 21.7486 11.2732 21.8951 11.4746C22.0049 11.6394 22.3712 12.1522 22.3529 12.8847C22.3529 13.4158 22.1331 13.8186 21.7119 14.5328Z" fill="#0054F9"/>
<path d="M15.1574 10.7793C15.1025 10.9075 15.0476 11.054 14.9743 11.2188C14.8278 11.6034 14.6447 12.0429 14.5531 12.2077C14.4066 12.4824 14.2967 12.6655 14.2052 12.7937C14.0953 12.9585 14.0221 13.0867 13.9488 13.2698C13.8389 13.5811 13.8206 13.9291 13.8939 14.3136C13.6924 14.2953 13.3811 14.1671 13.3445 13.984C13.3262 13.8558 13.3994 13.7276 13.6192 13.3431C13.6558 13.2698 13.7107 13.1783 13.7657 13.105C14.1502 12.4457 14.3151 11.9513 14.4249 11.5851C14.5531 11.2005 14.6081 11.0357 14.8095 10.8892C14.9377 10.8342 15.0476 10.7976 15.1574 10.7793Z" fill="#0054F9"/>
<path d="M14.7726 24.6237C14.5528 25.0632 14.2964 25.4661 14.1316 25.6675C13.9851 25.3013 13.7471 24.4406 13.8203 23.763C13.8203 23.7447 13.8203 23.7264 13.8203 23.7081C13.8386 23.4883 13.8936 23.3052 14.0034 23.1404C14.0767 23.0305 14.2598 22.9756 14.4613 22.9756C14.6078 22.9756 14.7726 23.0122 14.9191 23.0855C14.9923 23.1221 15.1022 23.2136 15.1022 23.4517C15.1388 23.7813 14.974 24.2208 14.7726 24.6237Z" fill="#0054F9"/>
<path d="M26.4915 19.7342C26.5099 19.7525 26.5099 19.7708 26.5099 19.7891C26.4549 19.9173 26.3634 20.0089 26.2718 20.1188C26.1619 20.2469 26.0337 20.3934 25.9239 20.6315C25.759 20.9611 25.7041 21.2541 25.6858 22.0233C25.6492 22.9206 25.6858 23.415 25.7224 23.7813C25.7407 24.1292 25.759 24.349 25.7041 24.6969C25.5759 25.3928 25.2829 25.8506 24.8983 26.4366C24.4222 27.1691 23.9461 27.9199 23.1403 28.158C23.0671 28.1763 23.0671 28.1763 22.8473 28.1763C22.6642 28.1763 22.3529 28.1763 21.7852 28.1946C20.7231 28.2312 20.192 28.2496 19.7525 28.3411C19.2764 28.4327 19.0383 28.5426 18.7819 28.6341C18.5622 28.7257 18.3607 28.7989 17.9762 28.8905C17.7381 28.9454 17.3902 28.9821 16.1998 29.0004C14.9546 29.0004 14.2038 29.0004 13.2332 28.8905C11.8781 28.744 11.2005 28.6524 10.7427 28.4144C9.68055 27.8467 9.22274 26.8212 8.49023 25.1364C8.49023 25.1181 8.50855 25.0998 8.52686 25.0998C8.56349 25.1181 8.60011 25.1364 8.63674 25.1547C8.67336 25.173 8.70999 25.173 8.7283 25.173C8.80155 25.1914 8.8748 25.1914 8.94805 25.173C8.96636 25.173 8.96636 25.173 8.98468 25.1547C9.00299 25.1547 9.0213 25.1547 9.0213 25.173C9.07624 25.3012 9.14949 25.4111 9.27768 25.4844C9.40587 25.5576 9.55237 25.5576 9.68055 25.5576C9.82706 25.5576 9.97356 25.5393 10.1201 25.521C10.1933 25.521 10.2666 25.5576 10.3032 25.6125C10.4314 25.9422 10.5962 26.1619 10.8526 26.1985C10.8709 26.1985 10.8892 26.1985 10.9075 26.1985C10.9624 26.1985 11.054 26.1802 11.1639 26.107C11.2554 26.0337 11.4019 26.0887 11.4752 26.1802C11.5301 26.2718 11.6034 26.3267 11.6766 26.3817C11.933 26.638 12.5556 26.7662 13.0684 26.7662C13.3431 26.7662 13.5995 26.7296 13.746 26.6564C13.9657 26.5465 13.9657 26.4 13.9474 26.3267C13.9291 26.2169 13.9108 26.0887 13.8925 25.9788C13.8925 25.9605 13.9108 25.9605 13.9108 25.9788C13.9474 26.052 13.984 26.1253 14.0756 26.1436C14.0939 26.1436 14.0939 26.1436 14.1122 26.1436C14.2587 26.1436 14.4785 26.1985 14.5151 26.3267C14.5334 26.4 14.57 26.4549 14.6066 26.5282C14.6982 26.6564 14.863 26.8212 15.211 26.8395H15.2293C15.6322 26.8395 15.9435 26.7113 16.1449 26.4549C16.1632 26.4366 16.1632 26.4183 16.1815 26.4C16.2548 26.2901 16.4745 26.2901 16.5661 26.3817C16.676 26.4732 16.8042 26.5282 16.9507 26.5282C16.969 26.5282 17.0056 26.5282 17.0239 26.5282C17.207 26.5099 17.3535 26.4183 17.4817 26.2535C17.555 26.1436 17.6099 26.0154 17.6465 25.8689C17.6649 25.8323 17.7198 25.814 17.7564 25.8506C17.8297 25.9239 17.9579 25.9971 18.141 25.9971C18.1776 25.9971 18.2325 25.9971 18.2875 25.9788C18.6354 25.9055 18.8186 25.6125 18.8918 25.3012C18.8918 25.2829 18.9101 25.2829 18.9101 25.3012C19.0017 25.4111 19.1665 25.5393 19.4412 25.5393C19.4595 25.5393 19.4778 25.5393 19.4778 25.5393C19.6243 25.5393 19.7525 25.466 19.8441 25.3562C19.9539 25.2097 19.9906 24.9899 20.0089 24.7885C20.0089 24.7335 20.0455 24.6786 20.1187 24.642C20.4118 24.5138 20.778 24.2391 20.8879 24.056C20.8879 24.056 20.8879 24.0377 20.9062 24.0377C20.9245 23.9827 20.9794 23.9461 21.0161 23.9461C21.2541 23.9095 21.3457 23.8545 21.4373 23.8179C21.5105 23.7813 21.5654 23.763 21.7486 23.7263C23.0854 23.5249 23.3418 23.47 23.6348 23.2868C24.0743 22.9938 24.0926 22.591 24.1109 22.2064C24.1292 21.8768 24.1475 21.5105 24.4039 21.071C24.4955 20.9062 24.6053 20.7231 24.7152 20.5033C24.9167 20.1371 25.1913 19.6243 25.3928 19.3496C25.4294 19.2947 25.5027 19.2764 25.5576 19.313C26.0154 19.4778 26.4183 19.6609 26.4915 19.7342Z" fill="#0054F9"/>
<path d="M13.4895 23.7257C13.4345 24.1835 13.3979 24.8061 13.4712 25.6119C13.4895 25.8316 13.5261 26.0697 13.5627 26.3078C13.5078 26.3444 13.3063 26.3993 12.9767 26.381C12.5006 26.3627 12.0245 26.2528 11.878 26.088L11.8596 26.0697C11.7498 25.9781 11.6582 25.9049 11.6582 25.7401C11.6582 25.6851 11.6765 25.6302 11.7315 25.5386C11.7681 25.502 11.8047 25.4471 11.8413 25.3738C11.9146 25.264 12.0245 25.1358 12.1343 24.9526C12.4456 24.4399 12.5555 24.2751 12.702 24.0736C12.7203 24.0553 12.7203 24.037 12.7386 24.0187C12.8302 23.9088 12.9218 23.7623 13.0866 23.5243C13.1965 23.3594 13.288 23.2129 13.3796 23.1031C13.5078 22.9199 13.5993 22.8284 13.6543 22.7734C13.6543 22.8467 13.636 22.9566 13.6177 23.0664C13.5444 23.2862 13.5078 23.4876 13.4895 23.7257Z" fill="#0054F9"/>
<path d="M13.2516 16.5112C13.2516 16.5295 13.2516 16.5295 13.2516 16.5112C13.1783 16.6028 13.1051 16.7127 13.0135 16.8958C12.7754 17.4086 12.7754 17.7016 12.7754 17.9396C12.7754 18.0678 12.7754 18.1594 12.7388 18.2692C12.7205 18.3425 12.6839 18.4341 12.6289 18.5256C12.5008 18.8369 12.3176 19.2398 12.3909 19.7892C12.281 19.7343 12.1162 19.6061 12.0796 19.5511C12.0796 19.5145 12.0613 19.4962 12.0613 19.4596C12.0246 19.2948 12.0063 19.1849 12.0979 18.9285C12.3909 18.2692 12.4275 18.1044 12.4458 17.9213C12.4458 17.8847 12.4641 17.8481 12.4641 17.7931C12.5191 17.5367 12.5557 17.317 12.574 17.1339C12.6106 16.8592 12.6473 16.676 12.7388 16.5479C12.7754 16.4929 12.867 16.4746 12.9952 16.4746C13.0501 16.4746 13.1051 16.4746 13.1783 16.4929H13.1966C13.2516 16.5112 13.2516 16.5112 13.2516 16.5112Z" fill="#0054F9"/>
<path d="M12.8852 23.0487C12.8669 22.8839 12.8486 22.7374 12.7753 22.5725C12.7753 22.5725 12.757 22.5359 12.757 22.5176C12.7387 22.4993 12.7387 22.481 12.7204 22.4627L12.7021 22.4444C12.6838 22.426 12.6838 22.426 12.6654 22.426L12.6471 22.4077C12.6288 22.4077 12.6288 22.3894 12.6105 22.3894H12.5922C12.5006 22.3528 12.4091 22.3162 12.2992 22.2979C12.2809 22.2979 12.2626 22.2979 12.2626 22.2979C12.2443 22.2979 12.2443 22.2979 12.2259 22.2979H12.2076C12.1893 22.2979 12.171 22.3162 12.1344 22.3162C12.1161 22.3162 12.1161 22.3345 12.0978 22.3345L12.0794 22.3528C12.0611 22.3711 12.0611 22.3711 12.0428 22.3894L12.0245 22.4077V22.426C11.9879 22.481 11.9513 22.5359 11.9146 22.5909C11.8231 22.719 11.7315 22.8655 11.6399 22.9937C11.5484 23.1219 11.4751 23.2318 11.3836 23.36C11.3286 23.4332 11.292 23.4882 11.2371 23.5614C11.2371 23.5797 11.2188 23.5797 11.2188 23.598C11.2737 23.6164 11.3286 23.6164 11.3836 23.6347C11.5118 23.653 11.6399 23.6713 11.7498 23.6896C12.0062 23.7262 12.2809 23.7445 12.5373 23.7262C12.5556 23.7262 12.5556 23.7262 12.5739 23.7262C12.6288 23.6347 12.7204 23.5248 12.8119 23.3783C12.8669 23.305 12.9218 23.2318 12.9584 23.1585C12.9035 23.1402 12.8852 23.0853 12.8852 23.0487Z" fill="#0054F9"/>
<path d="M11.9524 24.1287C11.934 24.3301 11.7143 24.8429 11.3663 25.3373C11.0733 25.7402 10.8902 25.8501 10.8536 25.8501C10.7071 25.8318 10.5789 25.4838 10.469 25.1359C10.4324 24.9894 10.3775 24.8612 10.3592 24.733C10.2859 24.4766 10.2676 24.1104 10.2859 23.8906C10.5789 24.0554 11.0917 24.0921 11.8242 24.0921C11.8608 24.1104 11.9157 24.1104 11.9524 24.1287Z" fill="#0054F9"/>
<path d="M11.4386 22.4803C11.3104 22.6817 11.1823 22.8648 11.0541 23.048C10.9808 23.1395 10.9259 23.2311 10.8526 23.3226C10.816 23.3776 10.7611 23.4325 10.7244 23.4875C10.6146 23.4691 10.523 23.4325 10.4131 23.4142C10.3216 23.3959 10.2483 23.3593 10.1568 23.3226C10.1384 23.3226 10.1201 23.3043 10.1018 23.3043C10.0835 23.286 10.0652 23.2494 10.0469 23.2311C10.0835 23.1761 10.1018 23.1029 10.1384 23.048C10.1934 22.9381 10.2483 22.8282 10.3216 22.7183C10.4314 22.5352 10.5596 22.3338 10.7611 22.2056C10.7794 22.2056 10.7794 22.1873 10.7977 22.1873C10.8709 22.1506 10.9442 22.114 11.0358 22.0957C11.0541 22.0957 11.109 22.0957 11.1456 22.0957H11.1639C11.1639 22.0957 11.1639 22.0957 11.1823 22.0957C11.2006 22.0957 11.2189 22.114 11.2555 22.114C11.2555 22.114 11.2738 22.114 11.2738 22.1323C11.2921 22.1506 11.3104 22.1506 11.3288 22.169C11.2921 22.1506 11.3654 22.2239 11.3654 22.2056C11.402 22.3155 11.4203 22.3704 11.4386 22.4803Z" fill="#0054F9"/>
<path d="M10.4499 21.9498C10.2118 22.1329 10.047 22.3893 9.91879 22.664C9.84554 22.8105 9.77228 22.957 9.69903 23.1035C9.69903 23.1218 9.68072 23.1401 9.68072 23.1401C9.60747 23.1218 9.53422 23.1035 9.47928 23.0852C9.40603 23.0668 9.33278 23.0302 9.25953 23.0119C9.22291 22.9936 9.20459 22.9753 9.16797 22.957C9.24122 22.8288 9.31447 22.7006 9.40603 22.5724C9.51591 22.4076 9.6441 22.2245 9.77229 22.078C9.82722 22.023 9.88216 21.9498 9.9371 21.9132C10.0103 21.8765 10.0836 21.8765 10.1752 21.8948C10.2667 21.8948 10.3583 21.8948 10.4315 21.9315C10.4132 21.9315 10.4315 21.9498 10.4499 21.9498Z" fill="#0054F9"/>
<path d="M10.0837 25.0629C10.0654 25.0812 10.0654 25.0812 10.0471 25.0995H10.0288C9.97384 25.0995 9.91891 25.1178 9.86397 25.1178C9.75409 25.1178 9.64422 25.1362 9.53434 25.1178C9.4794 25.1178 9.42446 25.0995 9.38784 25.0629C9.35121 25.008 9.3329 24.8981 9.31459 24.8248C9.24134 24.422 9.24134 24.0191 9.27796 23.6162C9.4794 23.6895 9.69915 23.7444 9.91891 23.781C9.86397 24.1473 9.95553 24.6783 9.99216 24.8248C10.0471 24.8981 10.0654 24.9897 10.0837 25.0629Z" fill="#0054F9"/>
<path d="M9.42566 21.8211C9.24254 22.0409 9.07772 22.279 8.93122 22.5353C8.87628 22.6269 8.80303 22.7368 8.7481 22.8467C8.67485 22.8283 8.6016 22.7917 8.54666 22.7551C8.49172 22.7185 8.43678 22.6818 8.40016 22.6452C8.38184 22.6269 8.34522 22.6086 8.32691 22.5903C8.32691 22.5903 8.30859 22.5903 8.30859 22.572C8.32691 22.517 8.36353 22.4804 8.36353 22.4438C8.40016 22.3522 8.43678 22.279 8.49172 22.2057C8.58328 22.0592 8.67485 21.9127 8.78472 21.7662C8.82135 21.7113 8.85797 21.6563 8.93122 21.638C8.98616 21.6197 9.05941 21.638 9.11435 21.638C9.22422 21.6563 9.3341 21.7296 9.42566 21.8211Z" fill="#0054F9"/>
<path d="M8.01473 22.7921C8.01473 22.7737 8.03304 22.7737 8.01473 22.7921C8.08798 22.8653 8.14292 22.9202 8.21617 22.9752C8.25279 22.9935 8.27111 23.0301 8.30773 23.0484C8.30773 23.0484 8.30773 23.0484 8.30773 23.0667C8.23448 23.3781 8.17954 23.7077 8.17954 24.0373C8.17954 24.0556 8.16123 24.0556 8.16123 24.0373C8.06967 23.6527 7.95979 23.0301 8.01473 22.7921Z" fill="#0054F9"/>
<path d="M8.91228 23.4697C8.87566 23.7444 8.85734 24.0191 8.87566 24.2938C8.87566 24.4403 8.89397 24.5868 8.91228 24.7516C8.87566 24.7516 8.83903 24.7516 8.80241 24.7516H8.78409H8.76578C8.72916 24.7333 8.72916 24.7333 8.69253 24.715C8.65591 24.6967 8.61928 24.6418 8.58265 24.5868C8.5094 24.4586 8.49109 24.3121 8.49109 24.1656C8.47278 23.8909 8.5094 23.5979 8.56434 23.3232C8.60097 23.3416 8.65591 23.3599 8.71084 23.3782C8.78409 23.4148 8.83903 23.4514 8.91228 23.4697Z" fill="#0054F9"/>
<defs>
<linearGradient id="paint0_linear_3401_870" x1="19" y1="0" x2="19" y2="38" gradientUnits="userSpaceOnUse">
<stop stop-color="white"/>
<stop offset="1" stop-color="white" stop-opacity="0"/>
</linearGradient>
</defs>
</svg>
