<svg width="38" height="38" viewBox="0 0 38 38" fill="none" xmlns="http://www.w3.org/2000/svg">
<circle opacity="0.2" cx="19" cy="19" r="19" fill="#84FF6C"/>
<circle opacity="0.3" cx="19" cy="19" r="19" fill="url(#paint0_linear_3401_2401)"/>
<path d="M23.4648 13.9229C22.6933 12.0274 20.883 11.8749 18.7297 12.2471L17.9276 9.55268L16.3262 10.0417L17.0812 12.6545C16.6707 12.7826 16.2199 12.934 15.7859 13.0212L15.0074 10.3676L13.3824 10.8159L14.1845 13.5103C13.8144 13.615 10.8942 14.43 10.8942 14.43L11.4031 16.1505C11.4031 16.1505 12.5941 15.7895 12.5537 15.8128C13.2131 15.6499 13.5464 15.9474 13.671 16.2565L15.8213 23.6166C15.8349 23.8265 15.8384 24.2055 15.364 24.3161C15.3876 24.3569 14.1731 24.6771 14.1731 24.6771L14.4298 26.7064C14.4298 26.7064 17.35 25.8915 17.7201 25.7867L18.4819 28.5044L20.1068 28.0562L19.3047 25.3618C19.7791 25.2512 20.1895 25.1231 20.6 24.9951L21.3785 27.6486L23.0035 27.2004L22.2417 24.4827C24.923 23.5335 26.6452 22.3214 26.1392 19.6738C25.7074 17.5277 24.4723 16.8799 22.8437 16.9491C23.6846 16.3547 24.0173 15.346 23.4648 13.9229ZM22.8992 20.4012C23.4924 22.454 19.98 23.1754 18.8697 23.4898L17.8216 19.9031C18.9318 19.5887 22.2589 18.2666 22.8992 20.4012ZM20.6795 15.531C21.2188 17.3973 18.285 18.0023 17.3598 18.2643L16.3959 15.01C17.2975 14.7072 20.0931 13.5831 20.6795 15.531Z" fill="#5FB44F"/>
<defs>
<linearGradient id="paint0_linear_3401_2401" x1="19" y1="0" x2="19" y2="38" gradientUnits="userSpaceOnUse">
<stop stop-color="white"/>
<stop offset="1" stop-color="white" stop-opacity="0"/>
</linearGradient>
</defs>
</svg>
