<svg width="38" height="38" viewBox="0 0 38 38" fill="none" xmlns="http://www.w3.org/2000/svg">
<circle opacity="0.2" cx="19" cy="19" r="19" fill="#FF9900"/>
<circle opacity="0.3" cx="19" cy="19" r="19" fill="url(#paint0_linear_2075_2084)"/>
<path d="M25.2996 17.232C25.5792 15.2047 24.0877 14.1675 22.0368 13.4132L22.6894 10.6787L21.058 10.3015L20.4055 12.9417C19.986 12.8474 19.5198 12.7531 19.1004 12.6117L19.7529 9.92432L18.1215 9.5L17.469 12.2345C17.0961 12.1402 14.1596 11.3859 14.1596 11.3859L13.7401 13.1303C13.7401 13.1303 14.952 13.4132 14.9054 13.4132C15.5579 13.6017 15.6978 14.0261 15.6512 14.3561L13.8333 21.8052C13.7401 21.9938 13.5537 22.3238 13.0876 22.1824C13.0876 22.2295 11.8757 21.8995 11.8757 21.8995L11.0833 23.7854C11.0833 23.7854 14.0198 24.5397 14.3927 24.634L13.6935 27.3685L15.3249 27.7928L15.9774 25.0583C16.4435 25.1998 16.863 25.294 17.2825 25.3883L16.63 28.0757L18.2614 28.5L18.9605 25.7655C21.7572 26.2841 23.8546 26.0955 24.7402 23.5496C25.4394 21.4752 24.6936 20.2965 23.2487 19.5422C24.2741 19.4479 25.0665 18.7407 25.2996 17.232ZM21.5707 22.5596C21.058 24.634 17.6554 23.5025 16.5368 23.2196L17.4224 19.5893C18.541 19.8722 22.0834 20.3908 21.5707 22.5596ZM22.0834 17.232C21.6173 19.1179 18.7741 18.1749 17.8419 17.9392L18.6342 14.639C19.5665 14.8275 22.5495 15.2519 22.0834 17.232Z" fill="#FF9900"/>
<defs>
<linearGradient id="paint0_linear_2075_2084" x1="19" y1="0" x2="19" y2="38" gradientUnits="userSpaceOnUse">
<stop stop-color="white"/>
<stop offset="1" stop-color="white" stop-opacity="0"/>
</linearGradient>
</defs>
</svg>
