<svg width="38" height="38" viewBox="0 0 38 38" fill="none" xmlns="http://www.w3.org/2000/svg">
<circle opacity="0.2" cx="19" cy="19" r="19" fill="#BDA749"/>
<circle opacity="0.3" cx="19" cy="19" r="19" fill="url(#paint0_linear_2075_2021)"/>
<path fill-rule="evenodd" clip-rule="evenodd" d="M15.3431 17.6246H19.669V19.8868H15.3431V24.6546H18.0716C19.1515 24.6546 20.035 24.5112 20.7229 24.2222C21.4108 23.9342 21.9503 23.5354 22.3423 23.0248C22.7433 22.4938 23.0163 21.8795 23.1405 21.2287C23.2854 20.4946 23.3559 19.7481 23.3511 19.0002C23.3559 18.2523 23.2854 17.5057 23.1405 16.7716C23.0165 16.1208 22.7435 15.5065 22.3423 14.9755C21.9503 14.4649 21.4098 14.0661 20.7229 13.7781C20.035 13.4892 19.1515 13.3457 18.0716 13.3457H15.3431V17.6256V17.6246ZM12.5694 19.8868H11.0833V17.6256H12.5694V11.0835H19.1365C20.3498 11.0835 21.3997 11.2913 22.2872 11.704C23.1746 12.1186 23.8986 12.6837 24.4612 13.4011C25.0227 14.1176 25.4409 14.9567 25.7146 15.9176C25.9884 16.8785 26.1248 17.9067 26.1248 19.0002C26.1316 20.0414 25.9933 21.0787 25.7136 22.0827C25.4409 23.0426 25.0227 23.8828 24.4602 24.5992C23.8986 25.3167 23.1746 25.8817 22.2872 26.2964C21.3997 26.71 20.3488 26.9168 19.1365 26.9168H12.5694V19.8868Z" fill="#BDA749"/>
<defs>
<linearGradient id="paint0_linear_2075_2021" x1="19" y1="0" x2="19" y2="38" gradientUnits="userSpaceOnUse">
<stop stop-color="white"/>
<stop offset="1" stop-color="white" stop-opacity="0"/>
</linearGradient>
</defs>
</svg>
