<svg width="38" height="38" viewBox="0 0 38 38" fill="none" xmlns="http://www.w3.org/2000/svg">
<circle opacity="0.2" cx="19" cy="19" r="19" fill="#FF35A0"/>
<circle opacity="0.3" cx="19" cy="19" r="19" fill="url(#paint0_linear_3401_3274)"/>
<g clip-path="url(#clip0_3401_3274)">
<path d="M18.9989 11.4533C21.5407 11.4533 23.6012 10.2325 23.6012 8.72665C23.6012 7.22076 21.5407 6 18.9989 6C16.457 6 14.3965 7.22076 14.3965 8.72665C14.3965 10.2325 16.457 11.4533 18.9989 11.4533Z" fill="#E6007A"/>
<path d="M18.9989 31.9982C21.5407 31.9982 23.6012 30.7775 23.6012 29.2716C23.6012 27.7657 21.5407 26.5449 18.9989 26.5449C16.457 26.5449 14.3965 27.7657 14.3965 29.2716C14.3965 30.7775 16.457 31.9982 18.9989 31.9982Z" fill="#E6007A"/>
<path d="M12.5849 15.2281C13.8558 12.9858 13.8476 10.5573 12.5665 9.80382C11.2854 9.05036 9.21662 10.2573 7.94572 12.4996C6.67481 14.7418 6.68306 17.1704 7.96414 17.9238C9.24522 18.6773 11.314 17.4703 12.5849 15.2281Z" fill="#E6007A"/>
<path d="M30.0505 25.4987C31.3215 23.2564 31.3139 20.8283 30.0337 20.0754C28.7535 19.3224 26.6854 20.5298 25.4145 22.772C24.1436 25.0143 24.1511 27.4424 25.4313 28.1954C26.7115 28.9483 28.7796 27.741 30.0505 25.4987Z" fill="#E6007A"/>
<path d="M12.5685 28.1952C13.8495 27.4418 13.8578 25.0132 12.5869 22.771C11.316 20.5287 9.24718 19.3218 7.96609 20.0752C6.68501 20.8287 6.67676 23.2572 7.94767 25.4995C9.21858 27.7417 11.2874 28.9487 12.5685 28.1952Z" fill="#E6007A"/>
<path d="M30.0337 17.9237C31.3139 17.1707 31.3215 14.7426 30.0505 12.5003C28.7796 10.2581 26.7115 9.05072 25.4313 9.80367C24.1511 10.5566 24.1436 12.9847 25.4145 15.227C26.6854 17.4693 28.7535 18.6766 30.0337 17.9237Z" fill="#E6007A"/>
</g>
<defs>
<linearGradient id="paint0_linear_3401_3274" x1="19" y1="0" x2="19" y2="38" gradientUnits="userSpaceOnUse">
<stop stop-color="white"/>
<stop offset="1" stop-color="white" stop-opacity="0"/>
</linearGradient>
<clipPath id="clip0_3401_3274">
<rect width="24" height="26" fill="white" transform="translate(7 6)"/>
</clipPath>
</defs>
</svg>
