<svg width="38" height="38" viewBox="0 0 38 38" fill="none" xmlns="http://www.w3.org/2000/svg">
<circle opacity="0.2" cx="19" cy="19" r="19" fill="#FF2D55"/>
<circle opacity="0.3" cx="19" cy="19" r="19" fill="url(#paint0_linear_3401_3266)"/>
<path d="M15.5015 14.128L7.81601 23.3505C7.27442 21.9641 6.99763 20.4884 7.00002 19C7.00002 12.3705 12.3706 7 19 7C25.6306 7 31 12.3705 31 19C31 22.6655 29.356 25.948 26.764 28.1495H11.236C10.5563 27.5669 9.94078 26.9134 9.40001 26.2H23.104V21.004L27.4295 26.2H28.6L23.0986 19.6L21.58 21.424L15.5026 14.128H15.5015ZM23.0996 11.8C22.318 11.8211 21.5754 12.1464 21.03 12.7067C20.4846 13.267 20.1795 14.0181 20.1795 14.8C20.1795 15.5819 20.4846 16.333 21.03 16.8933C21.5754 17.4536 22.318 17.7789 23.0996 17.8C23.8813 17.7789 24.6238 17.4536 25.1692 16.8933C25.7146 16.333 26.0198 15.5819 26.0198 14.8C26.0198 14.0181 25.7146 13.267 25.1692 12.7067C24.6238 12.1464 23.8813 11.8211 23.0996 11.8ZM15.5036 9.628C15.3032 9.62259 15.1037 9.65741 14.9169 9.73039C14.7301 9.80337 14.5599 9.91303 14.4162 10.0529C14.2725 10.1928 14.1582 10.36 14.0803 10.5448C14.0023 10.7295 13.9621 10.928 13.9621 11.1285C13.9621 11.3291 14.0023 11.5276 14.0803 11.7123C14.1582 11.8971 14.2725 12.0643 14.4162 12.2042C14.5599 12.3441 14.7301 12.4537 14.9169 12.5267C15.1037 12.5997 15.3032 12.6345 15.5036 12.6291C15.8946 12.6185 16.266 12.4558 16.5388 12.1756C16.8116 11.8953 16.9643 11.5197 16.9643 11.1285C16.9643 10.7374 16.8116 10.3618 16.5388 10.0815C16.266 9.80126 15.8946 9.63854 15.5036 9.628ZM12.4426 29.0494H25.5585C23.6088 30.3241 21.3294 31.002 19 31C16.671 31.0018 14.392 30.3239 12.4426 29.0494ZM20.9986 22.1265L18.352 25.3H8.78801C8.40588 24.6808 8.08055 24.0283 7.81601 23.3505H15.5026V15.5309L20.9986 22.1255V22.1265Z" fill="#FF2D55"/>
<defs>
<linearGradient id="paint0_linear_3401_3266" x1="19" y1="0" x2="19" y2="38" gradientUnits="userSpaceOnUse">
<stop stop-color="white"/>
<stop offset="1" stop-color="white" stop-opacity="0"/>
</linearGradient>
</defs>
</svg>
