<svg width="38" height="38" viewBox="0 0 38 38" fill="none" xmlns="http://www.w3.org/2000/svg">
<circle opacity="0.2" cx="19" cy="19" r="19" fill="#8247E5"/>
<circle opacity="0.3" cx="19" cy="19" r="19" fill="url(#paint0_linear_3401_3288)"/>
<path d="M24.4859 15.6152C24.1241 15.4085 23.6591 15.4085 23.2456 15.6152L20.3518 17.3207L18.3882 18.406L15.546 20.1115C15.1843 20.3182 14.7192 20.3182 14.3058 20.1115L12.0838 18.7678C11.722 18.561 11.4637 18.1476 11.4637 17.6824V15.0984C11.4637 14.6849 11.6704 14.2715 12.0838 14.0131L14.3058 12.721C14.6675 12.5143 15.1326 12.5143 15.546 12.721L17.7681 14.0647C18.1298 14.2715 18.3882 14.6849 18.3882 15.1501V16.8555L20.3518 15.7186V13.9614C20.3518 13.5479 20.1451 13.1345 19.7317 12.8761L15.5977 10.447C15.236 10.2403 14.7709 10.2403 14.3575 10.447L10.1201 12.9277C9.7067 13.1345 9.5 13.5479 9.5 13.9614V18.8194C9.5 19.2329 9.7067 19.6463 10.1201 19.9048L14.3058 22.3338C14.6675 22.5405 15.1326 22.5405 15.546 22.3338L18.3882 20.68L20.3518 19.543L23.194 17.8892C23.5557 17.6824 24.0208 17.6824 24.4342 17.8892L26.6562 19.1812C27.018 19.3879 27.2763 19.8014 27.2763 20.2665V22.8506C27.2763 23.2641 27.0696 23.6775 26.6562 23.9359L24.4859 25.2279C24.1241 25.4347 23.6591 25.4347 23.2456 25.2279L21.0236 23.9359C20.6619 23.7292 20.4035 23.3157 20.4035 22.8506V21.1968L18.4398 22.3338V24.0393C18.4398 24.4527 18.6465 24.8662 19.0599 25.1246L23.2456 27.5536C23.6074 27.7603 24.0725 27.7603 24.4859 27.5536L28.6716 25.1246C29.0333 24.9179 29.2917 24.5044 29.2917 24.0393V19.1295C29.2917 18.7161 29.085 18.3026 28.6716 18.0442L24.4859 15.6152Z" fill="#8247E5"/>
<defs>
<linearGradient id="paint0_linear_3401_3288" x1="19" y1="0" x2="19" y2="38" gradientUnits="userSpaceOnUse">
<stop stop-color="white"/>
<stop offset="1" stop-color="white" stop-opacity="0"/>
</linearGradient>
</defs>
</svg>
