<svg width="38" height="38" viewBox="0 0 38 38" fill="none" xmlns="http://www.w3.org/2000/svg">
<circle opacity="0.1" cx="19" cy="19" r="19" fill="#F00500"/>
<circle opacity="0.3" cx="19" cy="19" r="19" fill="url(#paint0_linear_3401_3307)"/>
<path d="M23.9577 18.7788C23.9489 18.8256 23.8113 18.9661 23.6737 19.0686C23.2697 19.3643 22.5465 19.6395 21.8117 19.7712C21.393 19.8474 20.9744 19.8591 20.8485 19.7976C20.7665 19.7566 20.7548 19.7244 20.7841 19.619C20.8456 19.3994 21.0446 19.1594 21.355 18.9339C21.5131 18.8198 22.1542 18.4304 22.4529 18.2664C22.9447 17.9971 23.3429 17.8361 23.6122 17.798C23.6971 17.7863 23.7996 17.7834 23.8318 17.798C23.8845 17.8185 23.943 17.9737 23.9665 18.161C23.9782 18.2606 23.9723 18.6997 23.9577 18.7788Z" fill="black"/>
<path d="M17.0594 19.7477C17.0419 19.7828 16.954 19.8209 16.8545 19.8355C16.755 19.8501 16.4505 19.8414 16.2778 19.8209C15.6571 19.7389 14.9984 19.5486 14.5182 19.3144C14.2489 19.1826 14.0557 19.0509 13.9122 18.9074L13.8302 18.8225L13.8214 18.7113C13.8068 18.5181 13.8097 18.2136 13.8332 18.1053C13.8478 18.0145 13.88 17.9267 13.9239 17.8476C13.9473 17.8184 13.9473 17.8184 14.0527 17.8184C14.1815 17.8184 14.2899 17.8389 14.4655 17.8945C14.8256 18.0057 15.3614 18.2751 16.0143 18.6674C16.553 18.9894 16.755 19.1475 16.9101 19.3642C17.0155 19.4988 17.0858 19.6891 17.0594 19.7477Z" fill="black"/>
<path d="M21.2041 23.8233C21.2041 23.8321 21.1689 23.9726 21.125 24.1395C21.0811 24.3063 21.046 24.441 21.046 24.4469C21.0138 24.4498 20.9845 24.4527 20.9523 24.4498H20.8586L20.7298 24.7543C20.6595 24.9212 20.5951 25.0763 20.5863 25.0997L20.5688 25.1407L20.5073 25.0412L20.4458 24.9416V24.1307L20.4224 24.1365C20.3726 24.1483 20.0184 24.1951 19.8632 24.2097C19.2221 24.2741 18.578 24.2595 17.9397 24.1687C17.8373 24.1541 17.7494 24.1424 17.7465 24.1453C17.7436 24.1483 17.7465 24.3356 17.7524 24.5669L17.7611 24.9826L17.7114 25.0588C17.685 25.0997 17.6587 25.1349 17.6587 25.1378C17.6499 25.1466 17.6206 25.0997 17.5533 24.9651C17.4801 24.8245 17.4274 24.6752 17.3893 24.5201L17.3688 24.4352L17.2781 24.441L17.1873 24.4498L17.1639 24.3415C17.1522 24.2829 17.1376 24.1922 17.1317 24.1424L17.1229 24.0487L17.0468 23.9814C17.0029 23.9433 16.959 23.9053 16.9502 23.8994C16.9355 23.8877 16.9297 23.8672 16.9297 23.8496V23.8145L17.2956 23.8174L17.6616 23.8204L17.6733 23.8584L17.685 23.8965L17.8109 23.9023C17.8812 23.9053 18.1037 23.9111 18.3028 23.917L18.6687 23.9258L18.7624 23.7794L18.859 23.633H18.982L18.9791 23.3285L18.9761 23.024L18.8151 22.9538C18.2969 22.7254 17.9924 22.4649 17.8783 22.1487C17.8548 22.0843 17.8548 22.0608 17.849 21.7681C17.846 21.4782 17.846 21.4519 17.8665 21.3875C17.9075 21.2411 18.0217 21.1269 18.1681 21.0889C18.2179 21.0742 18.3496 21.0742 19.0405 21.0742L19.8544 21.0771L19.9452 21.1211C20.0535 21.1738 20.1033 21.2118 20.1648 21.2938C20.235 21.3875 20.2555 21.4607 20.2555 21.6393C20.2555 21.894 20.238 22.1135 20.2116 22.2014C20.1735 22.3214 20.115 22.4356 20.0418 22.538C19.8954 22.7254 19.629 22.9128 19.386 22.9977L19.3157 23.024L19.3187 23.3314L19.3216 23.6388L19.386 23.6447L19.4504 23.6506L19.5382 23.7823L19.6231 23.914H20.0154C20.2321 23.914 20.4224 23.917 20.44 23.9199C20.4692 23.9258 20.4751 23.9228 20.5044 23.8731L20.5395 23.8204H20.8762C21.128 23.8086 21.2041 23.8145 21.2041 23.8233Z" fill="black"/>
<path d="M19.6582 24.6629C19.6026 24.6951 19.5645 24.7098 19.5557 24.7039C19.5469 24.701 19.5059 24.6658 19.462 24.6336L19.383 24.5692L19.301 24.6571C19.1224 24.8503 19.1166 24.8591 19.0639 24.862C18.9819 24.8708 18.9643 24.8562 18.8648 24.7068C18.8121 24.6307 18.7711 24.5663 18.7711 24.5663C18.7711 24.5663 18.733 24.5604 18.6891 24.5575L18.6072 24.5487L18.5691 24.6278L18.531 24.7068L18.4637 24.6863C18.411 24.6688 18.3583 24.6483 18.3085 24.6249L18.2207 24.5809V24.4141L18.9995 24.417L19.7782 24.4199L19.7811 24.499C19.7841 24.5927 19.787 24.5897 19.6582 24.6629Z" fill="black"/>
<path d="M26.9791 21.0918C26.9762 21.0801 26.9762 21.0596 26.9733 21.0274C26.2706 20.9513 24.2652 20.9044 22.4032 22.4414C22.4032 22.4414 21.803 19.6895 18.9925 19.6895C16.1819 19.6895 15.1397 22.4414 15.1397 22.4414C13.5646 20.7463 11.4567 20.8693 10.6955 20.9805C10.6955 20.9981 10.6926 21.0186 10.6926 21.0362C10.6692 21.4607 10.6809 21.6627 10.7512 21.9291C10.9707 22.7635 11.647 23.6828 12.7068 24.5845C14.4429 26.06 16.7968 27.1257 18.5797 27.2486C20.4388 27.3745 23.182 26.2884 25.0088 24.7016C25.2957 24.4469 25.5651 24.1775 25.8168 23.8906C25.9984 23.6798 26.2677 23.3168 26.2472 23.3168C26.2414 23.3168 26.2472 23.311 26.2589 23.3051C26.2677 23.2992 26.2765 23.2905 26.2706 23.2846C26.2677 23.2817 26.2736 23.2729 26.2823 23.27C26.2911 23.267 26.297 23.2612 26.2941 23.2553C26.2911 23.2495 26.2941 23.2436 26.3058 23.2407C26.3146 23.2378 26.3175 23.229 26.3146 23.2231C26.3116 23.2173 26.3146 23.2114 26.3204 23.2114C26.3263 23.2114 26.3321 23.2026 26.3321 23.1968C26.3321 23.1909 26.338 23.1821 26.3438 23.1821C26.3497 23.1821 26.3555 23.1763 26.3555 23.1704C26.3643 23.147 26.379 23.1236 26.3936 23.1031C26.4375 23.0358 26.6132 22.7225 26.6366 22.6698C26.8035 22.2921 26.9089 21.9555 26.9586 21.6188C26.9762 21.4578 26.9908 21.1621 26.9791 21.0918ZM19.66 24.6635C19.6044 24.6957 19.5663 24.7104 19.5575 24.7045C19.5487 24.7016 19.5078 24.6665 19.4638 24.6343L19.3848 24.5698L19.3028 24.6577C19.1242 24.8509 19.1184 24.8597 19.0657 24.8626C18.9837 24.8714 18.9661 24.8568 18.8666 24.7074C18.8139 24.6313 18.7729 24.5669 18.7729 24.5669C18.7729 24.5669 18.7349 24.5611 18.6909 24.5581L18.609 24.5494L18.5709 24.6284L18.5329 24.7074L18.4655 24.687C18.4128 24.6694 18.3601 24.6489 18.3104 24.6255L18.2225 24.5816V24.4147L19.0013 24.4176L19.78 24.4205L19.783 24.4996C19.7859 24.5933 19.7888 24.5903 19.66 24.6635ZM21.1238 24.1366C21.0799 24.3034 21.0448 24.4381 21.0448 24.444C21.0126 24.4469 20.9833 24.4498 20.9511 24.4469H20.8574L20.7315 24.7543C20.6613 24.9212 20.5968 25.0763 20.5881 25.0998L20.5705 25.1407L20.509 25.0412L20.4475 24.9417V24.1307L20.4241 24.1366C20.3743 24.1483 20.0201 24.1951 19.8649 24.2097C19.2238 24.2742 18.5797 24.2595 17.9415 24.1688C17.839 24.1541 17.7512 24.1424 17.7482 24.1453C17.7453 24.1483 17.7482 24.3356 17.7541 24.5669L17.7629 24.9826L17.7131 25.0588C17.6868 25.0998 17.6604 25.1349 17.6604 25.1378C17.6516 25.1466 17.6224 25.0998 17.555 24.9651C17.4818 24.8246 17.4291 24.6752 17.3911 24.5201L17.3706 24.4352L17.2798 24.441L17.1891 24.4498L17.1656 24.3415C17.1539 24.2829 17.1393 24.1922 17.1334 24.1424L17.1247 24.0487L17.0485 23.9814C17.0046 23.9433 16.9607 23.9053 16.9519 23.8994C16.9373 23.8877 16.9314 23.8672 16.9314 23.8496V23.8145L17.2974 23.8174L17.6633 23.8204L17.6751 23.8584L17.6868 23.8965L17.8127 23.9023C17.8829 23.9053 18.1054 23.9111 18.3045 23.917L18.6705 23.9258L18.7641 23.7794L18.8608 23.633H18.9837L18.9808 23.3285L18.9779 23.024L18.8168 22.9538C18.2986 22.7254 17.9942 22.4649 17.88 22.1487C17.8566 22.0843 17.8566 22.0609 17.8507 21.7681C17.8478 21.4782 17.8478 21.4519 17.8683 21.3875C17.9093 21.2411 18.0234 21.1269 18.1698 21.0889C18.2196 21.0742 18.3513 21.0742 19.0423 21.0742L19.8562 21.0772L19.9469 21.1211C20.0552 21.1738 20.105 21.2118 20.1665 21.2938C20.2367 21.3875 20.2572 21.4607 20.2572 21.6393C20.2572 21.894 20.2397 22.1135 20.2133 22.2014C20.1753 22.3214 20.1167 22.4356 20.0435 22.5381C19.8971 22.7254 19.6307 22.9128 19.3877 22.9977L19.3175 23.024L19.3204 23.3315L19.3233 23.6389L19.3877 23.6447L19.4521 23.6506L19.54 23.7823L19.6249 23.9141H20.0172C20.2338 23.9141 20.4241 23.917 20.4417 23.9199C20.471 23.9258 20.4768 23.9228 20.5061 23.8731L20.5412 23.8204H20.8779C21.1385 23.8204 21.2146 23.8233 21.2146 23.8321C21.2058 23.8292 21.1677 23.9726 21.1238 24.1366Z" fill="white"/>
<path d="M26.9555 20.793C26.9496 20.6613 26.9379 20.4769 26.9291 20.3861C26.8032 19.0569 26.4636 17.9708 25.8196 16.8202C25.7932 16.7763 25.7698 16.7324 25.7551 16.6973C25.7493 16.6885 25.7464 16.6797 25.7434 16.6738C25.8342 16.4016 26.206 15.2627 26.5017 13.9599C26.9028 12.1916 27.1575 10.1247 26.3787 9.50402C26.3787 9.50402 25.032 9.40448 23.2286 11.1728C22.7397 11.6617 22.2917 12.1916 21.8936 12.7566L21.7677 12.7157C21.0416 12.4785 20.2892 12.3321 19.531 12.2824C19.3026 12.2648 18.4507 12.2648 18.1725 12.2824C17.3323 12.338 16.6882 12.4639 15.9563 12.7186C15.927 12.7303 15.9007 12.7391 15.8743 12.7479C15.4615 12.1857 15.0019 11.6588 14.4954 11.1757C12.6188 9.39863 11.2223 9.5011 11.2223 9.5011C10.3967 10.1423 10.6777 12.3029 11.1052 14.1297C11.3862 15.3388 11.7317 16.4016 11.8605 16.7851C11.8517 16.8056 11.84 16.829 11.8283 16.8495C11.1462 18.2313 10.7773 19.5634 10.6895 20.9804C11.4536 20.8692 13.5586 20.7433 15.1366 22.4413C15.1366 22.4413 16.1788 19.6893 18.9893 19.6893C21.7999 19.6893 22.4001 22.4413 22.4001 22.4413C24.262 20.9043 26.2675 20.9541 26.9701 21.0272C26.9672 20.9687 26.9613 20.8809 26.9555 20.793ZM12.4138 15.6814C12.4138 15.6814 11.3189 12.944 11.6 11.3806C11.6468 11.1172 11.7346 10.8859 11.8722 10.7102C11.8722 10.7102 13.1135 10.8332 15.1161 13.0582C15.1161 13.0582 14.7355 13.2426 14.2261 13.6349C14.2261 13.6349 14.2231 13.6379 14.2202 13.6379C13.6669 14.0624 12.9584 14.7357 12.4138 15.6814ZM17.06 19.7479C17.0425 19.783 16.9546 19.8211 16.8551 19.8357C16.7555 19.8503 16.4511 19.8416 16.2783 19.8211C15.6577 19.7391 14.999 19.5488 14.5188 19.3146C14.2495 19.1828 14.0563 19.0511 13.9128 18.9076L13.8308 18.8227L13.822 18.7115C13.8074 18.5183 13.8103 18.2138 13.8338 18.1055C13.8484 18.0147 13.8806 17.9269 13.9245 17.8478C13.9479 17.8185 13.9479 17.8185 14.0533 17.8185C14.1821 17.8185 14.2905 17.839 14.4661 17.8947C14.8262 18.0059 15.362 18.2753 16.0149 18.6676C16.5535 18.9896 16.7555 19.1477 16.9107 19.3643C17.0161 19.499 17.0864 19.6893 17.06 19.7479ZM23.9576 18.7788C23.9488 18.8257 23.8112 18.9662 23.6736 19.0687C23.2696 19.3643 22.5464 19.6395 21.8116 19.7713C21.3929 19.8474 20.9743 19.8591 20.8484 19.7976C20.7664 19.7566 20.7547 19.7244 20.784 19.619C20.8455 19.3995 21.0446 19.1594 21.3549 18.934C21.513 18.8198 22.1541 18.4304 22.4528 18.2665C22.9446 17.9971 23.3428 17.8361 23.6121 17.7981C23.697 17.7863 23.7995 17.7834 23.8317 17.7981C23.8844 17.8185 23.9429 17.9737 23.9663 18.1611C23.9781 18.2606 23.9722 18.6998 23.9576 18.7788ZM23.4716 13.6349L23.4657 13.632C22.9739 13.2397 22.605 13.0553 22.605 13.0553C24.5402 10.8302 25.7376 10.7073 25.7376 10.7073C25.8693 10.8859 25.9542 11.1142 26.0011 11.3777C26.2733 12.9411 25.2165 15.6814 25.2165 15.6814C24.7744 14.8938 24.1801 14.197 23.4716 13.6349Z" fill="#FFA409"/>
<path d="M26.0045 11.3775C25.7761 11.3482 24.6958 11.3423 23.472 13.6347L23.4662 13.6318C22.9744 13.2394 22.6055 13.055 22.6055 13.055C24.5406 10.83 25.738 10.707 25.738 10.707C25.8727 10.8856 25.9576 11.114 26.0045 11.3775Z" fill="#FF9300"/>
<path d="M25.2205 15.6806C24.7755 14.8901 24.1841 14.1962 23.4727 13.6341C24.6964 11.3418 25.7738 11.3476 26.0051 11.3769C26.2773 12.9432 25.2205 15.6806 25.2205 15.6806Z" fill="#FF8300"/>
<path d="M26.0478 11.3857C26.0332 11.3828 26.0185 11.3799 26.0039 11.377L26.0478 11.3857Z" fill="#FF8300"/>
<path d="M15.1167 13.055C15.1167 13.055 14.7361 13.2394 14.2267 13.6318C14.2267 13.6318 14.2238 13.6347 14.2208 13.6347C12.9532 11.3394 11.8377 11.3482 11.5977 11.3775C11.6445 11.114 11.7323 10.8827 11.8699 10.707C11.8729 10.707 13.1142 10.83 15.1167 13.055Z" fill="#FF9300"/>
<path d="M14.222 13.6341C13.6658 14.0616 12.9573 14.732 12.4128 15.6806C12.4128 15.6806 11.3178 12.9432 11.5989 11.3769C11.836 11.3476 12.9544 11.3418 14.222 13.6341Z" fill="#FF8300"/>
<path d="M11.5996 11.377C11.5849 11.3799 11.5674 11.3828 11.5527 11.3857L11.5996 11.377Z" fill="#FF8300"/>
<path d="M22.2557 17.201C22.2557 17.201 21.3188 17.2595 21.4359 16.5276C21.553 15.7957 22.2849 15.7079 22.4899 15.7372C22.6948 15.7664 23.5145 16.0592 23.3682 16.674C23.2218 17.2888 23.0168 17.1717 22.8997 17.201C22.7826 17.2303 22.2557 17.201 22.2557 17.201Z" fill="white"/>
<path d="M15.3474 17.201C15.3474 17.201 14.4106 17.2595 14.5277 16.5276C14.6448 15.7957 15.3767 15.7079 15.5817 15.7372C15.7866 15.7664 16.6063 16.0592 16.46 16.674C16.3136 17.2888 16.1086 17.1717 15.9915 17.201C15.8744 17.2303 15.3474 17.201 15.3474 17.201Z" fill="white"/>
<defs>
<linearGradient id="paint0_linear_3401_3307" x1="19" y1="0" x2="19" y2="38" gradientUnits="userSpaceOnUse">
<stop stop-color="white"/>
<stop offset="1" stop-color="white" stop-opacity="0"/>
</linearGradient>
</defs>
</svg>
