<svg width="38" height="38" viewBox="0 0 38 38" fill="none" xmlns="http://www.w3.org/2000/svg">
<g opacity="0.2">
<circle cx="19" cy="19" r="19" fill="#BDA749"/>
<circle cx="19" cy="19" r="19" fill="url(#paint0_linear_3215_7852)"/>
</g>
<circle opacity="0.3" cx="19" cy="19" r="19" fill="url(#paint1_linear_3215_7852)"/>
<path d="M13.6553 22.3345C13.7528 22.237 13.8869 22.1801 14.0292 22.1801H26.9274C27.1631 22.1801 27.281 22.4646 27.1144 22.6312L24.5664 25.1791C24.4689 25.2767 24.3348 25.3336 24.1926 25.3336H11.2943C11.0586 25.3336 10.9407 25.0491 11.1073 24.8825L13.6553 22.3345Z" fill="#BDA749"/>
<path d="M13.6553 22.3345C13.7528 22.237 13.8869 22.1801 14.0292 22.1801H26.9274C27.1631 22.1801 27.281 22.4646 27.1144 22.6312L24.5664 25.1791C24.4689 25.2767 24.3348 25.3336 24.1926 25.3336H11.2943C11.0586 25.3336 10.9407 25.0491 11.1073 24.8825L13.6553 22.3345Z" fill="url(#paint2_linear_3215_7852)"/>
<path d="M13.6553 12.8213C13.7569 12.7238 13.891 12.6669 14.0292 12.6669H26.9274C27.1631 12.6669 27.281 12.9514 27.1144 13.118L24.5664 15.666C24.4689 15.7635 24.3348 15.8204 24.1926 15.8204H11.2943C11.0586 15.8204 10.9407 15.5359 11.1073 15.3693L13.6553 12.8213Z" fill="#BDA749"/>
<path d="M13.6553 12.8213C13.7569 12.7238 13.891 12.6669 14.0292 12.6669H26.9274C27.1631 12.6669 27.281 12.9514 27.1144 13.118L24.5664 15.666C24.4689 15.7635 24.3348 15.8204 24.1926 15.8204H11.2943C11.0586 15.8204 10.9407 15.5359 11.1073 15.3693L13.6553 12.8213Z" fill="url(#paint3_linear_3215_7852)"/>
<path d="M24.5664 17.5475C24.4689 17.4499 24.3348 17.393 24.1926 17.393H11.2943C11.0586 17.393 10.9407 17.6775 11.1073 17.8441L13.6553 20.3921C13.7528 20.4896 13.8869 20.5465 14.0292 20.5465H26.9274C27.1631 20.5465 27.281 20.262 27.1144 20.0954L24.5664 17.5475Z" fill="#BDA749"/>
<path d="M24.5664 17.5475C24.4689 17.4499 24.3348 17.393 24.1926 17.393H11.2943C11.0586 17.393 10.9407 17.6775 11.1073 17.8441L13.6553 20.3921C13.7528 20.4896 13.8869 20.5465 14.0292 20.5465H26.9274C27.1631 20.5465 27.281 20.262 27.1144 20.0954L24.5664 17.5475Z" fill="url(#paint4_linear_3215_7852)"/>
<defs>
<linearGradient id="paint0_linear_3215_7852" x1="29.8627" y1="-87.6488" x2="-56.1133" y2="-55.5196" gradientUnits="userSpaceOnUse">
<stop stop-color="#00FFA3"/>
<stop offset="1" stop-color="#DC1FFF"/>
</linearGradient>
<linearGradient id="paint1_linear_3215_7852" x1="19" y1="0" x2="19" y2="38" gradientUnits="userSpaceOnUse">
<stop stop-color="white"/>
<stop offset="1" stop-color="white" stop-opacity="0"/>
</linearGradient>
<linearGradient id="paint2_linear_3215_7852" x1="23.7313" y1="-16.5493" x2="-10.2241" y2="-0.357546" gradientUnits="userSpaceOnUse">
<stop stop-color="#00FFA3"/>
<stop offset="1" stop-color="#DC1FFF"/>
</linearGradient>
<linearGradient id="paint3_linear_3215_7852" x1="23.7313" y1="-16.5493" x2="-10.2241" y2="-0.357546" gradientUnits="userSpaceOnUse">
<stop stop-color="#00FFA3"/>
<stop offset="1" stop-color="#DC1FFF"/>
</linearGradient>
<linearGradient id="paint4_linear_3215_7852" x1="23.7313" y1="-16.5493" x2="-10.2241" y2="-0.357546" gradientUnits="userSpaceOnUse">
<stop stop-color="#00FFA3"/>
<stop offset="1" stop-color="#DC1FFF"/>
</linearGradient>
</defs>
</svg>
