<svg width="38" height="38" viewBox="0 0 38 38" fill="none" xmlns="http://www.w3.org/2000/svg">
<circle opacity="0.4" cx="19" cy="19" r="19" fill="#6FBCF0"/>
<circle opacity="0.3" cx="19" cy="19" r="19" fill="url(#paint0_linear_2503_571)"/>
<path fill-rule="evenodd" clip-rule="evenodd" d="M12.0896 25.8292C13.5311 28.4374 16.1212 30 19.0042 30C21.8872 30 24.4774 28.4374 25.9189 25.8292C27.3604 23.2209 27.3604 20.1075 25.9189 17.4992L19.8376 6.50226C19.466 5.83258 18.5425 5.83258 18.1709 6.50226L12.0896 17.4992C10.6368 20.1075 10.6368 23.2209 12.0896 25.8292ZM17.2925 11.7305L18.5875 9.38074C18.7677 9.05177 19.2407 9.05177 19.4209 9.38074L24.4098 18.4039C25.322 20.0605 25.5022 21.9755 24.9279 23.7379C24.8715 23.4559 24.7815 23.1622 24.6688 22.8684C23.9819 21.0474 22.4165 19.6492 20.029 18.7093C18.3848 18.0632 17.3375 17.0997 16.9208 15.8661C16.3803 14.2683 16.9546 12.5294 17.2925 11.7305ZM15.0739 15.7251L13.5986 18.4039C12.4725 20.4482 12.4725 22.8802 13.5986 24.9245C14.7248 26.9688 16.7519 28.1789 19.0042 28.1789C20.502 28.1789 21.8985 27.6385 23.0021 26.6868C23.1485 26.3109 23.5877 24.9362 23.0359 23.5146C22.5291 22.1988 21.3129 21.1531 19.4096 20.4012C17.2699 19.5553 15.8735 18.2276 15.2654 16.4653C15.1865 16.2186 15.1302 15.9719 15.0739 15.7251Z" fill="white"/>
<defs>
<linearGradient id="paint0_linear_2503_571" x1="19" y1="0" x2="19" y2="38" gradientUnits="userSpaceOnUse">
<stop stop-color="white"/>
<stop offset="1" stop-color="white" stop-opacity="0"/>
</linearGradient>
</defs>
</svg>
