<svg width="38" height="38" viewBox="0 0 38 38" fill="none" xmlns="http://www.w3.org/2000/svg">
<circle opacity="0.1" cx="19" cy="19" r="19" fill="#FF007A"/>
<circle opacity="0.3" cx="19" cy="19" r="19" fill="url(#paint0_linear_3401_3347)"/>
<path d="M16.9493 11.3745C16.7123 11.3402 16.701 11.3288 16.8139 11.3174C17.0283 11.2831 17.5249 11.3288 17.8748 11.4088C18.6874 11.6032 19.421 12.1062 20.1997 12.9864L20.4029 13.2265L20.6963 13.1808C21.949 12.975 23.2357 13.1351 24.3078 13.6381C24.6013 13.7752 25.064 14.0496 25.1204 14.1182C25.143 14.1411 25.1769 14.2897 25.1994 14.4383C25.2784 14.9756 25.2446 15.3757 25.0753 15.6844C24.985 15.8559 24.985 15.9016 25.0414 16.0502C25.0866 16.1645 25.222 16.2446 25.3462 16.2446C25.617 16.2446 25.8992 15.8101 26.0346 15.2042L26.091 14.9642L26.1926 15.0785C26.7682 15.7301 27.2196 16.6332 27.2874 17.2734L27.3099 17.4449L27.2084 17.2963C27.0391 17.0334 26.8811 16.8619 26.6666 16.7133C26.2829 16.4503 25.8766 16.3703 24.8044 16.3131C23.8338 16.256 23.2808 16.176 22.7391 15.9931C21.8136 15.6844 21.3396 15.2843 20.2448 13.8095C19.7595 13.1579 19.4548 12.8035 19.1501 12.5063C18.4842 11.8547 17.8183 11.5117 16.9493 11.3745Z" fill="#FF007A"/>
<path d="M25.3574 12.8264C25.38 12.392 25.4365 12.1062 25.5606 11.8432C25.6057 11.7403 25.6509 11.6489 25.6622 11.6489C25.6735 11.6489 25.6509 11.7289 25.617 11.8204C25.5267 12.0719 25.5155 12.4263 25.5719 12.8264C25.6509 13.3408 25.6847 13.4094 26.2265 13.9696C26.4748 14.2325 26.7682 14.5641 26.8811 14.7012L27.0729 14.9527L26.8811 14.7698C26.6441 14.5412 26.1023 14.1068 25.9782 14.0496C25.8992 14.0039 25.8879 14.0039 25.8315 14.061C25.7863 14.1068 25.775 14.1754 25.775 14.5069C25.7637 15.0213 25.696 15.3414 25.5267 15.673C25.4364 15.8444 25.4252 15.8101 25.5042 15.6158C25.5606 15.4672 25.5719 15.3986 25.5719 14.907C25.5719 13.9124 25.459 13.6724 24.7706 13.2722C24.6013 13.1694 24.3078 13.0207 24.1386 12.9407C23.958 12.8607 23.8225 12.7921 23.8338 12.7921C23.8564 12.7692 24.5223 12.9636 24.7819 13.0779C25.1769 13.2379 25.2446 13.2494 25.2897 13.2379C25.3236 13.2036 25.3462 13.1122 25.3574 12.8264Z" fill="#FF007A"/>
<path d="M17.412 14.5298C16.938 13.8667 16.6333 12.8378 16.701 12.0719L16.7236 11.8318L16.8365 11.8547C17.0396 11.889 17.3895 12.0261 17.5588 12.129C18.0102 12.4034 18.2134 12.7807 18.4052 13.7181C18.4616 13.9925 18.5407 14.3126 18.5745 14.4154C18.6309 14.5869 18.8454 14.987 19.026 15.2385C19.1501 15.4215 19.0711 15.5129 18.7889 15.49C18.3601 15.4443 17.7845 15.0442 17.412 14.5298Z" fill="#FF007A"/>
<path d="M24.7819 19.5027C22.5472 18.5881 21.7572 17.7993 21.7572 16.4618C21.7572 16.2674 21.7685 16.1074 21.7685 16.1074C21.7798 16.1074 21.8588 16.176 21.9603 16.256C22.4118 16.6218 22.9197 16.7819 24.3304 16.9876C25.1543 17.1134 25.6283 17.2049 26.0572 17.3535C27.4228 17.8107 28.2693 18.7482 28.4724 20.0171C28.5288 20.3829 28.495 21.0803 28.4047 21.4461C28.3257 21.7319 28.1 22.2578 28.0435 22.2692C28.0323 22.2692 28.0097 22.2121 28.0097 22.1206C27.9871 21.6405 27.7501 21.1832 27.3551 20.8288C26.8811 20.4172 26.2716 20.1086 24.7819 19.5027Z" fill="#FF007A"/>
<path d="M23.2018 19.8799C23.1792 19.7085 23.1228 19.4913 23.0889 19.3998L23.0325 19.2283L23.1341 19.3541C23.2808 19.5255 23.3937 19.7313 23.4952 20.0171C23.5742 20.2343 23.5742 20.3029 23.5742 20.6573C23.5742 21.0003 23.563 21.0803 23.4952 21.2746C23.3824 21.5833 23.2469 21.8005 23.0212 22.0406C22.6149 22.4636 22.0845 22.6922 21.3283 22.7951C21.1929 22.8065 20.8092 22.8408 20.4706 22.8637C19.6241 22.9094 19.0598 23.0009 18.5519 23.1838C18.4842 23.2067 18.4165 23.2295 18.4052 23.2181C18.3826 23.1952 18.7325 22.9894 19.0147 22.8523C19.4097 22.6579 19.816 22.555 20.7076 22.395C21.1477 22.3264 21.5992 22.2349 21.712 22.1892C22.8294 21.8348 23.3824 20.9545 23.2018 19.8799Z" fill="#FF007A"/>
<path d="M24.2288 21.7205C23.9354 21.0689 23.8677 20.4515 24.0257 19.8685C24.0483 19.8113 24.0708 19.7542 24.0934 19.7542C24.116 19.7542 24.1837 19.7885 24.2514 19.8342C24.3868 19.9257 24.669 20.0857 25.3913 20.4858C26.3055 20.9888 26.8246 21.3775 27.1858 21.8234C27.5018 22.2121 27.6937 22.6579 27.784 23.2067C27.8404 23.5153 27.8065 24.2584 27.7275 24.5671C27.4792 25.5388 26.9149 26.3162 26.091 26.762C25.9669 26.8306 25.8653 26.8763 25.854 26.8763C25.8427 26.8763 25.8879 26.762 25.9556 26.6248C26.2265 26.0418 26.2603 25.4816 26.0572 24.8529C25.933 24.4642 25.6735 23.9955 25.1543 23.2067C24.5336 22.2921 24.3868 22.052 24.2288 21.7205Z" fill="#FF007A"/>
<path d="M15.8207 25.2187C16.6559 24.5099 17.6829 24.0069 18.6309 23.8468C19.0372 23.7783 19.7144 23.8011 20.0868 23.904C20.685 24.0641 21.2267 24.407 21.5089 24.83C21.7798 25.2416 21.9039 25.5959 22.028 26.3848C22.0732 26.6934 22.1296 27.0135 22.1409 27.0821C22.2312 27.4937 22.4118 27.8138 22.6375 27.9852C22.9874 28.2482 23.5968 28.2596 24.195 28.031C24.2965 27.9967 24.3868 27.9624 24.3868 27.9738C24.4094 27.9967 24.1047 28.2024 23.9015 28.3053C23.6194 28.4539 23.3937 28.4997 23.0889 28.4997C22.5472 28.4997 22.0845 28.2139 21.712 27.6423C21.633 27.528 21.475 27.1964 21.3396 26.8878C20.9446 25.9618 20.7414 25.6874 20.2787 25.3787C19.8724 25.1158 19.3532 25.0586 18.9582 25.253C18.4391 25.5045 18.3036 26.179 18.6648 26.5905C18.8115 26.762 19.0824 26.8992 19.3081 26.9335C19.7257 26.9907 20.0868 26.6591 20.0868 26.2361C20.0868 25.9618 19.9853 25.8017 19.7144 25.676C19.3532 25.5159 18.9582 25.6988 18.9695 26.0532C18.9695 26.2018 19.0372 26.2933 19.184 26.3619C19.2742 26.4076 19.2742 26.4076 19.2065 26.3962C18.8792 26.3276 18.8002 25.916 19.0598 25.6531C19.3758 25.333 20.0417 25.4702 20.2674 25.916C20.3577 26.099 20.369 26.4648 20.29 26.6934C20.0981 27.1964 19.5564 27.4594 19.0034 27.3107C18.6309 27.2079 18.4729 27.105 18.0215 26.6363C17.2315 25.8132 16.9267 25.6531 15.7981 25.4816L15.5837 25.4473L15.8207 25.2187Z" fill="#FF007A"/>
<path fill-rule="evenodd" clip-rule="evenodd" d="M9.88423 6.82458C12.5139 10.0598 16.5656 15.0899 16.7687 15.3643C16.938 15.5929 16.8703 15.8101 16.5882 15.9702C16.4302 16.0616 16.1029 16.1531 15.9449 16.1531C15.7643 16.1531 15.5498 16.0616 15.4031 15.913C15.3015 15.8101 14.8614 15.1585 13.8682 13.5923C13.112 12.392 12.4687 11.3974 12.4575 11.386C12.4123 11.3631 12.4123 11.3631 13.7892 13.8553C14.6582 15.4215 14.9404 15.9816 14.9404 16.0502C14.9404 16.1988 14.8952 16.2789 14.7147 16.4846C14.4099 16.8276 14.2745 17.2163 14.1729 18.028C14.0601 18.9311 13.7554 19.5713 12.8863 20.6573C12.3785 21.2975 12.2994 21.4118 12.1753 21.6748C12.0173 21.9949 11.9722 22.1778 11.9496 22.5893C11.927 23.0237 11.9722 23.2981 12.0963 23.7097C12.2092 24.0755 12.3333 24.3156 12.638 24.7843C12.8976 25.1958 13.0556 25.5045 13.0556 25.6188C13.0556 25.7103 13.0782 25.7103 13.4845 25.6188C14.4551 25.3902 15.2564 25.0015 15.6966 24.5213C15.9674 24.2241 16.0351 24.0641 16.0351 23.6525C16.0351 23.3896 16.0239 23.3324 15.9561 23.1724C15.8433 22.9209 15.6288 22.7151 15.1661 22.395C14.5567 21.972 14.2971 21.629 14.2294 21.1718C14.1729 20.7831 14.2407 20.5201 14.5792 19.7999C14.9291 19.0568 15.0194 18.7482 15.0758 17.9937C15.1097 17.5135 15.1661 17.3192 15.3015 17.1706C15.4483 17.0105 15.5724 16.9533 15.9223 16.9076C16.4979 16.8276 16.8703 16.679 17.1638 16.3932C17.4233 16.1531 17.5362 15.913 17.5475 15.5586L17.5588 15.2957L17.412 15.1357C16.8816 14.5183 9.53436 6.33301 9.5005 6.33301C9.48922 6.33301 9.66979 6.55022 9.88423 6.82458ZM13.3491 23.0809C13.4732 22.8637 13.4055 22.5893 13.2023 22.4521C13.0105 22.3264 12.717 22.3835 12.717 22.555C12.717 22.6008 12.7396 22.6465 12.8073 22.6693C12.9089 22.7265 12.9202 22.7837 12.8412 22.9094C12.7622 23.0352 12.7622 23.1495 12.8638 23.2295C13.0218 23.3553 13.2362 23.2867 13.3491 23.0809Z" fill="#FF007A"/>
<path fill-rule="evenodd" clip-rule="evenodd" d="M17.9199 17.0677C17.6491 17.1477 17.3895 17.4449 17.3105 17.7422C17.2653 17.9251 17.2879 18.2566 17.3669 18.3595C17.491 18.5195 17.6039 18.5653 17.9199 18.5653C18.5407 18.5653 19.0711 18.2909 19.1275 17.9594C19.184 17.685 18.9469 17.3077 18.6197 17.1363C18.4504 17.0448 18.1005 17.0105 17.9199 17.0677ZM18.6422 17.6393C18.7325 17.5021 18.6987 17.3535 18.5294 17.2506C18.2246 17.0562 17.7619 17.2163 17.7619 17.5135C17.7619 17.6621 17.9989 17.8222 18.2246 17.8222C18.3714 17.8222 18.5745 17.7307 18.6422 17.6393Z" fill="#FF007A"/>
<defs>
<linearGradient id="paint0_linear_3401_3347" x1="19" y1="0" x2="19" y2="38" gradientUnits="userSpaceOnUse">
<stop stop-color="white"/>
<stop offset="1" stop-color="white" stop-opacity="0"/>
</linearGradient>
</defs>
</svg>
