<svg width="38" height="38" viewBox="0 0 38 38" fill="none" xmlns="http://www.w3.org/2000/svg">
<circle opacity="0.2" cx="19" cy="19" r="19" fill="#2775CA"/>
<circle opacity="0.3" cx="19" cy="19" r="19" fill="url(#paint0_linear_2075_4694)"/>
<path d="M22.4877 20.5831C22.4877 18.8514 21.4487 18.2576 19.3705 18.0103C17.8862 17.8123 17.5893 17.4165 17.5893 16.7237C17.5893 16.0309 18.0841 15.5857 19.0737 15.5857C19.9643 15.5857 20.4591 15.8826 20.7065 16.6248C20.756 16.7732 20.9044 16.8722 21.0529 16.8722H21.8445C22.0424 16.8722 22.1908 16.7237 22.1908 16.5259V16.4764C21.9929 15.3878 21.1023 14.5467 19.9643 14.4478V13.2603C19.9643 13.0623 19.8158 12.9139 19.5685 12.8643H18.8263C18.6283 12.8643 18.4799 13.0128 18.4304 13.2603V14.3982C16.946 14.5962 16.006 15.5857 16.006 16.8228C16.006 18.4556 16.9955 19.0987 19.0737 19.3462C20.4591 19.5936 20.9044 19.8904 20.9044 20.6821C20.9044 21.4739 20.2116 22.0181 19.2716 22.0181C17.9851 22.0181 17.5398 21.4737 17.3913 20.7315C17.3419 20.5337 17.1935 20.4347 17.0451 20.4347H16.2038C16.006 20.4347 15.8576 20.5831 15.8576 20.7811V20.8306C16.0554 22.0675 16.8471 22.9581 18.4799 23.2056V24.3931C18.4799 24.5909 18.6283 24.7394 18.8757 24.7889H19.6179C19.8158 24.7889 19.9643 24.6404 20.0138 24.3931V23.2056C21.4982 22.9581 22.4877 21.919 22.4877 20.5831Z" fill="#2775CA"/>
<path d="M16.6987 25.7785C12.8393 24.3931 10.8601 20.0884 12.2951 16.2784C13.0372 14.2003 14.6701 12.617 16.6987 11.8748C16.8966 11.7759 16.9955 11.6274 16.9955 11.38V10.6873C16.9955 10.4893 16.8966 10.3409 16.6987 10.2915C16.6492 10.2915 16.5502 10.2915 16.5007 10.3409C11.8002 11.8253 9.22726 16.8228 10.7116 21.5233C11.6023 24.2941 13.7299 26.4217 16.5007 27.3124C16.6987 27.4113 16.8966 27.3124 16.946 27.1144C16.9955 27.065 16.9955 27.0155 16.9955 26.9166V26.2238C16.9955 26.0753 16.8471 25.8775 16.6987 25.7785ZM21.9435 10.3409C21.7456 10.242 21.5476 10.3409 21.4982 10.5389C21.4487 10.5884 21.4487 10.6378 21.4487 10.7368V11.4295C21.4487 11.6274 21.5971 11.8253 21.7456 11.9243C25.6049 13.3097 27.5841 17.6144 26.1492 21.4244C25.407 23.5025 23.7742 25.0858 21.7456 25.828C21.5476 25.9269 21.4487 26.0753 21.4487 26.3228V27.0155C21.4487 27.2134 21.5476 27.3619 21.7456 27.4113C21.7951 27.4113 21.894 27.4113 21.9435 27.3619C26.644 25.8775 29.217 20.88 27.7326 16.1795C26.842 13.3592 24.6648 11.2315 21.9435 10.3409Z" fill="#2775CA"/>
<defs>
<linearGradient id="paint0_linear_2075_4694" x1="19" y1="0" x2="19" y2="38" gradientUnits="userSpaceOnUse">
<stop stop-color="white"/>
<stop offset="1" stop-color="white" stop-opacity="0"/>
</linearGradient>
</defs>
</svg>
