<svg width="38" height="38" viewBox="0 0 38 38" fill="none" xmlns="http://www.w3.org/2000/svg">
<circle opacity="0.1" cx="19" cy="19" r="19" fill="black"/>
<circle opacity="0.3" cx="19" cy="19" r="19" fill="url(#paint0_linear_3215_7842)"/>
<path d="M11.9407 19.9305C11.9002 19.6218 11.8799 19.3108 11.8797 18.9995C11.8814 17.7573 12.2075 16.537 12.8258 15.4597C13.444 14.3823 14.333 13.4851 15.4047 12.8571C16.4763 12.229 17.6934 11.8918 18.9355 11.879C20.1775 11.8661 21.4013 12.178 22.4858 12.7837L24.116 11.9528C22.8165 11.0095 21.2814 10.4439 19.6806 10.3185C18.0797 10.1931 16.4754 10.5128 15.0448 11.2423C13.6143 11.9718 12.4133 13.0826 11.5746 14.4521C10.7358 15.8215 10.292 17.3962 10.2922 19.0021C10.2922 19.2239 10.3006 19.4448 10.3174 19.6649C10.341 19.9765 10.2719 20.2881 10.1188 20.5606C9.96572 20.833 9.73547 21.0541 9.45704 21.196L8.70898 21.5774V23.3567L29.2923 12.8673V11.0888L11.9407 19.9305Z" fill="#011235"/>
<path d="M29.2923 14.6475L13.0441 22.9213L8.70898 25.1317V26.9093L26.065 18.065C26.1055 18.3757 26.1258 18.6887 26.1259 19.0021C26.1251 20.2458 25.7991 21.4676 25.1803 22.5463C24.5614 23.625 23.6712 24.523 22.598 25.1513C21.5248 25.7795 20.3059 26.1161 19.0624 26.1277C17.819 26.1392 16.5941 25.8253 15.5094 25.2171L15.4223 25.2632L13.8844 26.0471C15.1837 26.9904 16.7184 27.5562 18.319 27.6819C19.9196 27.8075 21.5238 27.4882 22.9543 26.7593C24.3849 26.0303 25.586 24.92 26.4251 23.551C27.2642 22.1821 27.7086 20.6078 27.7091 19.0021C27.7091 18.7783 27.7004 18.5544 27.6839 18.3332C27.6603 18.0217 27.7293 17.7102 27.8823 17.4378C28.0352 17.1654 28.2652 16.9442 28.5434 16.8021L29.2923 16.4207V14.6475Z" fill="#011235"/>
<defs>
<linearGradient id="paint0_linear_3215_7842" x1="19" y1="0" x2="19" y2="38" gradientUnits="userSpaceOnUse">
<stop stop-color="white"/>
<stop offset="1" stop-color="white" stop-opacity="0"/>
</linearGradient>
</defs>
</svg>
