<svg width="28" height="28" viewBox="0 0 28 28" fill="none" xmlns="http://www.w3.org/2000/svg">
<path d="M28 9.05573C28 13.5975 24.6563 17.3452 20.3096 18V17.9164C19.8777 12.5108 15.4892 8.12229 10.0418 7.6904H10C10.6548 3.34365 14.4025 0 18.9443 0C23.9458 0 28 4.05418 28 9.05573Z" fill="#226DFF"/>
<path d="M17.9723 18.28C17.6262 13.8908 14.1092 10.3738 9.72 10.0277C9.48462 10.0138 9.23538 10 9 10C4.02923 10 0 14.0292 0 19C0 23.9708 4.02923 28 9 28C13.9708 28 18 23.9708 18 19C18 18.7646 17.9862 18.5154 17.9723 18.28ZM10.2185 20.2185L9 22.4615L7.78154 20.2185L5.53846 19L7.78154 17.7815L9 15.5385L10.2185 17.7815L12.4615 19L10.2185 20.2185Z" fill="#226DFF"/>
</svg>
