<svg width="30" height="24" viewBox="0 0 30 24" fill="none" xmlns="http://www.w3.org/2000/svg">
<path d="M0.333252 4C0.333252 1.79086 2.12411 0 4.33325 0H25.6666C27.8757 0 29.6666 1.79086 29.6666 4C29.6666 4.73638 29.0696 5.33333 28.3333 5.33333H22.9999C19.318 5.33333 16.3333 8.3181 16.3333 12C16.3333 15.6819 19.318 18.6667 22.9999 18.6667H28.3333C29.0696 18.6667 29.6666 19.2636 29.6666 20C29.6666 22.2091 27.8757 24 25.6666 24H4.33325C2.12411 24 0.333252 22.2091 0.333252 20V4Z" fill="#226DFF"/>
<path fill-rule="evenodd" clip-rule="evenodd" d="M22.9999 8H28.3333C29.0696 8 29.6666 8.59695 29.6666 9.33333V14.6667C29.6666 15.403 29.0696 16 28.3333 16H22.9999C20.7908 16 18.9999 14.2091 18.9999 12C18.9999 9.79086 20.7908 8 22.9999 8ZM22.9999 13.3333C23.7363 13.3333 24.3333 12.7364 24.3333 12C24.3333 11.2636 23.7363 10.6667 22.9999 10.6667C22.2635 10.6667 21.6666 11.2636 21.6666 12C21.6666 12.7364 22.2635 13.3333 22.9999 13.3333Z" fill="#226DFF"/>
</svg>
