<svg width="30" height="24" viewBox="0 0 30 24" fill="none" xmlns="http://www.w3.org/2000/svg">
<path fill-rule="evenodd" clip-rule="evenodd" d="M0.333313 4C0.333313 1.79086 2.12417 0 4.33331 0H25.6666C27.8758 0 29.6666 1.79086 29.6666 4V20C29.6666 22.2091 27.8758 24 25.6666 24H4.33331C2.12417 24 0.333313 22.2091 0.333313 20V4ZM5.66665 16C5.66665 15.2636 6.2636 14.6667 6.99998 14.6667C7.73636 14.6667 8.33331 15.2636 8.33331 16V18.6667C8.33331 19.403 7.73636 20 6.99998 20C6.2636 20 5.66665 19.403 5.66665 18.6667V16ZM12.3333 6.66667C11.5969 6.66667 11 7.26362 11 8V18.6667C11 19.403 11.5969 20 12.3333 20C13.0697 20 13.6666 19.403 13.6666 18.6667V8C13.6666 7.26362 13.0697 6.66667 12.3333 6.66667ZM16.3333 10.6667C16.3333 9.93029 16.9303 9.33333 17.6666 9.33333C18.403 9.33333 19 9.93029 19 10.6667V18.6667C19 19.403 18.403 20 17.6666 20C16.9303 20 16.3333 19.403 16.3333 18.6667V10.6667ZM23 4C22.2636 4 21.6666 4.59695 21.6666 5.33333V18.6667C21.6666 19.403 22.2636 20 23 20C23.7364 20 24.3333 19.403 24.3333 18.6667V5.33333C24.3333 4.59695 23.7364 4 23 4Z" fill="#226DFF"/>
</svg>
