<svg width="895" height="802" viewBox="0 0 895 802" fill="none" xmlns="http://www.w3.org/2000/svg">
<path d="M111.5 584.096C132.763 584.096 150 566.838 150 545.548C150 524.259 132.763 507 111.5 507C90.237 507 73 524.259 73 545.548C73 566.838 90.237 584.096 111.5 584.096Z" fill="#102245"/>
<path opacity="0.3" d="M111.5 584.096C132.763 584.096 150 566.838 150 545.548C150 524.259 132.763 507 111.5 507C90.237 507 73 524.259 73 545.548C73 566.838 90.237 584.096 111.5 584.096Z" fill="url(#paint0_linear_464_3919)"/>
<path d="M112.57 554.764L96.7801 546.266L112.57 522.411L128.36 546.266L112.57 554.764Z" fill="white"/>
<path d="M112.57 569.251L128.37 548.992L112.57 557.486L96.78 548.992L112.57 569.251Z" fill="white"/>
<g filter="url(#filter0_d_464_3919)">
<path d="M582.477 280.055C604.832 280.055 622.954 261.91 622.954 239.528C622.954 217.145 604.832 199 582.477 199C560.122 199 542 217.145 542 239.528C542 261.91 560.122 280.055 582.477 280.055Z" fill="#F49819"/>
<path opacity="0.2" d="M582.477 280.055C604.832 280.055 622.954 261.91 622.954 239.528C622.954 217.145 604.832 199 582.477 199C560.122 199 542 217.145 542 239.528C542 261.91 560.122 280.055 582.477 280.055Z" fill="url(#paint1_linear_464_3919)"/>
<path d="M595.898 235.773C596.495 231.507 593.321 229.225 588.953 227.625L590.338 221.781L586.865 220.992L585.481 226.623C584.586 226.409 583.585 226.217 582.69 225.919L584.096 220.181L580.602 219.264L579.217 225.108L572.166 223.295L571.271 227.028L573.764 227.625C575.148 228.031 575.447 228.926 575.34 229.63L571.484 245.521C571.434 245.68 571.352 245.828 571.244 245.955C571.136 246.082 571.004 246.186 570.855 246.262C570.706 246.337 570.544 246.382 570.378 246.394C570.211 246.406 570.044 246.385 569.886 246.332L567.309 245.713L565.626 249.745L572.656 251.558L571.186 257.381L574.658 258.298L576.022 252.454C577.023 252.752 577.918 252.966 578.791 253.158L577.407 258.896L580.879 259.791L582.37 253.968C588.335 255.077 592.809 254.672 594.684 249.233C596.175 244.818 594.684 242.301 591.51 240.701C593.725 240.487 595.408 238.994 595.898 235.773ZM587.952 247.121C586.865 251.558 579.622 249.148 577.3 248.529L579.175 240.786C581.497 241.405 589.06 242.514 587.952 247.121ZM589.06 235.773C588.058 239.784 582.008 237.779 580.006 237.267L581.71 230.228C583.691 230.633 590.04 231.55 589.06 235.773Z" fill="white"/>
</g>
<path d="M515 802C529.912 802 542 789.912 542 775C542 760.088 529.912 748 515 748C500.088 748 488 760.088 488 775C488 789.912 500.088 802 515 802Z" fill="#2775CA"/>
<path opacity="0.3" d="M515 802C529.912 802 542 789.912 542 775C542 760.088 529.912 748 515 748C500.088 748 488 760.088 488 775C488 789.912 500.088 802 515 802Z" fill="url(#paint2_linear_464_3919)"/>
<path d="M521.382 778.087C521.382 775 519.538 773.941 515.85 773.5C513.216 773.148 512.689 772.442 512.689 771.207C512.689 769.972 513.568 769.178 515.324 769.178C516.904 769.178 517.782 769.707 518.221 771.03C518.309 771.295 518.572 771.471 518.836 771.471H520.241C520.592 771.471 520.855 771.207 520.855 770.854V770.766C520.504 768.825 518.923 767.325 516.904 767.149V765.032C516.904 764.679 516.641 764.414 516.202 764.326H514.885C514.533 764.326 514.27 764.591 514.182 765.032V767.061C511.548 767.414 509.88 769.178 509.88 771.383C509.88 774.294 511.636 775.441 515.324 775.882C517.782 776.323 518.572 776.852 518.572 778.264C518.572 779.675 517.343 780.646 515.675 780.646C513.392 780.646 512.602 779.675 512.338 778.352C512.25 777.999 511.987 777.823 511.724 777.823H510.231C509.88 777.823 509.616 778.087 509.616 778.44V778.529C509.967 780.734 511.372 782.322 514.27 782.763V784.88C514.27 785.233 514.533 785.497 514.972 785.586H516.289C516.641 785.586 516.904 785.321 516.992 784.88V782.763C519.626 782.322 521.382 780.469 521.382 778.087Z" fill="white"/>
<path d="M511.109 787.35C504.26 784.88 500.748 777.205 503.294 770.413C504.611 766.708 507.509 763.885 511.109 762.562C511.46 762.386 511.636 762.121 511.636 761.68V760.445C511.636 760.092 511.46 759.827 511.109 759.739C511.021 759.739 510.845 759.739 510.758 759.827C502.416 762.474 497.85 771.383 500.484 779.764C502.065 784.703 505.841 788.497 510.758 790.085C511.109 790.261 511.46 790.085 511.548 789.732C511.636 789.644 511.636 789.555 511.636 789.379V788.144C511.636 787.879 511.372 787.526 511.109 787.35ZM520.416 759.827C520.065 759.651 519.714 759.827 519.626 760.18C519.538 760.268 519.538 760.356 519.538 760.533V761.768C519.538 762.121 519.802 762.474 520.065 762.65C526.914 765.12 530.426 772.795 527.88 779.587C526.563 783.292 523.665 786.115 520.065 787.438C519.714 787.614 519.538 787.879 519.538 788.32V789.555C519.538 789.908 519.714 790.173 520.065 790.261C520.153 790.261 520.328 790.261 520.416 790.173C528.758 787.526 533.324 778.617 530.69 770.236C529.109 765.208 525.245 761.415 520.416 759.827Z" fill="white"/>
<g filter="url(#filter1_d_464_3919)">
<path d="M795.5 717.074C811.792 717.074 825 703.85 825 687.537C825 671.224 811.792 658 795.5 658C779.208 658 766 671.224 766 687.537C766 703.85 779.208 717.074 795.5 717.074Z" fill="#23292F"/>
<path opacity="0.3" d="M795.5 717.074C811.792 717.074 825 703.85 825 687.537C825 671.224 811.792 658 795.5 658C779.208 658 766 671.224 766 687.537C766 703.85 779.208 717.074 795.5 717.074Z" fill="url(#paint3_linear_464_3919)"/>
<path d="M783.273 673H778.07L788.898 683.789C792.82 687.694 799.177 687.694 803.102 683.789L813.934 673H808.727L800.5 681.196C799.301 682.384 797.686 683.051 796.003 683.051C794.32 683.051 792.705 682.384 791.506 681.196L783.273 673Z" fill="white"/>
<path d="M808.793 703H814L803.102 692.145C799.18 688.24 792.823 688.24 788.898 692.145L778 703H783.203L791.5 694.738C792.699 693.549 794.314 692.883 795.997 692.883C797.68 692.883 799.295 693.549 800.494 694.738L808.793 703Z" fill="white"/>
</g>
<g filter="url(#filter2_d_464_3919)">
<path d="M145.5 209C164.002 209 179 194.002 179 175.5C179 156.998 164.002 142 145.5 142C126.998 142 112 156.998 112 175.5C112 194.002 126.998 209 145.5 209Z" fill="#F0B90B"/>
<path opacity="0.3" d="M145.5 209C164.002 209 179 194.002 179 175.5C179 156.998 164.002 142 145.5 142C126.998 142 112 156.998 112 175.5C112 194.002 126.998 209 145.5 209Z" fill="url(#paint4_linear_464_3919)"/>
<path d="M133.141 175.5L133.162 183.179L139.636 187.019V191.515L129.373 185.448V173.254L133.141 175.5ZM133.141 167.821V172.296L129.37 170.048V165.573L133.141 163.325L136.93 165.573L133.141 167.821ZM142.34 165.573L146.111 163.325L149.9 165.573L146.111 167.821L142.34 165.573Z" fill="white"/>
<path d="M135.866 181.588V177.092L139.636 179.34V183.814L135.866 181.588ZM142.34 188.629L146.111 190.877L149.9 188.629V193.104L146.111 195.352L142.34 193.104V188.629ZM155.308 165.573L159.079 163.325L162.868 165.573V170.048L159.079 172.296V167.821L155.308 165.573ZM159.079 183.179L159.1 175.5L162.87 173.252V185.446L152.606 191.512V187.016L159.079 183.179Z" fill="white"/>
<path d="M156.375 181.588L152.604 183.815V179.34L156.375 177.092V181.588Z" fill="white"/>
<path d="M156.375 169.413L156.396 173.908L149.903 177.748V185.446L146.132 187.673L142.361 185.446V177.748L135.868 173.908V169.413L139.655 167.165L146.109 171.023L152.602 167.165L156.391 169.413H156.375ZM135.866 161.736L146.111 155.648L156.375 161.736L152.604 163.984L146.111 160.125L139.636 163.984L135.866 161.736Z" fill="white"/>
</g>
<g filter="url(#filter3_d_464_3919)">
<path d="M193.779 638.611C205.255 638.611 214.559 629.296 214.559 617.805C214.559 606.315 205.255 597 193.779 597C182.303 597 173 606.315 173 617.805C173 629.296 182.303 638.611 193.779 638.611Z" fill="#194093"/>
<path d="M193.779 638.611C205.255 638.611 214.559 629.296 214.559 617.805C214.559 606.315 205.255 597 193.779 597C182.303 597 173 606.315 173 617.805C173 629.296 182.303 638.611 193.779 638.611Z" fill="url(#paint5_linear_464_3919)"/>
<path opacity="0.3" d="M193.779 638.611C205.255 638.611 214.559 629.296 214.559 617.805C214.559 606.315 205.255 597 193.779 597C182.303 597 173 606.315 173 617.805C173 629.296 182.303 638.611 193.779 638.611Z" fill="url(#paint6_linear_464_3919)"/>
<path d="M187.249 623.265C187.37 623.111 187.536 623.021 187.712 623.021H203.672C203.964 623.021 204.11 623.47 203.903 623.733L200.751 627.756C200.63 627.91 200.464 628 200.288 628H184.328C184.036 628 183.89 627.551 184.097 627.288L187.249 623.265Z" fill="white"/>
<path d="M187.249 608.244C187.375 608.09 187.541 608 187.712 608H203.672C203.964 608 204.11 608.449 203.903 608.712L200.751 612.735C200.63 612.889 200.464 612.979 200.288 612.979H184.328C184.036 612.979 183.89 612.53 184.097 612.267L187.249 608.244Z" fill="white"/>
<path d="M200.751 615.706C200.63 615.552 200.464 615.462 200.288 615.462H184.328C184.036 615.462 183.89 615.911 184.097 616.175L187.249 620.198C187.37 620.352 187.536 620.441 187.712 620.441H203.672C203.964 620.441 204.11 619.992 203.903 619.729L200.751 615.706Z" fill="white"/>
</g>
<path d="M718.779 41.6105C730.255 41.6105 739.559 32.2957 739.559 20.8053C739.559 9.31484 730.255 0 718.779 0C707.303 0 698 9.31484 698 20.8053C698 32.2957 707.303 41.6105 718.779 41.6105Z" fill="#172852"/>
<path opacity="0.3" d="M718.779 41.6105C730.255 41.6105 739.559 32.2957 739.559 20.8053C739.559 9.31484 730.255 0 718.779 0C707.303 0 698 9.31484 698 20.8053C698 32.2957 707.303 41.6105 718.779 41.6105Z" fill="url(#paint7_linear_464_3919)"/>
<path d="M714.954 9.69807C717.362 8.79747 720.072 8.79542 722.525 9.53564C725.718 10.5267 728.414 12.9365 729.822 15.9611C730.211 16.8227 730.583 17.7212 730.62 18.6794C728.825 17.6389 726.857 16.9645 724.886 16.3497C721.731 15.2127 718.429 14.4231 715.444 12.8604C714.749 12.4451 713.862 12.0195 713.673 11.1538C713.597 10.4054 714.389 9.98799 714.954 9.69807Z" fill="#FFD83D"/>
<path d="M707.686 16.9769C708.383 15.0852 709.526 13.3293 711.078 12.0277C711.473 15.2744 712.855 18.4121 715.137 20.7726C717.874 23.6163 721.772 25.3619 725.739 25.2961C727.314 25.3455 728.854 24.9815 730.39 24.6875C728.878 30.1487 722.893 33.7737 717.348 32.9019C714 32.4742 710.91 30.4921 709.045 27.6936C706.941 24.6012 706.411 20.495 707.686 16.9769Z" fill="#FFD83D"/>
<g filter="url(#filter4_d_464_3919)">
<path d="M851.779 310.611C863.255 310.611 872.559 301.296 872.559 289.805C872.559 278.315 863.255 269 851.779 269C840.303 269 831 278.315 831 289.805C831 301.296 840.303 310.611 851.779 310.611Z" fill="#194093"/>
<path d="M865 276H839V300H865V276Z" fill="white"/>
<path fill-rule="evenodd" clip-rule="evenodd" d="M873 290C873 301.598 863.598 311 852 311C840.402 311 831 301.598 831 290C831 278.402 840.402 269 852 269C863.598 269 873 278.402 873 290ZM846.049 298.357H841.974C841.117 298.357 840.694 298.357 840.436 298.192C840.158 298.011 839.988 297.712 839.967 297.382C839.951 297.078 840.163 296.706 840.586 295.963L850.649 278.226C851.077 277.473 851.294 277.096 851.567 276.957C851.861 276.807 852.212 276.807 852.506 276.957C852.78 277.096 852.996 277.473 853.424 278.226L855.493 281.837L855.504 281.856C855.966 282.664 856.201 283.073 856.303 283.503C856.417 283.973 856.417 284.468 856.303 284.938C856.2 285.371 855.968 285.784 855.498 286.604L850.212 295.948L850.199 295.972C849.733 296.786 849.497 297.199 849.17 297.511C848.814 297.851 848.386 298.099 847.917 298.238C847.489 298.357 847.009 298.357 846.049 298.357ZM856.341 298.357H862.181C863.042 298.357 863.476 298.357 863.734 298.187C864.013 298.006 864.188 297.702 864.203 297.372C864.218 297.077 864.011 296.72 863.606 296.021C863.592 295.997 863.578 295.972 863.564 295.948L860.639 290.944L860.605 290.887C860.194 290.192 859.987 289.841 859.72 289.706C859.426 289.556 859.08 289.556 858.787 289.706C858.518 289.845 858.302 290.211 857.873 290.949L854.959 295.953L854.949 295.97C854.522 296.707 854.309 297.075 854.324 297.377C854.345 297.707 854.515 298.011 854.794 298.192C855.046 298.357 855.48 298.357 856.341 298.357Z" fill="#E84142"/>
<path opacity="0.3" d="M851.779 310.611C863.255 310.611 872.559 301.296 872.559 289.805C872.559 278.315 863.255 269 851.779 269C840.303 269 831 278.315 831 289.805C831 301.296 840.303 310.611 851.779 310.611Z" fill="url(#paint8_linear_464_3919)"/>
</g>
<path d="M623.279 506.617C636.136 506.617 646.559 496.181 646.559 483.308C646.559 470.436 636.136 460 623.279 460C610.422 460 600 470.436 600 483.308C600 496.181 610.422 506.617 623.279 506.617Z" fill="#194093"/>
<path opacity="0.3" d="M623.279 506.617C636.136 506.617 646.559 496.181 646.559 483.308C646.559 470.436 636.136 460 623.279 460C610.422 460 600 470.436 600 483.308C600 496.181 610.422 506.617 623.279 506.617Z" fill="url(#paint9_linear_464_3919)"/>
<path d="M616.712 483.21C616.682 483.734 616.859 484.248 617.206 484.641C617.552 485.034 618.04 485.273 618.562 485.308H618.672C619.061 485.312 619.442 485.202 619.769 484.991C620.096 484.78 620.354 484.478 620.51 484.122C620.667 483.765 620.716 483.371 620.65 482.987C620.585 482.603 620.409 482.247 620.143 481.963C619.877 481.679 619.534 481.479 619.156 481.388C618.778 481.298 618.382 481.32 618.016 481.453C617.651 481.586 617.332 481.823 617.101 482.136C616.869 482.448 616.734 482.822 616.712 483.21ZM609.361 482.707C609.277 482.702 609.194 482.714 609.116 482.742C609.037 482.77 608.965 482.813 608.903 482.869C608.842 482.925 608.792 482.992 608.757 483.068C608.722 483.143 608.702 483.225 608.699 483.309C608.692 483.435 608.722 483.561 608.787 483.67C608.851 483.779 608.946 483.866 609.06 483.921C609.175 483.975 609.302 483.994 609.428 483.976C609.553 483.958 609.669 483.902 609.763 483.817C609.857 483.732 609.923 483.621 609.953 483.498C609.984 483.375 609.977 483.246 609.934 483.127C609.891 483.008 609.813 482.905 609.711 482.83C609.609 482.755 609.487 482.713 609.361 482.707ZM616.553 471.667C616.703 471.586 616.815 471.449 616.865 471.286C616.916 471.123 616.9 470.947 616.822 470.796C616.791 470.711 616.742 470.635 616.679 470.571C616.616 470.507 616.54 470.457 616.456 470.424C616.372 470.391 616.283 470.377 616.193 470.381C616.103 470.386 616.015 470.41 615.935 470.45C615.855 470.491 615.785 470.549 615.729 470.619C615.672 470.689 615.631 470.77 615.609 470.857C615.586 470.944 615.582 471.035 615.597 471.124C615.612 471.213 615.645 471.297 615.695 471.372C615.726 471.457 615.776 471.535 615.839 471.599C615.903 471.664 615.98 471.714 616.064 471.747C616.149 471.779 616.24 471.793 616.33 471.788C616.421 471.783 616.509 471.758 616.589 471.716L616.553 471.667ZM618.537 475.175C618.768 475.055 618.942 474.848 619.023 474.601C619.103 474.353 619.083 474.083 618.966 473.85C618.91 473.734 618.832 473.63 618.735 473.545C618.638 473.46 618.526 473.395 618.404 473.354C618.281 473.312 618.152 473.296 618.024 473.306C617.895 473.315 617.77 473.35 617.655 473.409C617.45 473.542 617.302 473.745 617.238 473.981C617.173 474.217 617.198 474.468 617.307 474.687C617.417 474.905 617.602 475.076 617.829 475.166C618.056 475.256 618.308 475.259 618.537 475.175ZM611.848 477.629C611.936 477.688 612.035 477.729 612.139 477.749C612.243 477.769 612.35 477.769 612.454 477.747C612.558 477.725 612.657 477.683 612.744 477.623C612.831 477.562 612.906 477.485 612.963 477.396C613.079 477.214 613.12 476.995 613.077 476.784C613.033 476.572 612.909 476.387 612.73 476.267C612.642 476.208 612.543 476.167 612.439 476.146C612.334 476.126 612.227 476.127 612.123 476.149C612.02 476.17 611.921 476.213 611.834 476.273C611.746 476.333 611.672 476.41 611.615 476.5C611.557 476.591 611.518 476.694 611.501 476.8C611.483 476.907 611.487 477.016 611.512 477.121C611.537 477.227 611.583 477.326 611.647 477.413C611.711 477.5 611.792 477.573 611.884 477.629H611.848ZM613.073 482.352C612.876 482.337 612.68 482.382 612.509 482.48C612.337 482.578 612.199 482.724 612.112 482.901C612.024 483.078 611.991 483.277 612.017 483.473C612.043 483.669 612.126 483.852 612.257 484C612.387 484.148 612.559 484.254 612.749 484.304C612.94 484.354 613.141 484.346 613.328 484.281C613.514 484.216 613.676 484.097 613.795 483.939C613.913 483.781 613.982 483.592 613.992 483.394C614 483.265 613.983 483.136 613.941 483.014C613.9 482.892 613.834 482.779 613.749 482.682C613.663 482.585 613.56 482.506 613.444 482.449C613.328 482.393 613.202 482.359 613.073 482.352ZM611.995 489.001C611.801 489.097 611.654 489.266 611.585 489.47C611.516 489.675 611.531 489.899 611.627 490.093C611.723 490.286 611.892 490.434 612.096 490.503C612.301 490.572 612.524 490.557 612.718 490.461C612.814 490.412 612.901 490.346 612.971 490.264C613.041 490.182 613.095 490.086 613.128 489.984C613.161 489.881 613.173 489.772 613.164 489.664C613.154 489.557 613.123 489.452 613.073 489.356C613.026 489.262 612.961 489.177 612.881 489.108C612.801 489.038 612.709 488.986 612.608 488.952C612.508 488.919 612.402 488.907 612.297 488.915C612.191 488.923 612.089 488.952 611.995 489.001ZM615.793 480.303C615.919 480.387 616.06 480.446 616.209 480.475C616.358 480.504 616.511 480.503 616.659 480.472C616.807 480.441 616.948 480.381 617.073 480.295C617.197 480.209 617.304 480.099 617.386 479.972C617.542 479.709 617.595 479.397 617.534 479.098C617.472 478.798 617.302 478.533 617.055 478.352C616.8 478.241 616.513 478.225 616.247 478.308C615.981 478.39 615.754 478.565 615.605 478.801C615.457 479.037 615.398 479.318 615.44 479.593C615.481 479.869 615.619 480.121 615.83 480.303H615.793ZM627.861 475.138C627.969 475.211 628.089 475.262 628.216 475.287C628.343 475.312 628.474 475.311 628.601 475.285C628.728 475.259 628.848 475.207 628.955 475.134C629.061 475.06 629.152 474.966 629.221 474.856C629.362 474.636 629.412 474.368 629.359 474.112C629.307 473.855 629.156 473.629 628.94 473.482C628.721 473.37 628.469 473.342 628.232 473.405C627.994 473.468 627.788 473.617 627.654 473.823C627.52 474.029 627.467 474.278 627.505 474.521C627.544 474.764 627.671 474.984 627.861 475.138ZM630.741 471.458C630.787 471.388 630.818 471.31 630.834 471.227C630.849 471.145 630.849 471.06 630.832 470.978C630.815 470.896 630.781 470.818 630.734 470.749C630.687 470.68 630.627 470.621 630.557 470.575C630.487 470.529 630.409 470.497 630.326 470.482C630.244 470.466 630.16 470.467 630.078 470.484C629.996 470.501 629.918 470.534 629.849 470.581C629.78 470.628 629.721 470.689 629.675 470.759C629.588 470.904 629.558 471.077 629.592 471.242C629.626 471.408 629.721 471.555 629.859 471.654C629.929 471.701 630.008 471.734 630.091 471.749C630.174 471.765 630.259 471.763 630.342 471.745C630.424 471.727 630.502 471.692 630.571 471.643C630.639 471.593 630.697 471.53 630.741 471.458ZM628.009 481.272C627.501 481.272 627.013 481.466 626.644 481.816C626.276 482.165 626.055 482.642 626.026 483.149C625.998 483.656 626.165 484.155 626.493 484.543C626.82 484.931 627.284 485.178 627.788 485.235H627.898C628.399 485.212 628.872 485 629.224 484.642C629.575 484.284 629.778 483.806 629.792 483.305C629.806 482.803 629.63 482.315 629.299 481.938C628.968 481.561 628.507 481.323 628.009 481.272ZM619.211 480.119C619.419 480.496 619.745 480.794 620.139 480.967C620.533 481.14 620.973 481.179 621.391 481.077C621.809 480.975 622.182 480.739 622.452 480.404C622.723 480.069 622.875 479.654 622.887 479.223C622.885 478.913 622.814 478.607 622.679 478.328C622.565 478.095 622.407 477.887 622.213 477.717C622.018 477.546 621.792 477.416 621.547 477.334C621.301 477.251 621.042 477.219 620.784 477.238C620.526 477.257 620.275 477.327 620.045 477.445C619.81 477.567 619.602 477.735 619.433 477.939C619.263 478.143 619.136 478.378 619.059 478.632C618.981 478.885 618.955 479.152 618.981 479.415C619.007 479.679 619.086 479.935 619.211 480.168V480.119ZM634.576 477.58C634.767 477.478 634.91 477.305 634.974 477.098C635.038 476.891 635.018 476.668 634.919 476.475C634.871 476.382 634.805 476.298 634.725 476.23C634.644 476.162 634.551 476.111 634.451 476.079C634.351 476.047 634.245 476.035 634.141 476.044C634.036 476.053 633.934 476.083 633.841 476.132C633.649 476.23 633.504 476.399 633.437 476.604C633.37 476.809 633.388 477.032 633.485 477.224C633.583 477.416 633.752 477.561 633.957 477.628C634.161 477.695 634.384 477.677 634.576 477.58ZM629.601 478.205C629.341 478.357 629.145 478.601 629.053 478.888C628.96 479.176 628.976 479.487 629.099 479.763C629.166 479.9 629.258 480.021 629.372 480.122C629.486 480.222 629.618 480.299 629.762 480.348C629.905 480.397 630.057 480.417 630.208 480.407C630.359 480.397 630.507 480.358 630.643 480.291C630.906 480.138 631.104 479.893 631.197 479.603C631.29 479.312 631.271 478.998 631.145 478.72C631 478.456 630.757 478.259 630.468 478.172C630.18 478.085 629.868 478.114 629.601 478.254V478.205ZM623.242 471.348C623.356 471.366 623.473 471.361 623.584 471.331C623.696 471.302 623.8 471.249 623.89 471.177C623.98 471.104 624.054 471.014 624.106 470.911C624.159 470.808 624.189 470.695 624.195 470.58C624.201 470.464 624.183 470.349 624.142 470.241C624.1 470.133 624.036 470.035 623.955 469.954C623.873 469.872 623.775 469.809 623.667 469.768C623.559 469.727 623.443 469.709 623.328 469.716C623.116 469.706 622.908 469.78 622.749 469.923C622.591 470.065 622.495 470.264 622.483 470.477C622.469 470.693 622.541 470.905 622.684 471.069C622.826 471.232 623.027 471.332 623.242 471.348ZM623.242 476.475C623.533 476.465 623.81 476.346 624.017 476.142C624.225 475.938 624.348 475.663 624.364 475.372C624.379 475.081 624.285 474.795 624.1 474.57C623.915 474.345 623.653 474.198 623.365 474.157C623.212 474.145 623.059 474.165 622.914 474.214C622.769 474.263 622.635 474.34 622.521 474.442C622.406 474.544 622.314 474.668 622.248 474.807C622.183 474.945 622.146 475.096 622.14 475.249C622.13 475.402 622.151 475.556 622.201 475.701C622.251 475.847 622.33 475.98 622.433 476.095C622.536 476.209 622.66 476.302 622.799 476.367C622.938 476.432 623.089 476.469 623.242 476.475ZM617.006 488.375C617.272 488.225 617.472 487.98 617.567 487.69C617.662 487.399 617.646 487.084 617.521 486.805C617.371 486.545 617.131 486.348 616.846 486.254C616.562 486.159 616.252 486.171 615.977 486.29C615.714 486.44 615.516 486.682 615.421 486.97C615.326 487.257 615.341 487.57 615.462 487.848C615.597 488.11 615.826 488.312 616.105 488.41C616.383 488.508 616.688 488.495 616.957 488.375H617.006ZM623.99 478.181C623.693 478.61 623.577 479.139 623.666 479.653C623.756 480.167 624.044 480.625 624.468 480.929C624.682 481.072 624.923 481.17 625.177 481.219C625.43 481.267 625.69 481.264 625.943 481.211C626.195 481.157 626.434 481.053 626.646 480.906C626.857 480.759 627.037 480.57 627.175 480.352C627.46 479.914 627.56 479.38 627.455 478.868C627.349 478.356 627.046 477.906 626.612 477.616C626.397 477.475 626.155 477.378 625.902 477.33C625.649 477.283 625.39 477.286 625.138 477.339C624.886 477.393 624.647 477.496 624.436 477.643C624.224 477.789 624.043 477.976 623.904 478.193L623.99 478.181ZM627.408 486.486C627.295 486.253 627.136 486.045 626.942 485.875C626.747 485.705 626.52 485.575 626.275 485.494C626.029 485.413 625.77 485.381 625.512 485.402C625.254 485.423 625.003 485.495 624.774 485.615C624.31 485.854 623.959 486.265 623.797 486.761C623.634 487.257 623.672 487.797 623.904 488.265C624.017 488.497 624.176 488.705 624.37 488.876C624.565 489.047 624.791 489.177 625.036 489.259C625.281 489.341 625.541 489.374 625.798 489.355C626.056 489.336 626.308 489.265 626.538 489.148C626.999 488.903 627.344 488.485 627.497 487.986C627.651 487.488 627.601 486.948 627.359 486.486H627.408ZM630.814 486.326C630.69 486.241 630.55 486.181 630.401 486.151C630.253 486.121 630.101 486.122 629.953 486.153C629.805 486.184 629.665 486.245 629.542 486.331C629.418 486.418 629.313 486.529 629.234 486.658C629.149 486.785 629.091 486.927 629.061 487.077C629.032 487.227 629.033 487.381 629.064 487.53C629.095 487.68 629.155 487.822 629.241 487.948C629.327 488.074 629.437 488.182 629.565 488.265C629.69 488.349 629.832 488.407 629.98 488.437C630.129 488.466 630.282 488.465 630.43 488.434C630.579 488.403 630.719 488.343 630.844 488.257C630.969 488.171 631.075 488.061 631.157 487.933C631.304 487.665 631.345 487.351 631.273 487.054C631.2 486.756 631.019 486.497 630.765 486.326H630.814ZM634.576 483.345C634.583 483.216 634.565 483.087 634.522 482.966C634.48 482.844 634.414 482.731 634.328 482.635C634.242 482.539 634.138 482.461 634.022 482.405C633.905 482.349 633.779 482.316 633.651 482.309C633.522 482.301 633.393 482.32 633.271 482.362C633.15 482.405 633.038 482.471 632.941 482.557C632.845 482.643 632.767 482.747 632.711 482.864C632.655 482.98 632.623 483.106 632.615 483.235C632.607 483.365 632.625 483.495 632.667 483.618C632.71 483.741 632.776 483.855 632.863 483.952C632.95 484.049 633.055 484.127 633.172 484.183C633.289 484.239 633.417 484.271 633.547 484.278C633.792 484.276 634.027 484.183 634.208 484.018C634.389 483.853 634.503 483.626 634.527 483.382L634.576 483.345ZM637.283 482.646C637.2 482.641 637.116 482.653 637.037 482.68C636.958 482.708 636.885 482.751 636.822 482.807C636.759 482.862 636.708 482.93 636.672 483.006C636.635 483.081 636.614 483.163 636.61 483.247C636.605 483.331 636.616 483.415 636.644 483.494C636.671 483.574 636.714 483.647 636.77 483.709C636.826 483.772 636.893 483.823 636.969 483.86C637.044 483.896 637.126 483.917 637.21 483.922C637.294 483.927 637.378 483.915 637.457 483.888C637.536 483.86 637.609 483.817 637.672 483.761C637.734 483.706 637.785 483.638 637.822 483.562C637.858 483.487 637.879 483.405 637.884 483.321C637.887 483.233 637.873 483.146 637.842 483.064C637.811 482.983 637.763 482.908 637.703 482.845C637.642 482.782 637.569 482.732 637.489 482.698C637.408 482.664 637.322 482.646 637.235 482.646H637.283ZM634.735 489.001C634.646 488.941 634.546 488.9 634.441 488.88C634.336 488.859 634.228 488.86 634.123 488.881C634.018 488.903 633.918 488.945 633.83 489.006C633.742 489.066 633.666 489.144 633.608 489.234C633.494 489.416 633.455 489.635 633.498 489.845C633.542 490.055 633.664 490.24 633.841 490.362C633.93 490.422 634.03 490.463 634.135 490.484C634.24 490.504 634.348 490.503 634.453 490.482C634.558 490.46 634.657 490.418 634.746 490.357C634.834 490.297 634.91 490.219 634.968 490.129C635.023 490.037 635.06 489.934 635.076 489.827C635.092 489.72 635.087 489.611 635.061 489.507C635.034 489.402 634.988 489.303 634.924 489.216C634.859 489.129 634.779 489.056 634.686 489.001H634.735ZM616.749 494.975C616.644 494.906 616.521 494.869 616.396 494.869C616.271 494.869 616.148 494.906 616.044 494.976C615.939 495.046 615.858 495.144 615.809 495.26C615.761 495.376 615.747 495.504 615.771 495.627C615.795 495.75 615.854 495.864 615.942 495.954C616.03 496.043 616.142 496.105 616.265 496.131C616.388 496.157 616.515 496.146 616.632 496.1C616.748 496.053 616.849 495.974 616.92 495.871C616.966 495.798 616.997 495.716 617.011 495.631C617.025 495.546 617.022 495.459 617.001 495.376C616.981 495.292 616.943 495.213 616.891 495.144C616.84 495.076 616.774 495.018 616.7 494.975H616.749ZM630.03 494.914C629.878 494.992 629.763 495.128 629.71 495.291C629.657 495.454 629.671 495.632 629.748 495.785C629.829 495.932 629.962 496.043 630.122 496.095C630.281 496.147 630.454 496.137 630.606 496.067C630.753 495.986 630.863 495.852 630.913 495.692C630.963 495.532 630.95 495.358 630.876 495.208C630.841 495.126 630.789 495.052 630.723 494.992C630.658 494.931 630.58 494.885 630.495 494.857C630.41 494.829 630.321 494.82 630.232 494.83C630.143 494.84 630.058 494.868 629.981 494.914H630.03ZM622.679 488.449C622.967 488.009 623.07 487.473 622.964 486.958C622.858 486.443 622.553 485.991 622.115 485.701C621.899 485.559 621.657 485.462 621.403 485.414C621.149 485.366 620.888 485.369 620.635 485.423C620.383 485.476 620.143 485.579 619.93 485.726C619.717 485.873 619.535 486.06 619.395 486.277C619.111 486.719 619.013 487.255 619.12 487.769C619.228 488.284 619.534 488.735 619.971 489.025C620.287 489.234 620.658 489.345 621.037 489.344C621.354 489.339 621.665 489.254 621.941 489.098C622.217 488.941 622.45 488.718 622.617 488.449H622.679ZM618.77 491.491C618.663 491.418 618.542 491.368 618.415 491.343C618.288 491.317 618.158 491.318 618.031 491.344C617.904 491.37 617.784 491.422 617.677 491.496C617.57 491.569 617.48 491.664 617.41 491.773C617.269 491.994 617.22 492.261 617.273 492.517C617.325 492.774 617.476 493 617.692 493.147C617.799 493.218 617.919 493.267 618.044 493.291C618.17 493.315 618.299 493.314 618.425 493.288C618.55 493.262 618.669 493.211 618.775 493.138C618.88 493.066 618.97 492.973 619.04 492.865C619.111 492.754 619.158 492.629 619.18 492.499C619.202 492.369 619.197 492.236 619.166 492.108C619.135 491.979 619.079 491.859 619 491.753C618.922 491.647 618.823 491.558 618.709 491.491H618.77ZM623.242 495.282C623.136 495.275 623.03 495.289 622.929 495.324C622.828 495.359 622.735 495.413 622.656 495.484C622.576 495.554 622.511 495.64 622.465 495.736C622.418 495.832 622.391 495.936 622.385 496.042C622.375 496.202 622.413 496.361 622.494 496.499C622.575 496.637 622.695 496.748 622.839 496.818C622.982 496.888 623.143 496.914 623.302 496.892C623.46 496.87 623.608 496.802 623.728 496.696C623.848 496.59 623.933 496.451 623.974 496.296C624.015 496.141 624.009 495.978 623.957 495.826C623.905 495.675 623.809 495.543 623.682 495.446C623.555 495.349 623.402 495.292 623.242 495.282ZM623.242 490.154C623.012 490.14 622.783 490.194 622.584 490.31C622.385 490.427 622.225 490.6 622.124 490.807C622.023 491.015 621.986 491.248 622.018 491.477C622.049 491.705 622.148 491.919 622.301 492.092C622.454 492.264 622.655 492.387 622.879 492.445C623.102 492.503 623.337 492.493 623.555 492.417C623.772 492.341 623.963 492.202 624.101 492.017C624.24 491.833 624.32 491.611 624.333 491.381C624.343 491.228 624.322 491.075 624.273 490.931C624.223 490.786 624.145 490.653 624.044 490.539C623.942 490.425 623.819 490.332 623.682 490.266C623.544 490.2 623.395 490.162 623.242 490.154ZM627.96 491.381C627.726 491.501 627.549 491.71 627.469 491.96C627.388 492.211 627.411 492.483 627.531 492.718C627.587 492.834 627.665 492.938 627.762 493.023C627.859 493.108 627.972 493.172 628.095 493.212C628.217 493.252 628.347 493.267 628.475 493.256C628.603 493.245 628.728 493.208 628.842 493.147C628.958 493.09 629.062 493.01 629.147 492.912C629.233 492.814 629.298 492.7 629.339 492.577C629.38 492.454 629.396 492.324 629.386 492.194C629.377 492.064 629.341 491.938 629.283 491.822C629.161 491.603 628.96 491.438 628.721 491.36C628.483 491.283 628.224 491.299 627.996 491.405L627.96 491.381Z" fill="white"/>
<path d="M20.7793 126.611C32.2554 126.611 41.5586 117.296 41.5586 105.805C41.5586 94.3148 32.2554 85 20.7793 85C9.30321 85 0 94.3148 0 105.805C0 117.296 9.30321 126.611 20.7793 126.611Z" fill="#13B5EC"/>
<path opacity="0.3" d="M20.7793 126.611C32.2554 126.611 41.5586 117.296 41.5586 105.805C41.5586 94.3148 32.2554 85 20.7793 85C9.30321 85 0 94.3148 0 105.805C0 117.296 9.30321 126.611 20.7793 126.611Z" fill="url(#paint10_linear_464_3919)"/>
<path fill-rule="evenodd" clip-rule="evenodd" d="M22.6 101.883L27.4 99.0833V104.683L22.6 101.883ZM27.4 113.883L21 117.617L14.6 113.883V107.35L21 111.083L27.4 107.35V113.883ZM14.6 99.0833L19.4 101.883L14.6 104.683V99.0833ZM21.8 103.217L26.6 106.017L21.8 108.817V103.217ZM20.2 108.817L15.4 106.017L20.2 103.217V108.817ZM26.6 97.75L21 100.95L15.4 97.75L21 94.4167L26.6 97.75ZM13 97.2167V114.683L21 119.217L29 114.683V97.2167L21 92.6833L13 97.2167Z" fill="white"/>
<defs>
<filter id="filter0_d_464_3919" x="512" y="199" width="140.954" height="142.055" filterUnits="userSpaceOnUse" color-interpolation-filters="sRGB">
<feFlood flood-opacity="0" result="BackgroundImageFix"/>
<feColorMatrix in="SourceAlpha" type="matrix" values="0 0 0 0 0 0 0 0 0 0 0 0 0 0 0 0 0 0 127 0" result="hardAlpha"/>
<feOffset dy="31"/>
<feGaussianBlur stdDeviation="15"/>
<feComposite in2="hardAlpha" operator="out"/>
<feColorMatrix type="matrix" values="0 0 0 0 0 0 0 0 0 0 0 0 0 0 0 0 0 0 0.2 0"/>
<feBlend mode="normal" in2="BackgroundImageFix" result="effect1_dropShadow_464_3919"/>
<feBlend mode="normal" in="SourceGraphic" in2="effect1_dropShadow_464_3919" result="shape"/>
</filter>
<filter id="filter1_d_464_3919" x="744" y="650" width="103" height="103.074" filterUnits="userSpaceOnUse" color-interpolation-filters="sRGB">
<feFlood flood-opacity="0" result="BackgroundImageFix"/>
<feColorMatrix in="SourceAlpha" type="matrix" values="0 0 0 0 0 0 0 0 0 0 0 0 0 0 0 0 0 0 127 0" result="hardAlpha"/>
<feOffset dy="14"/>
<feGaussianBlur stdDeviation="11"/>
<feComposite in2="hardAlpha" operator="out"/>
<feColorMatrix type="matrix" values="0 0 0 0 0 0 0 0 0 0 0 0 0 0 0 0 0 0 0.2 0"/>
<feBlend mode="normal" in2="BackgroundImageFix" result="effect1_dropShadow_464_3919"/>
<feBlend mode="normal" in="SourceGraphic" in2="effect1_dropShadow_464_3919" result="shape"/>
</filter>
<filter id="filter2_d_464_3919" x="82" y="142" width="127" height="128" filterUnits="userSpaceOnUse" color-interpolation-filters="sRGB">
<feFlood flood-opacity="0" result="BackgroundImageFix"/>
<feColorMatrix in="SourceAlpha" type="matrix" values="0 0 0 0 0 0 0 0 0 0 0 0 0 0 0 0 0 0 127 0" result="hardAlpha"/>
<feOffset dy="31"/>
<feGaussianBlur stdDeviation="15"/>
<feComposite in2="hardAlpha" operator="out"/>
<feColorMatrix type="matrix" values="0 0 0 0 0 0 0 0 0 0 0 0 0 0 0 0 0 0 0.2 0"/>
<feBlend mode="normal" in2="BackgroundImageFix" result="effect1_dropShadow_464_3919"/>
<feBlend mode="normal" in="SourceGraphic" in2="effect1_dropShadow_464_3919" result="shape"/>
</filter>
<filter id="filter3_d_464_3919" x="151" y="589" width="85.5586" height="85.6105" filterUnits="userSpaceOnUse" color-interpolation-filters="sRGB">
<feFlood flood-opacity="0" result="BackgroundImageFix"/>
<feColorMatrix in="SourceAlpha" type="matrix" values="0 0 0 0 0 0 0 0 0 0 0 0 0 0 0 0 0 0 127 0" result="hardAlpha"/>
<feOffset dy="14"/>
<feGaussianBlur stdDeviation="11"/>
<feComposite in2="hardAlpha" operator="out"/>
<feColorMatrix type="matrix" values="0 0 0 0 0 0 0 0 0 0 0 0 0 0 0 0 0 0 0.2 0"/>
<feBlend mode="normal" in2="BackgroundImageFix" result="effect1_dropShadow_464_3919"/>
<feBlend mode="normal" in="SourceGraphic" in2="effect1_dropShadow_464_3919" result="shape"/>
</filter>
<filter id="filter4_d_464_3919" x="809" y="261" width="86" height="86" filterUnits="userSpaceOnUse" color-interpolation-filters="sRGB">
<feFlood flood-opacity="0" result="BackgroundImageFix"/>
<feColorMatrix in="SourceAlpha" type="matrix" values="0 0 0 0 0 0 0 0 0 0 0 0 0 0 0 0 0 0 127 0" result="hardAlpha"/>
<feOffset dy="14"/>
<feGaussianBlur stdDeviation="11"/>
<feComposite in2="hardAlpha" operator="out"/>
<feColorMatrix type="matrix" values="0 0 0 0 0 0 0 0 0 0 0 0 0 0 0 0 0 0 0.2 0"/>
<feBlend mode="normal" in2="BackgroundImageFix" result="effect1_dropShadow_464_3919"/>
<feBlend mode="normal" in="SourceGraphic" in2="effect1_dropShadow_464_3919" result="shape"/>
</filter>
<linearGradient id="paint0_linear_464_3919" x1="111.5" y1="507" x2="111.5" y2="584.096" gradientUnits="userSpaceOnUse">
<stop stop-color="white"/>
<stop offset="1" stop-color="white" stop-opacity="0"/>
</linearGradient>
<linearGradient id="paint1_linear_464_3919" x1="582.477" y1="199" x2="582.477" y2="280.055" gradientUnits="userSpaceOnUse">
<stop stop-color="white"/>
<stop offset="1" stop-color="white" stop-opacity="0"/>
</linearGradient>
<linearGradient id="paint2_linear_464_3919" x1="515" y1="748" x2="515" y2="802" gradientUnits="userSpaceOnUse">
<stop stop-color="white"/>
<stop offset="1" stop-color="white" stop-opacity="0"/>
</linearGradient>
<linearGradient id="paint3_linear_464_3919" x1="795.5" y1="658" x2="795.5" y2="717.074" gradientUnits="userSpaceOnUse">
<stop stop-color="white"/>
<stop offset="1" stop-color="white" stop-opacity="0"/>
</linearGradient>
<linearGradient id="paint4_linear_464_3919" x1="145.518" y1="142" x2="145.518" y2="209" gradientUnits="userSpaceOnUse">
<stop stop-color="white"/>
<stop offset="1" stop-color="white" stop-opacity="0"/>
</linearGradient>
<linearGradient id="paint5_linear_464_3919" x1="201.5" y1="591.5" x2="186.5" y2="639" gradientUnits="userSpaceOnUse">
<stop stop-color="#00FFA3"/>
<stop offset="1" stop-color="#DC1FFF"/>
</linearGradient>
<linearGradient id="paint6_linear_464_3919" x1="193.779" y1="597" x2="193.779" y2="638.611" gradientUnits="userSpaceOnUse">
<stop stop-color="white"/>
<stop offset="1" stop-color="white" stop-opacity="0"/>
</linearGradient>
<linearGradient id="paint7_linear_464_3919" x1="718.779" y1="0" x2="718.779" y2="41.6105" gradientUnits="userSpaceOnUse">
<stop stop-color="white"/>
<stop offset="1" stop-color="white" stop-opacity="0"/>
</linearGradient>
<linearGradient id="paint8_linear_464_3919" x1="851.779" y1="269" x2="851.779" y2="310.611" gradientUnits="userSpaceOnUse">
<stop stop-color="white"/>
<stop offset="1" stop-color="white" stop-opacity="0"/>
</linearGradient>
<linearGradient id="paint9_linear_464_3919" x1="623.279" y1="460" x2="623.279" y2="506.617" gradientUnits="userSpaceOnUse">
<stop stop-color="white"/>
<stop offset="1" stop-color="white" stop-opacity="0"/>
</linearGradient>
<linearGradient id="paint10_linear_464_3919" x1="20.7793" y1="85" x2="20.7793" y2="126.611" gradientUnits="userSpaceOnUse">
<stop stop-color="white"/>
<stop offset="1" stop-color="white" stop-opacity="0"/>
</linearGradient>
</defs>
</svg>
