<svg width="17" height="20" viewBox="0 0 17 20" fill="none" xmlns="http://www.w3.org/2000/svg">
<path d="M5 0C2.79086 0 1 1.79086 1 4V5C1 5.55228 1.44772 6 2 6C2.55228 6 3 5.55228 3 5V4C3 2.89543 3.89543 2 5 2H13C14.1046 2 15 2.89543 15 4V16C15 17.1046 14.1046 18 13 18H5C3.89543 18 3 17.1046 3 16V15C3 14.4477 2.55228 14 2 14C1.44772 14 1 14.4477 1 15V16C1 18.2091 2.79086 20 5 20H13C15.2091 20 17 18.2091 17 16V4C17 1.79086 15.2091 0 13 0L5 0Z" fill="#226DFF"/>
<path d="M11.7136 10.7005C11.8063 10.6062 11.8764 10.498 11.9241 10.3828C11.9727 10.2657 11.9996 10.1375 12 10.003L12 10L12 9.997C11.9992 9.74208 11.9016 9.48739 11.7071 9.29289L8.70711 6.29289C8.31658 5.90237 7.68342 5.90237 7.29289 6.29289C6.90237 6.68342 6.90237 7.31658 7.29289 7.70711L8.58579 9H1C0.447715 9 0 9.44771 0 10C0 10.5523 0.447715 11 1 11H8.58579L7.29289 12.2929C6.90237 12.6834 6.90237 13.3166 7.29289 13.7071C7.68342 14.0976 8.31658 14.0976 8.70711 13.7071L11.7064 10.7078L11.7136 10.7005Z" fill="#226DFF"/>
</svg>
