<svg width="18" height="20" viewBox="0 0 18 20" fill="none" xmlns="http://www.w3.org/2000/svg">
<path d="M5.5 0C3.29086 0 1.5 1.79086 1.5 4V5C1.5 5.55228 1.94772 6 2.5 6C3.05228 6 3.5 5.55228 3.5 5V4C3.5 2.89543 4.39543 2 5.5 2H13.5C14.6046 2 15.5 2.89543 15.5 4V16C15.5 17.1046 14.6046 18 13.5 18H5.5C4.39543 18 3.5 17.1046 3.5 16V15C3.5 14.4477 3.05228 14 2.5 14C1.94772 14 1.5 14.4477 1.5 15V16C1.5 18.2091 3.29086 20 5.5 20H13.5C15.7091 20 17.5 18.2091 17.5 16V4C17.5 1.79086 15.7091 0 13.5 0H5.5Z" fill="white"/>
<path d="M12.2136 10.7005C12.3063 10.6062 12.3764 10.498 12.4241 10.3828C12.4727 10.2657 12.4996 10.1375 12.5 10.003L12.5 10L12.5 9.997C12.4992 9.74208 12.4016 9.48739 12.2071 9.29289L9.20711 6.29289C8.81658 5.90237 8.18342 5.90237 7.79289 6.29289C7.40237 6.68342 7.40237 7.31658 7.79289 7.70711L9.08579 9H1.5C0.947715 9 0.5 9.44771 0.5 10C0.5 10.5523 0.947715 11 1.5 11H9.08579L7.79289 12.2929C7.40237 12.6834 7.40237 13.3166 7.79289 13.7071C8.18342 14.0976 8.81658 14.0976 9.20711 13.7071L12.2064 10.7078L12.2136 10.7005Z" fill="white"/>
</svg>
