<svg xmlns="http://www.w3.org/2000/svg" width="221" height="80" viewBox="0 0 221 80" fill="none" style="background: rgba(255,255,255,0.00);"><style>
@keyframes ru9xmp2qqktjycx5tdpmqj5w_o { 0% { opacity: .2; animation-timing-function: cubic-bezier(.4,0,.6,1); } 33.333% { opacity: 1; } 100% { opacity: .2; } }
@keyframes xn5023x6z2ik80bv57t62jba_o { 0% { opacity: .6; animation-timing-function: cubic-bezier(.3,.5,.6,1); } 16.667% { opacity: 1; } 83.333% { opacity: .2; animation-timing-function: cubic-bezier(.4,0,.7,.5); } 100% { opacity: .6; } }
@keyframes ig9ptif0a85me9jsd911w5t4_o { 0% { opacity: 1; } 66.667% { opacity: .2; animation-timing-function: cubic-bezier(.4,0,.6,1); } 100% { opacity: 1; } }
</style><path d="M199.4 11.1c4.3-4.8 9.8-4.6 16.7-4.3c1.7 0 3.4 .1 5.2 .1l-52 61.7c-4.4 4.9-10.1 4.7-17.2 4.5c-1.5 0-3-0.1-4.7-0.1Zm-44.8 11c0-8.4 6.8-15.2 15.2-15.2h19.1c0 8.4-6.8 15.2-15.2 15.2Zm24.7 50.7c0-8.4 6.8-15.2 15.2-15.2h19c0 8.4-6.7 15.2-15.1 15.2Z" fill="#fff" fill-rule="evenodd" opacity=".2" style="animation: 1.2s linear infinite both ru9xmp2qqktjycx5tdpmqj5w_o;"/><path d="M99.1 6.9c-8.4 0-15.2 6.8-15.2 15.2h48c8.3 0 15.1-6.8 15.1-15.2Zm11.9 55.2c-2.2 8.1-10.5 12.9-18.6 10.7l7.8-29.3c2.2-8.1 10.5-12.9 18.6-10.7Z" fill="#fff" fill-rule="evenodd" opacity=".6" style="animation: 1.2s linear infinite both xn5023x6z2ik80bv57t62jba_o;"/><path d="M39.1 6.9c-8.4 0-15.1 6.8-15.1 15.2h37c8.3 0 15.1-6.8 15.1-15.2Zm-37.4 40.6c0-8.5 6.7-15.3 15.1-15.3h38.1c0 8.4-6.8 15.3-15.2 15.3Zm8.9 25.3c0-8.4 6.7-15.2 15.1-15.2h37.4c0 8.4-6.8 15.2-15.1 15.2Z" fill="#fff" fill-rule="evenodd" style="animation: 1.2s linear infinite both ig9ptif0a85me9jsd911w5t4_o;"/></svg>