<svg width="20" height="20" viewBox="0 0 20 20" fill="none" xmlns="http://www.w3.org/2000/svg">
<path d="M1.05719 1.05727C1.57789 0.536573 2.42211 0.536573 2.94281 1.05727L10 8.11446L17.0572 1.05727C17.5779 0.536573 18.4221 0.536573 18.9428 1.05727C19.4635 1.57797 19.4635 2.42219 18.9428 2.94289L11.8856 10.0001L18.9428 17.0573C19.4635 17.578 19.4635 18.4222 18.9428 18.9429C18.4221 19.4636 17.5779 19.4636 17.0572 18.9429L10 11.8857L2.94281 18.9429C2.42211 19.4636 1.57789 19.4636 1.05719 18.9429C0.536489 18.4222 0.536489 17.578 1.05719 17.0573L8.11438 10.0001L1.05719 2.94289C0.536489 2.42219 0.536489 1.57797 1.05719 1.05727Z" fill="#011235" fill-opacity="0.5"/>
</svg>
