<svg width="28" height="27" viewBox="0 0 28 27" fill="none" xmlns="http://www.w3.org/2000/svg">
<path fill-rule="evenodd" clip-rule="evenodd" d="M1.16711 5.55975C1.55403 3.31349 3.33947 1.66229 5.59287 1.31943C7.75198 0.990903 10.714 0.666992 13.9998 0.666992C17.2857 0.666992 20.2477 0.990903 22.4068 1.31943C24.6602 1.66229 26.4456 3.31349 26.8326 5.55975C27.1022 7.12528 27.3332 9.11399 27.3332 11.3337C27.3332 13.5533 27.1022 15.542 26.8326 17.1076C26.4456 19.3538 24.6602 21.005 22.4068 21.3479C20.4316 21.6484 17.7844 21.9451 14.8319 21.9935L6.67814 26.8116C5.78932 27.3368 4.6665 26.6961 4.6665 25.6637V21.1256C2.86192 20.5255 1.49925 19.0358 1.16711 17.1076C0.897453 15.542 0.666504 13.5533 0.666504 11.3337C0.666504 9.114 0.897453 7.12528 1.16711 5.55975ZM5.99984 8.66699C5.99984 7.93061 6.59679 7.33366 7.33317 7.33366H20.6665C21.4029 7.33366 21.9998 7.93061 21.9998 8.66699C21.9998 9.40337 21.4029 10.0003 20.6665 10.0003H7.33317C6.59679 10.0003 5.99984 9.40337 5.99984 8.66699ZM5.99984 14.0003C5.99984 13.2639 6.59679 12.667 7.33317 12.667H12.6665C13.4029 12.667 13.9998 13.2639 13.9998 14.0003C13.9998 14.7367 13.4029 15.3337 12.6665 15.3337H7.33317C6.59679 15.3337 5.99984 14.7367 5.99984 14.0003Z" fill="#226DFF"/>
</svg>
