<svg width="24" height="30" viewBox="0 0 24 30" fill="none" xmlns="http://www.w3.org/2000/svg">
<path d="M7.8592 26.2626C8.18852 25.604 7.92156 24.8031 7.26292 24.4737C6.60428 24.1444 5.80338 24.4114 5.47406 25.07L4.14073 27.7367C3.81141 28.3953 4.07838 29.1962 4.73702 29.5255C5.39565 29.8549 6.19655 29.5879 6.52587 28.9293L7.8592 26.2626Z" fill="#226DFF"/>
<path d="M16.1408 26.2626C15.8115 25.604 16.0784 24.8031 16.7371 24.4737C17.3957 24.1444 18.1966 24.4114 18.5259 25.07L19.8593 27.7367C20.1886 28.3953 19.9216 29.1962 19.263 29.5255C18.6043 29.8549 17.8034 29.5879 17.4741 28.9293L16.1408 26.2626Z" fill="#226DFF"/>
<path fill-rule="evenodd" clip-rule="evenodd" d="M10.6667 1.66634C10.6667 0.929962 11.2636 0.333008 12 0.333008C12.7364 0.333008 13.3333 0.929962 13.3333 1.66634V2.99967H20C22.2091 2.99967 24 4.79054 24 6.99967V17.6663C24 19.8755 22.2091 21.6663 20 21.6663H4C1.79086 21.6663 0 19.8755 0 17.6663V6.99967C0 4.79054 1.79086 2.99967 4 2.99967H10.6667V1.66634ZM19.7078 9.16598C20.1678 8.59097 20.0746 7.75191 19.4996 7.2919C18.9246 6.83189 18.0855 6.92511 17.6255 7.50013L13.0558 13.2122L10.0729 11.2237C9.5441 10.8711 8.83994 10.9408 8.39052 11.3902L4.39052 15.3902C3.86983 15.9109 3.86983 16.7552 4.39052 17.2759C4.91122 17.7966 5.75544 17.7966 6.27614 17.2759L9.50323 14.0488L12.5937 16.1091C13.1692 16.4928 13.9424 16.3727 14.3745 15.8326L19.7078 9.16598Z" fill="#226DFF"/>
</svg>
