<svg width="110" height="30" viewBox="0 0 110 30" fill="none" xmlns="http://www.w3.org/2000/svg">
<path d="M4.51782 29.4578C4.51782 25.7261 7.89878 22.701 12.0694 22.701H30.7276C30.7276 26.4327 27.3467 29.4578 23.176 29.4578H4.51782Z" fill="#011235" fill-opacity="0.5"/>
<path d="M0.0750122 18.1965C0.0750122 14.4648 3.45599 11.4397 7.62663 11.4397H26.6204C26.6204 15.1714 23.2394 18.1965 19.0688 18.1965H0.0750122Z" fill="#011235" fill-opacity="0.5"/>
<path d="M45.3478 29.4577C49.3763 30.4235 53.5171 28.2845 54.5966 24.68L58.4897 11.6801C54.4611 10.7143 50.3203 12.8534 49.2408 16.4579L45.3478 29.4577Z" fill="#011235" fill-opacity="0.5"/>
<path d="M11.1969 6.93526C11.1969 3.20361 14.5778 0.178505 18.7485 0.178505H37.2168C37.2168 3.91016 33.8358 6.93526 29.6651 6.93526H11.1969Z" fill="#011235" fill-opacity="0.5"/>
<path d="M41.1064 6.93526C41.1064 3.20361 44.4874 0.178505 48.658 0.178505H72.5715C72.5715 3.91016 69.1905 6.93526 65.0199 6.93526H41.1064Z" fill="#011235" fill-opacity="0.5"/>
<path d="M76.3766 6.93527C76.3766 3.20362 79.7575 0.178514 83.9282 0.178514H93.4484C93.4484 3.91017 90.0674 6.93527 85.8968 6.93527H76.3766Z" fill="#011235" fill-opacity="0.5"/>
<path d="M88.6848 29.4578C88.6848 25.7261 92.0658 22.701 96.2364 22.701H105.757C105.757 26.4327 102.376 29.4578 98.205 29.4578H88.6848Z" fill="#011235" fill-opacity="0.5"/>
<path d="M107.051 0.133002C103.61 0.0206165 100.842 -0.0698156 98.6844 2.06461L90.904 10.1989L90.8987 10.1937L90.4402 10.6838L89.6725 11.4865L89.6812 11.4952L72.7827 29.5598C73.5884 29.5598 74.3627 29.5791 75.106 29.5976C78.6652 29.6864 81.5124 29.7575 83.6874 27.6053L94.5171 16.2801L94.5214 16.2844L94.9275 15.8509L95.7822 14.9572L95.7731 14.9484L109.603 0.187284C108.714 0.187329 107.864 0.159553 107.051 0.133002Z" fill="#011235" fill-opacity="0.5"/>
</svg>
