<svg width="106" height="32" viewBox="0 0 106 32" fill="none" xmlns="http://www.w3.org/2000/svg">
<path d="M5.01695 31.5854C5.01695 27.5938 8.23691 24.3579 12.209 24.3579H29.9787C29.9787 28.3496 26.7587 31.5854 22.7867 31.5854H5.01695Z" fill="white"/>
<path d="M0.785706 19.5395C0.785706 15.5479 4.00568 12.312 7.97772 12.312H26.067C26.067 16.3037 22.847 19.5395 18.875 19.5395H0.785706Z" fill="white"/>
<path d="M43.9026 31.5854C47.7393 32.6185 51.683 30.3304 52.711 26.4747L56.4187 12.5692C52.582 11.5361 48.6383 13.8242 47.6103 17.6798L43.9026 31.5854Z" fill="white"/>
<path d="M11.378 7.49378C11.378 3.50215 14.5979 0.266287 18.57 0.266287L36.1588 0.266287C36.1588 4.25792 32.9388 7.49378 28.9668 7.49378H11.378Z" fill="white"/>
<path d="M39.8632 7.49378C39.8632 3.50215 43.0832 0.266287 47.0552 0.266287L69.83 0.266287C69.83 4.25792 66.61 7.49378 62.638 7.49378H39.8632Z" fill="white"/>
<path d="M73.4538 7.49379C73.4538 3.50216 76.6738 0.266297 80.6459 0.266297L89.7128 0.266297C89.7128 4.25793 86.4928 7.49379 82.5207 7.49379H73.4538Z" fill="white"/>
<path d="M85.176 31.5854C85.176 27.5938 88.396 24.3579 92.368 24.3579H101.435C101.435 28.3496 98.2149 31.5854 94.2429 31.5854H85.176Z" fill="white"/>
<path d="M102.668 0.217614C99.3906 0.0973985 96.7538 0.000666037 94.6994 2.28379L87.2895 10.9848L87.2845 10.9793L86.8478 11.5035L86.1166 12.3621L86.125 12.3714L70.0312 31.6945C70.7985 31.6945 71.5359 31.7152 72.2438 31.735C75.6335 31.83 78.3451 31.906 80.4166 29.6039L90.7306 17.4897L90.7347 17.4942L91.1215 17.0306L91.9354 16.0746L91.9268 16.0652L105.098 0.275677C104.252 0.275726 103.442 0.246015 102.668 0.217614Z" fill="white"/>
</svg>
