<svg width="106" height="32" viewBox="0 0 106 32" fill="none" xmlns="http://www.w3.org/2000/svg">
<path d="M5.01701 31.5854C5.01701 27.5938 8.23697 24.3579 12.209 24.3579H29.9787C29.9787 28.3496 26.7588 31.5854 22.7867 31.5854H5.01701Z" fill="url(#paint0_linear_487_191)"/>
<path d="M0.785767 19.5395C0.785767 15.5479 4.00574 12.312 7.97778 12.312H26.0671C26.0671 16.3037 22.8471 19.5395 18.8751 19.5395H0.785767Z" fill="url(#paint1_linear_487_191)"/>
<path d="M43.9027 31.5854C47.7394 32.6185 51.683 30.3304 52.7111 26.4747L56.4188 12.5692C52.5821 11.5361 48.6384 13.8242 47.6103 17.6798L43.9027 31.5854Z" fill="url(#paint2_linear_487_191)"/>
<path d="M11.378 7.49378C11.378 3.50215 14.598 0.266287 18.57 0.266287L36.1589 0.266287C36.1589 4.25792 32.9389 7.49378 28.9669 7.49378H11.378Z" fill="url(#paint3_linear_487_191)"/>
<path d="M39.8633 7.49378C39.8633 3.50215 43.0833 0.266287 47.0553 0.266287L69.83 0.266287C69.83 4.25792 66.6101 7.49378 62.6381 7.49378H39.8633Z" fill="url(#paint4_linear_487_191)"/>
<path d="M73.4539 7.49379C73.4539 3.50216 76.6739 0.266297 80.6459 0.266297L89.7128 0.266297C89.7128 4.25793 86.4928 7.49379 82.5208 7.49379H73.4539Z" fill="url(#paint5_linear_487_191)"/>
<path d="M85.1761 31.5854C85.1761 27.5938 88.396 24.3579 92.3681 24.3579H101.435C101.435 28.3496 98.215 31.5854 94.243 31.5854H85.1761Z" fill="url(#paint6_linear_487_191)"/>
<path d="M102.668 0.217614C99.3907 0.0973985 96.7539 0.000666037 94.6995 2.28379L87.2896 10.9848L87.2845 10.9793L86.8479 11.5035L86.1167 12.3621L86.125 12.3714L70.0312 31.6945C70.7986 31.6945 71.536 31.7152 72.2438 31.735C75.6335 31.83 78.3452 31.906 80.4166 29.6039L90.7306 17.4897L90.7347 17.4942L91.1215 17.0306L91.9354 16.0746L91.9269 16.0652L105.098 0.275677C104.252 0.275726 103.442 0.246015 102.668 0.217614Z" fill="url(#paint7_linear_487_191)"/>
<defs>
<linearGradient id="paint0_linear_487_191" x1="0.785767" y1="0.166748" x2="105.203" y2="31.4848" gradientUnits="userSpaceOnUse">
<stop stop-color="#226DFF"/>
<stop offset="1" stop-color="#2891FF"/>
</linearGradient>
<linearGradient id="paint1_linear_487_191" x1="0.785767" y1="0.166748" x2="105.203" y2="31.4848" gradientUnits="userSpaceOnUse">
<stop stop-color="#226DFF"/>
<stop offset="1" stop-color="#2891FF"/>
</linearGradient>
<linearGradient id="paint2_linear_487_191" x1="0.785767" y1="0.166748" x2="105.203" y2="31.4848" gradientUnits="userSpaceOnUse">
<stop stop-color="#226DFF"/>
<stop offset="1" stop-color="#2891FF"/>
</linearGradient>
<linearGradient id="paint3_linear_487_191" x1="0.785767" y1="0.166748" x2="105.203" y2="31.4848" gradientUnits="userSpaceOnUse">
<stop stop-color="#226DFF"/>
<stop offset="1" stop-color="#2891FF"/>
</linearGradient>
<linearGradient id="paint4_linear_487_191" x1="0.785767" y1="0.166748" x2="105.203" y2="31.4848" gradientUnits="userSpaceOnUse">
<stop stop-color="#226DFF"/>
<stop offset="1" stop-color="#2891FF"/>
</linearGradient>
<linearGradient id="paint5_linear_487_191" x1="0.785767" y1="0.166748" x2="105.203" y2="31.4848" gradientUnits="userSpaceOnUse">
<stop stop-color="#226DFF"/>
<stop offset="1" stop-color="#2891FF"/>
</linearGradient>
<linearGradient id="paint6_linear_487_191" x1="0.785767" y1="0.166748" x2="105.203" y2="31.4848" gradientUnits="userSpaceOnUse">
<stop stop-color="#226DFF"/>
<stop offset="1" stop-color="#2891FF"/>
</linearGradient>
<linearGradient id="paint7_linear_487_191" x1="0.785767" y1="0.166748" x2="105.203" y2="31.4848" gradientUnits="userSpaceOnUse">
<stop stop-color="#226DFF"/>
<stop offset="1" stop-color="#2891FF"/>
</linearGradient>
</defs>
</svg>
