<svg width="1746" height="780" viewBox="0 0 1746 780" fill="none" xmlns="http://www.w3.org/2000/svg">
<path d="M1571.95 346.537H1658.51C1706.32 346.537 1745.08 307.779 1745.08 259.969H1658.51C1610.7 259.969 1571.95 298.727 1571.95 346.537Z" fill="#ACBAFF" fill-opacity="0.1"/>
<path d="M879.395 346.537H965.963C1013.77 346.537 1052.53 307.779 1052.53 259.969H965.963C918.153 259.969 879.395 298.727 879.395 346.537Z" fill="#2AA0FF" fill-opacity="0.07"/>
<path d="M1225.67 692.813H1312.24C1360.05 692.813 1398.81 654.055 1398.81 606.244H1312.24C1264.43 606.244 1225.67 645.002 1225.67 692.813Z" fill="#2AA0FF" fill-opacity="0.07"/>
<path d="M1225.67 173.399H1312.24C1360.05 173.399 1398.81 134.641 1398.81 86.8305H1312.24C1264.43 86.8305 1225.67 125.589 1225.67 173.399Z" fill="#2AA0FF" fill-opacity="0.07"/>
<path d="M1571.95 692.813H1658.51C1706.32 692.813 1745.08 654.055 1745.08 606.244H1658.51C1610.7 606.244 1571.95 645.002 1571.95 692.813Z" fill="#ACBAFF" fill-opacity="0.1"/>
<path d="M879.395 692.813H965.963C1013.77 692.813 1052.53 654.055 1052.53 606.244H965.963C918.153 606.244 879.395 645.002 879.395 692.813Z" fill="#2AA0FF" fill-opacity="0.07"/>
<path d="M1571.95 173.399H1658.51C1706.32 173.399 1745.08 134.641 1745.08 86.8305H1658.51C1610.7 86.8305 1571.95 125.589 1571.95 173.399Z" fill="#ACBAFF" fill-opacity="0.1"/>
<path d="M1052.13 519.675H1138.7C1186.51 519.675 1225.27 480.917 1225.27 433.106H1138.7C1090.89 433.106 1052.13 471.864 1052.13 519.675Z" fill="#2AA0FF" fill-opacity="0.07"/>
<path d="M1398.81 346.537H1312.24C1264.43 346.537 1225.67 307.779 1225.67 259.969H1312.24C1360.05 259.969 1398.81 298.727 1398.81 346.537Z" fill="#ACBAFF" fill-opacity="0.1"/>
<path d="M1052.53 259.969H965.964C918.154 259.969 879.395 221.21 879.395 173.4H965.964C1013.77 173.4 1052.53 212.158 1052.53 259.969Z" fill="#2AA0FF" fill-opacity="0.07"/>
<path d="M1398.81 606.244H1312.24C1264.43 606.244 1225.67 567.486 1225.67 519.675H1312.24C1360.05 519.675 1398.81 558.433 1398.81 606.244Z" fill="#2AA0FF" fill-opacity="0.07"/>
<path d="M1745.08 606.244H1658.52C1610.7 606.244 1571.95 567.486 1571.95 519.675H1658.52C1706.33 519.675 1745.08 558.433 1745.08 606.244Z" fill="#ACBAFF" fill-opacity="0.1"/>
<path d="M879.395 606.244H965.963C1013.77 606.244 1052.53 567.486 1052.53 519.675H965.963C918.153 519.675 879.395 558.433 879.395 606.244Z" fill="#ACBAFF" fill-opacity="0.1"/>
<path d="M1398.81 346.537H1312.24C1264.43 346.537 1225.67 385.296 1225.67 433.106H1312.24C1360.05 433.106 1398.81 394.348 1398.81 346.537Z" fill="#2AA0FF" fill-opacity="0.07"/>
<path d="M1745.08 433.106H1658.52C1610.7 433.106 1571.95 394.348 1571.95 346.537H1658.52C1706.33 346.537 1745.08 385.296 1745.08 433.106Z" fill="#2AA0FF" fill-opacity="0.07"/>
<path d="M1052.53 433.106H965.964C918.154 433.106 879.395 394.348 879.395 346.537H965.964C1013.77 346.537 1052.53 385.296 1052.53 433.106Z" fill="#ACBAFF" fill-opacity="0.1"/>
<path d="M1398.81 779.382H1312.24C1264.43 779.382 1225.67 740.624 1225.67 692.813H1312.24C1360.05 692.813 1398.81 731.571 1398.81 779.382Z" fill="#ACBAFF" fill-opacity="0.1"/>
<path d="M1398.81 86.8306H1312.24C1264.43 86.8306 1225.67 48.0724 1225.67 0.261719H1312.24C1360.05 0.261719 1398.81 39.0199 1398.81 86.8306Z" fill="#ACBAFF" fill-opacity="0.1"/>
<path d="M1745.08 779.382H1658.52C1610.7 779.382 1571.95 740.624 1571.95 692.813H1658.52C1706.33 692.813 1745.08 731.571 1745.08 779.382Z" fill="#ACBAFF" fill-opacity="0.1"/>
<path d="M1052.53 779.382H965.964C918.154 779.382 879.395 740.624 879.395 692.813H965.964C1013.77 692.813 1052.53 731.571 1052.53 779.382Z" fill="#ACBAFF" fill-opacity="0.1"/>
<path d="M1398.81 346.537H1485.38C1533.19 346.537 1571.95 307.779 1571.95 259.969H1485.38C1437.57 259.969 1398.81 298.727 1398.81 346.537Z" fill="#2AA0FF" fill-opacity="0.07"/>
<path d="M1225.67 692.813H1139.1C1091.29 692.813 1052.53 654.055 1052.53 606.244H1139.1C1186.91 606.244 1225.67 645.002 1225.67 692.813Z" fill="#2AA0FF" fill-opacity="0.07"/>
<path d="M1225.67 173.399H1139.1C1091.29 173.399 1052.53 134.641 1052.53 86.8305H1139.1C1186.91 86.8305 1225.67 125.589 1225.67 173.399Z" fill="#ACBAFF" fill-opacity="0.1"/>
<path d="M1571.95 692.813H1485.38C1437.57 692.813 1398.81 654.055 1398.81 606.244H1485.38C1533.19 606.244 1571.95 645.002 1571.95 692.813Z" fill="#2AA0FF" fill-opacity="0.07"/>
<path d="M1398.81 259.969H1485.38C1533.19 259.969 1571.95 221.21 1571.95 173.4H1485.38C1437.57 173.4 1398.81 212.158 1398.81 259.969Z" fill="#ACBAFF" fill-opacity="0.1"/>
<path d="M879.395 86.8306H792.826C745.015 86.8306 706.257 48.0724 706.257 0.261719H792.826C840.636 0.261719 879.395 39.0199 879.395 86.8306Z" fill="#ACBAFF" fill-opacity="0.1"/>
<path d="M1398.81 86.8306H1485.38C1533.19 86.8306 1571.95 48.0724 1571.95 0.261719H1485.38C1437.57 0.261719 1398.81 39.0199 1398.81 86.8306Z" fill="#ACBAFF" fill-opacity="0.1"/>
<path d="M1052.53 606.244H1139.1C1186.91 606.244 1225.67 567.486 1225.67 519.675H1139.1C1091.29 519.675 1052.53 558.433 1052.53 606.244Z" fill="#ACBAFF" fill-opacity="0.1"/>
<path d="M1398.81 606.244H1485.38C1533.19 606.244 1571.95 567.486 1571.95 519.675H1485.38C1437.57 519.675 1398.81 558.433 1398.81 606.244Z" fill="#ACBAFF" fill-opacity="0.1"/>
<path d="M879.394 606.244H792.825C745.014 606.244 706.256 567.486 706.256 519.675H792.825C840.635 519.675 879.394 558.433 879.394 606.244Z" fill="#ACBAFF" fill-opacity="0.1"/>
<path d="M1571.95 173.399H1485.38C1437.57 173.399 1398.81 134.641 1398.81 86.8305H1485.38C1533.19 86.8305 1571.95 125.589 1571.95 173.399Z" fill="#2AA0FF" fill-opacity="0.07"/>
<path d="M1571.95 519.675H1485.38C1437.57 519.675 1398.81 480.917 1398.81 433.106H1485.38C1533.19 433.106 1571.95 471.864 1571.95 519.675Z" fill="#2AA0FF" fill-opacity="0.07"/>
<path d="M1225.67 346.537H1139.1C1091.29 346.537 1052.53 307.779 1052.53 259.969H1139.1C1186.91 259.969 1225.67 298.727 1225.67 346.537Z" fill="#ACBAFF" fill-opacity="0.1"/>
<path d="M1398.81 346.537H1485.38C1533.19 346.537 1571.95 385.296 1571.95 433.106H1485.38C1437.57 433.106 1398.81 394.348 1398.81 346.537Z" fill="#ACBAFF" fill-opacity="0.1"/>
<path d="M1052.53 779.382H1139.1C1186.91 779.382 1225.67 740.624 1225.67 692.813H1139.1C1091.29 692.813 1052.53 731.571 1052.53 779.382Z" fill="#ACBAFF" fill-opacity="0.1"/>
<path d="M1052.53 259.969H1139.1C1186.91 259.969 1225.67 221.21 1225.67 173.4H1139.1C1091.29 173.4 1052.53 212.158 1052.53 259.969Z" fill="#ACBAFF" fill-opacity="0.1"/>
<path d="M1398.81 779.382H1485.38C1533.19 779.382 1571.95 740.624 1571.95 692.813H1485.38C1437.57 692.813 1398.81 731.571 1398.81 779.382Z" fill="#ACBAFF" fill-opacity="0.1"/>
<path d="M706.257 259.969H792.826C840.636 259.969 879.395 221.21 879.395 173.4H792.826C745.015 173.4 706.257 212.158 706.257 259.969Z" fill="#ACBAFF" fill-opacity="0.1"/>
<path d="M173.138 472.717H86.5688C38.7582 472.717 -4.57764e-05 433.959 -4.57764e-05 386.149H86.5688C134.379 386.149 173.138 424.907 173.138 472.717Z" fill="#ACBAFF" fill-opacity="0.1"/>
<path d="M879.395 692.813H792.826C745.015 692.813 706.257 654.055 706.257 606.244H792.826C840.636 606.244 879.395 645.002 879.395 692.813Z" fill="#2AA0FF" fill-opacity="0.07"/>
<path d="M533.119 693.07H619.688C667.499 693.07 706.257 654.312 706.257 606.501H619.688C571.877 606.501 533.119 645.259 533.119 693.07Z" fill="#ACBAFF" fill-opacity="0.1"/>
<path d="M706.257 779.382H792.826C840.636 779.382 879.395 740.624 879.395 692.813H792.826C745.015 692.813 706.257 731.571 706.257 779.382Z" fill="#ACBAFF" fill-opacity="0.1"/>
</svg>
