<svg xmlns="http://www.w3.org/2000/svg" viewBox="0 0 1732 774" fill="none" style="background:0 0">
<style>
 @keyframes a0_o{0%{opacity:1;animation-timing-function:cubic-bezier(.4,0,.6,1)}50%{opacity:.2;animation-timing-function:cubic-bezier(.4,0,.6,1)}to{opacity:1}}
</style>
    <path d="M1427.8 343.6h85.9c47.4 0 85.9-38.5 85.9-85.9h-85.9c-47.4 0-85.9 38.5-85.9 85.9z" fill="#acbaff" fill-opacity=".1" transform="translate(132)" style="animation:2s linear .13s infinite both a0_o"/>
    <path d="M740.6 343.6h85.9c47.4 0 85.9-38.5 85.9-85.9h-85.9c-47.4 0-85.9 38.5-85.9 85.9z" fill="#0020e1" fill-opacity=".07" transform="translate(132)" style="animation:2s linear infinite both a0_o"/>
    <path d="M1084.2 687.2h85.9c47.4 0 85.9-38.5 85.9-85.9h-85.9c-47.4 0-85.9 38.5-85.9 85.9z" fill="#acbaff" fill-opacity=".1" transform="translate(132)" style="animation:2s linear 1.13s infinite both a0_o"/>
    <path d="M1084.2 171.8h85.9c47.4 0 85.9-38.5 85.9-85.9h-85.9c-47.4 0-85.9 38.5-85.9 85.9z" fill="#0020e1" fill-opacity=".07" transform="translate(132)" style="animation:2s linear 1.77s infinite both a0_o"/>
    <path d="M1427.8 687.2h85.9c47.4 0 85.9-38.5 85.9-85.9h-85.9c-47.4 0-85.9 38.5-85.9 85.9z" fill="#acbaff" fill-opacity=".1" transform="translate(132)" style="animation:2s linear 2.27s infinite both a0_o"/>
    <path d="M740.6 687.2h85.9c47.4 0 85.9-38.5 85.9-85.9h-85.9c-47.4 0-85.9 38.5-85.9 85.9z" fill="#0020e1" fill-opacity=".07" transform="translate(132)" style="animation:2s linear .57s infinite both a0_o"/>
    <path d="M1427.8 171.8h85.9c47.4 0 85.9-38.5 85.9-85.9h-85.9c-47.4 0-85.9 38.5-85.9 85.9z" fill="#acbaff" fill-opacity=".1" transform="translate(132)" style="animation:2s linear 1.17s infinite both a0_o"/>
    <path d="M912 515.4h85.9c47.4 0 85.9-38.5 85.9-85.9h-85.9c-47.4 0-85.9 38.5-85.9 85.9z" fill="#0020e1" fill-opacity=".07" transform="translate(132)" style="animation:2s linear 4.37s infinite both a0_o"/>
    <path d="M1256 343.6h-85.9c-47.4 0-85.9-38.5-85.9-85.9h85.9c47.4 0 85.9 38.5 85.9 85.9z" fill="#acbaff" fill-opacity=".1" transform="translate(132)" style="animation:2s linear 3.13s infinite both a0_o"/>
    <path d="M912.4 257.7h-85.9c-47.4 0-85.9-38.5-85.9-85.9h85.9c47.4 0 85.9 38.5 85.9 85.9z" fill="#0020e1" fill-opacity=".07" transform="translate(132)" style="animation:2s linear 3.57s infinite both a0_o"/>
    <path d="M1256 601.3h-85.9c-47.4 0-85.9-38.5-85.9-85.9h85.9c47.4 0 85.9 38.5 85.9 85.9z" fill="#0020e1" fill-opacity=".07" transform="translate(132)" style="animation:2s linear 2.77s infinite both a0_o"/>
    <path d="M1599.6 601.3h-85.9c-47.4 0-85.9-38.5-85.9-85.9h85.9c47.4 0 85.9 38.5 85.9 85.9z" fill="#acbaff" fill-opacity=".1" transform="translate(132)" style="animation:2s linear .33s infinite both a0_o"/>
    <path d="M740.6 601.3h85.9c47.4 0 85.9-38.5 85.9-85.9h-85.9c-47.4 0-85.9 38.5-85.9 85.9z" fill="#acbaff" fill-opacity=".1" transform="translate(132)" style="animation:2s linear 1.57s infinite both a0_o"/>
    <path d="M1256 343.6h-85.9c-47.4 0-85.9 38.5-85.9 85.9h85.9c47.4 0 85.9-38.5 85.9-85.9z" fill="#0020e1" fill-opacity=".07" transform="translate(132)" style="animation:2s linear .67s infinite both a0_o"/>
    <path d="M1599.6 429.5h-85.9c-47.4 0-85.9-38.5-85.9-85.9h85.9c47.4 0 85.9 38.5 85.9 85.9z" fill="#0020e1" fill-opacity=".07" transform="translate(132)" style="animation:2s linear 3.13s infinite both a0_o"/>
    <path d="M912.4 429.5h-85.9c-47.4 0-85.9-38.5-85.9-85.9h85.9c47.4 0 85.9 38.5 85.9 85.9z" fill="#acbaff" fill-opacity=".1" transform="translate(132)" style="animation:2s linear 1.63s infinite both a0_o"/>
    <path d="M1256 773.1h-85.9c-47.4 0-85.9-38.5-85.9-85.9h85.9c47.4 0 85.9 38.5 85.9 85.9z" fill="#acbaff" fill-opacity=".1" transform="translate(132)" style="animation:2s linear 2.47s infinite both a0_o"/>
    <path d="M1256 85.9h-85.9c-47.4 0-85.9-38.5-85.9-85.9h85.9c47.4 0 85.9 38.5 85.9 85.9z" fill="#acbaff" fill-opacity=".1" transform="translate(132)" style="animation:2s linear 4.8s infinite both a0_o"/>
    <path d="M1599.6 773.1h-85.9c-47.4 0-85.9-38.5-85.9-85.9h85.9c47.4 0 85.9 38.5 85.9 85.9z" fill="#0020e1" fill-opacity=".1" transform="translate(132)" style="animation:2s linear 3.63s infinite both a0_o"/>
    <path d="M912.4 773.1h-85.9c-47.4 0-85.9-38.5-85.9-85.9h85.9c47.4 0 85.9 38.5 85.9 85.9z" fill="#acbaff" fill-opacity=".1" transform="translate(132)" style="animation:2s linear 3.13s infinite both a0_o"/>
    <path d="M1256 343.6h85.9c47.4 0 85.9-38.5 85.9-85.9h-85.9c-47.4 0-85.9 38.5-85.9 85.9z" fill="#0020e1" fill-opacity=".07" transform="translate(132)" style="animation:2s linear 2.73s infinite both a0_o"/>
    <path d="M1084.2 687.2h-85.9c-47.4 0-85.9-38.5-85.9-85.9h85.9c47.4 0 85.9 38.5 85.9 85.9z" fill="#0020e1" fill-opacity=".07" transform="translate(132)" style="animation:2s linear .37s infinite both a0_o"/>
    <path d="M1084.2 171.8h-85.9c-47.4 0-85.9-38.5-85.9-85.9h85.9c47.4 0 85.9 38.5 85.9 85.9z" fill="#acbaff" fill-opacity=".1" transform="translate(132)" style="animation:2s linear .93s infinite both a0_o"/>
    <path d="M1427.8 687.2h-85.9c-47.4 0-85.9-38.5-85.9-85.9h85.9c47.4 0 85.9 38.5 85.9 85.9z" fill="#0020e1" fill-opacity=".07" transform="translate(132)" style="animation:2s linear 1.43s infinite both a0_o"/>
    <path d="M1256 257.7h85.9c47.4 0 85.9-38.5 85.9-85.9h-85.9c-47.4 0-85.9 38.5-85.9 85.9z" fill="#acbaff" fill-opacity=".1" transform="translate(132)" style="animation:2s linear 2.6s infinite both a0_o"/>
    <path d="M740.6 687.2h-85.9c-47.4 0-85.9-38.5-85.9-85.9h85.9c47.4 0 85.9 38.5 85.9 85.9z" fill="#0020e1" fill-opacity=".07" transform="translate(132)" style="animation:2s linear 3.53s infinite both a0_o"/>
    <path d="M39.8 599.9h-85.9c-47.4 0-85.9-38.5-85.9-85.9h85.9c47.4 0 85.9 38.5 85.9 85.9z" fill="#acbaff" fill-opacity=".1" transform="translate(132)" style="animation:2s linear 5.7s infinite both a0_o"/>
    <path d="M740.6 85.9h-85.9c-47.4 0-85.9-38.5-85.9-85.9h85.9c47.4 0 85.9 38.5 85.9 85.9z" fill="#acbaff" fill-opacity=".1" transform="translate(132)" style="animation:2s linear .67s infinite both a0_o"/>
    <path d="M1256 85.9h85.9c47.4 0 85.9-38.5 85.9-85.9h-85.9c-47.4 0-85.9 38.5-85.9 85.9z" fill="#acbaff" fill-opacity=".1" transform="translate(132)" style="animation:2s linear 2.47s infinite both a0_o"/>
    <path d="M568.8 257.7h85.9c47.4 0 85.9-38.5 85.9-85.9h-85.9c-47.4 0-85.9 38.5-85.9 85.9z" fill="#acbaff" fill-opacity=".1" transform="translate(132)" style="animation:2s linear 3.43s infinite both a0_o"/>
    <path d="M912.4 601.3h85.9c47.4 0 85.9-38.5 85.9-85.9h-85.9c-47.4 0-85.9 38.5-85.9 85.9z" fill="#acbaff" fill-opacity=".1" transform="translate(132)" style="animation:2s linear 1.17s infinite both a0_o"/>
    <path d="M1256 601.3h85.9c47.4 0 85.9-38.5 85.9-85.9h-85.9c-47.4 0-85.9 38.5-85.9 85.9z" fill="#acbaff" fill-opacity=".1" transform="translate(132)" style="animation:2s linear 1.63s infinite both a0_o"/>
    <path d="M740.6 601.3h-85.9c-47.4 0-85.9-38.5-85.9-85.9h85.9c47.4 0 85.9 38.5 85.9 85.9z" fill="#acbaff" fill-opacity=".1" transform="translate(132)" style="animation:2s linear 2.4s infinite both a0_o"/>
    <path d="M1427.8 171.8h-85.9c-47.4 0-85.9-38.5-85.9-85.9h85.9c47.4 0 85.9 38.5 85.9 85.9z" fill="#0020e1" fill-opacity=".07" transform="translate(132)" style="animation:2s linear .3s infinite both a0_o"/>
    <path d="M397 687.5h85.9c47.4 0 85.9-38.5 85.9-85.9h-85.9c-47.4 0-85.9 38.4-85.9 85.9z" fill="#acbaff" fill-opacity=".1" transform="translate(132)" style="animation:2s linear .87s infinite both a0_o"/>
    <path d="M1427.8 515.4h-85.9c-47.4 0-85.9-38.5-85.9-85.9h85.9c47.4 0 85.9 38.5 85.9 85.9z" fill="#0020e1" fill-opacity=".07" transform="translate(132)" style="animation:2s linear 3.33s infinite both a0_o"/>
    <path d="M1084.2 343.6h-85.9c-47.4 0-85.9-38.5-85.9-85.9h85.9c47.4 0 85.9 38.5 85.9 85.9z" fill="#acbaff" fill-opacity=".1" transform="translate(132)" style="animation:2s linear .07s infinite both a0_o"/>
    <path d="M1256 343.6h85.9c47.4 0 85.9 38.5 85.9 85.9h-85.9c-47.4 0-85.9-38.5-85.9-85.9z" fill="#acbaff" fill-opacity=".1" transform="translate(132)" style="animation:2s linear .47s infinite both a0_o"/>
    <path d="M912.4 773.1h85.9c47.4 0 85.9-38.5 85.9-85.9h-85.9c-47.4 0-85.9 38.5-85.9 85.9z" fill="#acbaff" fill-opacity=".1" transform="translate(132)" style="animation:2s linear 2.57s infinite both a0_o"/>
    <path d="M912.4 257.7h85.9c47.4 0 85.9-38.5 85.9-85.9h-85.9c-47.4 0-85.9 38.5-85.9 85.9z" fill="#acbaff" fill-opacity=".1" transform="translate(132)" style="animation:2s linear .67s infinite both a0_o"/>
    <path d="M1256 773.1h85.9c47.4 0 85.9-38.5 85.9-85.9h-85.9c-47.4 0-85.9 38.5-85.9 85.9z" fill="#acbaff" fill-opacity=".1" transform="translate(132)" style="animation:2s linear 2.37s infinite both a0_o"/>
    <path d="M568.8 773.1h85.9c47.4 0 85.9-38.5 85.9-85.9h-85.9c-47.4 0-85.9 38.5-85.9 85.9z" fill="#acbaff" fill-opacity=".1" transform="translate(132)" style="animation:2s linear .2s infinite both a0_o"/>
</svg>
