<svg xmlns="http://www.w3.org/2000/svg" viewBox="0 0 1732 774" fill="none" style="background: rgba(255,255,255,0.00);"><style>
@keyframes a0_o { 0% { opacity: 1; animation-timing-function: cubic-bezier(.4,0,.6,1); } 50% { opacity: .2; animation-timing-function: cubic-bezier(.4,0,.6,1); } 100% { opacity: 1; } }
@keyframes a1_o { 0% { opacity: 1; animation-timing-function: cubic-bezier(.4,0,.6,1); } 50% { opacity: .2; animation-timing-function: cubic-bezier(.4,0,.6,1); } 100% { opacity: 1; } }
@keyframes a2_o { 0% { opacity: 1; animation-timing-function: cubic-bezier(.4,0,.6,1); } 50% { opacity: .2; animation-timing-function: cubic-bezier(.4,0,.6,1); } 100% { opacity: 1; } }
@keyframes a3_o { 0% { opacity: 1; animation-timing-function: cubic-bezier(.4,0,.6,1); } 50% { opacity: .2; animation-timing-function: cubic-bezier(.4,0,.6,1); } 100% { opacity: 1; } }
@keyframes a4_o { 0% { opacity: 1; animation-timing-function: cubic-bezier(.4,0,.6,1); } 50% { opacity: .2; animation-timing-function: cubic-bezier(.4,0,.6,1); } 100% { opacity: 1; } }
@keyframes a5_o { 0% { opacity: 1; animation-timing-function: cubic-bezier(.4,0,.6,1); } 50% { opacity: .2; animation-timing-function: cubic-bezier(.4,0,.6,1); } 100% { opacity: 1; } }
@keyframes a6_o { 0% { opacity: 1; animation-timing-function: cubic-bezier(.4,0,.6,1); } 50% { opacity: .2; animation-timing-function: cubic-bezier(.4,0,.6,1); } 100% { opacity: 1; } }
@keyframes a7_o { 0% { opacity: 1; animation-timing-function: cubic-bezier(.4,0,.6,1); } 50% { opacity: .2; animation-timing-function: cubic-bezier(.4,0,.6,1); } 100% { opacity: 1; } }
@keyframes a8_o { 0% { opacity: 1; animation-timing-function: cubic-bezier(.4,0,.6,1); } 50% { opacity: .2; animation-timing-function: cubic-bezier(.4,0,.6,1); } 100% { opacity: 1; } }
@keyframes a9_o { 0% { opacity: 1; animation-timing-function: cubic-bezier(.4,0,.6,1); } 50% { opacity: .2; animation-timing-function: cubic-bezier(.4,0,.6,1); } 100% { opacity: 1; } }
@keyframes a10_o { 0% { opacity: 1; animation-timing-function: cubic-bezier(.4,0,.6,1); } 50% { opacity: .2; animation-timing-function: cubic-bezier(.4,0,.6,1); } 100% { opacity: 1; } }
@keyframes a11_o { 0% { opacity: 1; animation-timing-function: cubic-bezier(.4,0,.6,1); } 50% { opacity: .2; animation-timing-function: cubic-bezier(.4,0,.6,1); } 100% { opacity: 1; } }
@keyframes a12_o { 0% { opacity: 1; animation-timing-function: cubic-bezier(.4,0,.6,1); } 50% { opacity: .2; animation-timing-function: cubic-bezier(.4,0,.6,1); } 100% { opacity: 1; } }
@keyframes a13_o { 0% { opacity: 1; animation-timing-function: cubic-bezier(.4,0,.6,1); } 50% { opacity: .2; animation-timing-function: cubic-bezier(.4,0,.6,1); } 100% { opacity: 1; } }
@keyframes a14_o { 0% { opacity: 1; animation-timing-function: cubic-bezier(.4,0,.6,1); } 50% { opacity: .2; animation-timing-function: cubic-bezier(.4,0,.6,1); } 100% { opacity: 1; } }
@keyframes a15_o { 0% { opacity: 1; animation-timing-function: cubic-bezier(.4,0,.6,1); } 50% { opacity: .2; animation-timing-function: cubic-bezier(.4,0,.6,1); } 100% { opacity: 1; } }
@keyframes a16_o { 0% { opacity: 1; animation-timing-function: cubic-bezier(.4,0,.6,1); } 50% { opacity: .2; animation-timing-function: cubic-bezier(.4,0,.6,1); } 100% { opacity: 1; } }
@keyframes a17_o { 0% { opacity: 1; animation-timing-function: cubic-bezier(.4,0,.6,1); } 50% { opacity: .2; animation-timing-function: cubic-bezier(.4,0,.6,1); } 100% { opacity: 1; } }
@keyframes a18_o { 0% { opacity: 1; animation-timing-function: cubic-bezier(.4,0,.6,1); } 50% { opacity: .2; animation-timing-function: cubic-bezier(.4,0,.6,1); } 100% { opacity: 1; } }
@keyframes a19_o { 0% { opacity: 1; animation-timing-function: cubic-bezier(.4,0,.6,1); } 50% { opacity: .2; animation-timing-function: cubic-bezier(.4,0,.6,1); } 100% { opacity: 1; } }
@keyframes a20_o { 0% { opacity: 1; animation-timing-function: cubic-bezier(.4,0,.6,1); } 50% { opacity: .2; animation-timing-function: cubic-bezier(.4,0,.6,1); } 100% { opacity: 1; } }
@keyframes a21_o { 0% { opacity: 1; animation-timing-function: cubic-bezier(.4,0,.6,1); } 50% { opacity: .2; animation-timing-function: cubic-bezier(.4,0,.6,1); } 100% { opacity: 1; } }
@keyframes a22_o { 0% { opacity: 1; animation-timing-function: cubic-bezier(.4,0,.6,1); } 50% { opacity: .2; animation-timing-function: cubic-bezier(.4,0,.6,1); } 100% { opacity: 1; } }
@keyframes a23_o { 0% { opacity: 1; animation-timing-function: cubic-bezier(.4,0,.6,1); } 50% { opacity: .2; animation-timing-function: cubic-bezier(.4,0,.6,1); } 100% { opacity: 1; } }
@keyframes a24_o { 0% { opacity: 1; animation-timing-function: cubic-bezier(.4,0,.6,1); } 50% { opacity: .2; animation-timing-function: cubic-bezier(.4,0,.6,1); } 100% { opacity: 1; } }
@keyframes a25_o { 0% { opacity: 1; animation-timing-function: cubic-bezier(.4,0,.6,1); } 50% { opacity: .2; animation-timing-function: cubic-bezier(.4,0,.6,1); } 100% { opacity: 1; } }
@keyframes a26_o { 0% { opacity: 1; animation-timing-function: cubic-bezier(.4,0,.6,1); } 50% { opacity: .2; animation-timing-function: cubic-bezier(.4,0,.6,1); } 100% { opacity: 1; } }
@keyframes a27_o { 0% { opacity: 1; animation-timing-function: cubic-bezier(.4,0,.6,1); } 50% { opacity: .2; animation-timing-function: cubic-bezier(.4,0,.6,1); } 100% { opacity: 1; } }
@keyframes a28_o { 0% { opacity: 1; animation-timing-function: cubic-bezier(.4,0,.6,1); } 50% { opacity: .2; animation-timing-function: cubic-bezier(.4,0,.6,1); } 100% { opacity: 1; } }
@keyframes a29_o { 0% { opacity: 1; animation-timing-function: cubic-bezier(.4,0,.6,1); } 50% { opacity: .2; animation-timing-function: cubic-bezier(.4,0,.6,1); } 100% { opacity: 1; } }
@keyframes a30_o { 0% { opacity: 1; animation-timing-function: cubic-bezier(.4,0,.6,1); } 50% { opacity: .2; animation-timing-function: cubic-bezier(.4,0,.6,1); } 100% { opacity: 1; } }
@keyframes a31_o { 0% { opacity: 1; animation-timing-function: cubic-bezier(.4,0,.6,1); } 50% { opacity: .2; animation-timing-function: cubic-bezier(.4,0,.6,1); } 100% { opacity: 1; } }
@keyframes a32_o { 0% { opacity: 1; animation-timing-function: cubic-bezier(.4,0,.6,1); } 50% { opacity: .2; animation-timing-function: cubic-bezier(.4,0,.6,1); } 100% { opacity: 1; } }
@keyframes a33_o { 0% { opacity: 1; animation-timing-function: cubic-bezier(.4,0,.6,1); } 50% { opacity: .2; animation-timing-function: cubic-bezier(.4,0,.6,1); } 100% { opacity: 1; } }
@keyframes a34_o { 0% { opacity: 1; animation-timing-function: cubic-bezier(.4,0,.6,1); } 50% { opacity: .2; animation-timing-function: cubic-bezier(.4,0,.6,1); } 100% { opacity: 1; } }
@keyframes a35_o { 0% { opacity: 1; animation-timing-function: cubic-bezier(.4,0,.6,1); } 50% { opacity: .2; animation-timing-function: cubic-bezier(.4,0,.6,1); } 100% { opacity: 1; } }
@keyframes a36_o { 0% { opacity: 1; animation-timing-function: cubic-bezier(.4,0,.6,1); } 50% { opacity: .2; animation-timing-function: cubic-bezier(.4,0,.6,1); } 100% { opacity: 1; } }
@keyframes a37_o { 0% { opacity: 1; animation-timing-function: cubic-bezier(.4,0,.6,1); } 50% { opacity: .2; animation-timing-function: cubic-bezier(.4,0,.6,1); } 100% { opacity: 1; } }
@keyframes a38_o { 0% { opacity: 1; animation-timing-function: cubic-bezier(.4,0,.6,1); } 50% { opacity: .2; animation-timing-function: cubic-bezier(.4,0,.6,1); } 100% { opacity: 1; } }
@keyframes a39_o { 0% { opacity: 1; animation-timing-function: cubic-bezier(.4,0,.6,1); } 50% { opacity: .2; animation-timing-function: cubic-bezier(.4,0,.6,1); } 100% { opacity: 1; } }
@keyframes a40_o { 0% { opacity: 1; animation-timing-function: cubic-bezier(.4,0,.6,1); } 50% { opacity: .2; animation-timing-function: cubic-bezier(.4,0,.6,1); } 100% { opacity: 1; } }
@keyframes a41_o { 0% { opacity: 1; animation-timing-function: cubic-bezier(.4,0,.6,1); } 50% { opacity: .2; animation-timing-function: cubic-bezier(.4,0,.6,1); } 100% { opacity: 1; } }
</style><path d="M1427.8 343.6h85.9c47.4 0 85.9-38.5 85.9-85.9h-85.9c-47.4 0-85.9 38.5-85.9 85.9Z" fill="#acbaff" fill-opacity=".1" transform="translate(132,0)" style="animation: 2s linear .13s infinite both a0_o;"/><path d="M740.6 343.6h85.9c47.4 0 85.9-38.5 85.9-85.9h-85.9c-47.4 0-85.9 38.5-85.9 85.9Z" fill="#0020e1" fill-opacity=".07" transform="translate(132,0)" style="animation: 2s linear infinite both a1_o;"/><path d="M1084.2 687.2h85.9c47.4 0 85.9-38.5 85.9-85.9h-85.9c-47.4 0-85.9 38.5-85.9 85.9Z" fill="#acbaff" fill-opacity=".1" transform="translate(132,0)" style="animation: 2s linear 1.13s infinite both a2_o;"/><path d="M1084.2 171.8h85.9c47.4 0 85.9-38.5 85.9-85.9h-85.9c-47.4 0-85.9 38.5-85.9 85.9Z" fill="#0020e1" fill-opacity=".07" transform="translate(132,0)" style="animation: 2s linear 1.77s infinite both a3_o;"/><path d="M1427.8 687.2h85.9c47.4 0 85.9-38.5 85.9-85.9h-85.9c-47.4 0-85.9 38.5-85.9 85.9Z" fill="#acbaff" fill-opacity=".1" transform="translate(132,0)" style="animation: 2s linear 2.27s infinite both a4_o;"/><path d="M740.6 687.2h85.9c47.4 0 85.9-38.5 85.9-85.9h-85.9c-47.4 0-85.9 38.5-85.9 85.9Z" fill="#0020e1" fill-opacity=".07" transform="translate(132,0)" style="animation: 2s linear .57s infinite both a5_o;"/><path d="M1427.8 171.8h85.9c47.4 0 85.9-38.5 85.9-85.9h-85.9c-47.4 0-85.9 38.5-85.9 85.9Z" fill="#acbaff" fill-opacity=".1" transform="translate(132,0)" style="animation: 2s linear 1.17s infinite both a6_o;"/><path d="M912 515.4h85.9c47.4 0 85.9-38.5 85.9-85.9h-85.9c-47.4 0-85.9 38.5-85.9 85.9Z" fill="#0020e1" fill-opacity=".07" transform="translate(132,0)" style="animation: 2s linear 4.37s infinite both a7_o;"/><path d="M1256 343.6h-85.9c-47.4 0-85.9-38.5-85.9-85.9h85.9c47.4 0 85.9 38.5 85.9 85.9Z" fill="#acbaff" fill-opacity=".1" transform="translate(132,0)" style="animation: 2s linear 3.13s infinite both a8_o;"/><path d="M912.4 257.7h-85.9c-47.4 0-85.9-38.5-85.9-85.9h85.9c47.4 0 85.9 38.5 85.9 85.9Z" fill="#0020e1" fill-opacity=".07" transform="translate(132,0)" style="animation: 2s linear 3.57s infinite both a9_o;"/><path d="M1256 601.3h-85.9c-47.4 0-85.9-38.5-85.9-85.9h85.9c47.4 0 85.9 38.5 85.9 85.9Z" fill="#0020e1" fill-opacity=".07" transform="translate(132,0)" style="animation: 2s linear 2.77s infinite both a10_o;"/><path d="M1599.6 601.3h-85.9c-47.4 0-85.9-38.5-85.9-85.9h85.9c47.4 0 85.9 38.5 85.9 85.9Z" fill="#acbaff" fill-opacity=".1" transform="translate(132,0)" style="animation: 2s linear .33s infinite both a11_o;"/><path d="M740.6 601.3h85.9c47.4 0 85.9-38.5 85.9-85.9h-85.9c-47.4 0-85.9 38.5-85.9 85.9Z" fill="#acbaff" fill-opacity=".1" transform="translate(132,0)" style="animation: 2s linear 1.57s infinite both a12_o;"/><path d="M1256 343.6h-85.9c-47.4 0-85.9 38.5-85.9 85.9h85.9c47.4 0 85.9-38.5 85.9-85.9Z" fill="#0020e1" fill-opacity=".07" transform="translate(132,0)" style="animation: 2s linear .67s infinite both a13_o;"/><path d="M1599.6 429.5h-85.9c-47.4 0-85.9-38.5-85.9-85.9h85.9c47.4 0 85.9 38.5 85.9 85.9Z" fill="#0020e1" fill-opacity=".07" transform="translate(132,0)" style="animation: 2s linear 3.13s infinite both a14_o;"/><path d="M912.4 429.5h-85.9c-47.4 0-85.9-38.5-85.9-85.9h85.9c47.4 0 85.9 38.5 85.9 85.9Z" fill="#acbaff" fill-opacity=".1" transform="translate(132,0)" style="animation: 2s linear 1.63s infinite both a15_o;"/><path d="M1256 773.1h-85.9c-47.4 0-85.9-38.5-85.9-85.9h85.9c47.4 0 85.9 38.5 85.9 85.9Z" fill="#acbaff" fill-opacity=".1" transform="translate(132,0)" style="animation: 2s linear 2.47s infinite both a16_o;"/><path d="M1256 85.9h-85.9c-47.4 0-85.9-38.5-85.9-85.9h85.9c47.4 0 85.9 38.5 85.9 85.9Z" fill="#acbaff" fill-opacity=".1" transform="translate(132,0)" style="animation: 2s linear 4.8s infinite both a17_o;"/><path d="M1599.6 773.1h-85.9c-47.4 0-85.9-38.5-85.9-85.9h85.9c47.4 0 85.9 38.5 85.9 85.9Z" fill="#0020e1" fill-opacity=".1" transform="translate(132,0)" style="animation: 2s linear 3.63s infinite both a18_o;"/><path d="M912.4 773.1h-85.9c-47.4 0-85.9-38.5-85.9-85.9h85.9c47.4 0 85.9 38.5 85.9 85.9Z" fill="#acbaff" fill-opacity=".1" transform="translate(132,0)" style="animation: 2s linear 3.13s infinite both a19_o;"/><path d="M1256 343.6h85.9c47.4 0 85.9-38.5 85.9-85.9h-85.9c-47.4 0-85.9 38.5-85.9 85.9Z" fill="#0020e1" fill-opacity=".07" transform="translate(132,0)" style="animation: 2s linear 2.73s infinite both a20_o;"/><path d="M1084.2 687.2h-85.9c-47.4 0-85.9-38.5-85.9-85.9h85.9c47.4 0 85.9 38.5 85.9 85.9Z" fill="#0020e1" fill-opacity=".07" transform="translate(132,0)" style="animation: 2s linear .37s infinite both a21_o;"/><path d="M1084.2 171.8h-85.9c-47.4 0-85.9-38.5-85.9-85.9h85.9c47.4 0 85.9 38.5 85.9 85.9Z" fill="#acbaff" fill-opacity=".1" transform="translate(132,0)" style="animation: 2s linear .93s infinite both a22_o;"/><path d="M1427.8 687.2h-85.9c-47.4 0-85.9-38.5-85.9-85.9h85.9c47.4 0 85.9 38.5 85.9 85.9Z" fill="#0020e1" fill-opacity=".07" transform="translate(132,0)" style="animation: 2s linear 1.43s infinite both a23_o;"/><path d="M1256 257.7h85.9c47.4 0 85.9-38.5 85.9-85.9h-85.9c-47.4 0-85.9 38.5-85.9 85.9Z" fill="#acbaff" fill-opacity=".1" transform="translate(132,0)" style="animation: 2s linear 2.6s infinite both a24_o;"/><path d="M740.6 687.2h-85.9c-47.4 0-85.9-38.5-85.9-85.9h85.9c47.4 0 85.9 38.5 85.9 85.9Z" fill="#0020e1" fill-opacity=".07" transform="translate(132,0)" style="animation: 2s linear 3.53s infinite both a25_o;"/><path d="M39.8 599.9h-85.9c-47.4 0-85.9-38.5-85.9-85.9h85.9c47.4 0 85.9 38.5 85.9 85.9Z" fill="#acbaff" fill-opacity=".1" transform="translate(132,0)" style="animation: 2s linear 5.7s infinite both a26_o;"/><path d="M740.6 85.9h-85.9c-47.4 0-85.9-38.5-85.9-85.9h85.9c47.4 0 85.9 38.5 85.9 85.9Z" fill="#acbaff" fill-opacity=".1" transform="translate(132,0)" style="animation: 2s linear .67s infinite both a27_o;"/><path d="M1256 85.9h85.9c47.4 0 85.9-38.5 85.9-85.9h-85.9c-47.4 0-85.9 38.5-85.9 85.9Z" fill="#acbaff" fill-opacity=".1" transform="translate(132,0)" style="animation: 2s linear 2.47s infinite both a28_o;"/><path d="M568.8 257.7h85.9c47.4 0 85.9-38.5 85.9-85.9h-85.9c-47.4 0-85.9 38.5-85.9 85.9Z" fill="#acbaff" fill-opacity=".1" transform="translate(132,0)" style="animation: 2s linear 3.43s infinite both a29_o;"/><path d="M912.4 601.3h85.9c47.4 0 85.9-38.5 85.9-85.9h-85.9c-47.4 0-85.9 38.5-85.9 85.9Z" fill="#acbaff" fill-opacity=".1" transform="translate(132,0)" style="animation: 2s linear 1.17s infinite both a30_o;"/><path d="M1256 601.3h85.9c47.4 0 85.9-38.5 85.9-85.9h-85.9c-47.4 0-85.9 38.5-85.9 85.9Z" fill="#acbaff" fill-opacity=".1" transform="translate(132,0)" style="animation: 2s linear 1.63s infinite both a31_o;"/><path d="M740.6 601.3h-85.9c-47.4 0-85.9-38.5-85.9-85.9h85.9c47.4 0 85.9 38.5 85.9 85.9Z" fill="#acbaff" fill-opacity=".1" transform="translate(132,0)" style="animation: 2s linear 2.4s infinite both a32_o;"/><path d="M1427.8 171.8h-85.9c-47.4 0-85.9-38.5-85.9-85.9h85.9c47.4 0 85.9 38.5 85.9 85.9Z" fill="#0020e1" fill-opacity=".07" transform="translate(132,0)" style="animation: 2s linear .3s infinite both a33_o;"/><path d="M397 687.5h85.9c47.4 0 85.9-38.5 85.9-85.9h-85.9c-47.4 0-85.9 38.4-85.9 85.9Z" fill="#acbaff" fill-opacity=".1" transform="translate(132,0)" style="animation: 2s linear .87s infinite both a34_o;"/><path d="M1427.8 515.4h-85.9c-47.4 0-85.9-38.5-85.9-85.9h85.9c47.4 0 85.9 38.5 85.9 85.9Z" fill="#0020e1" fill-opacity=".07" transform="translate(132,0)" style="animation: 2s linear 3.33s infinite both a35_o;"/><path d="M1084.2 343.6h-85.9c-47.4 0-85.9-38.5-85.9-85.9h85.9c47.4 0 85.9 38.5 85.9 85.9Z" fill="#acbaff" fill-opacity=".1" transform="translate(132,0)" style="animation: 2s linear .07s infinite both a36_o;"/><path d="M1256 343.6h85.9c47.4 0 85.9 38.5 85.9 85.9h-85.9c-47.4 0-85.9-38.5-85.9-85.9Z" fill="#acbaff" fill-opacity=".1" transform="translate(132,0)" style="animation: 2s linear .47s infinite both a37_o;"/><path d="M912.4 773.1h85.9c47.4 0 85.9-38.5 85.9-85.9h-85.9c-47.4 0-85.9 38.5-85.9 85.9Z" fill="#acbaff" fill-opacity=".1" transform="translate(132,0)" style="animation: 2s linear 2.57s infinite both a38_o;"/><path d="M912.4 257.7h85.9c47.4 0 85.9-38.5 85.9-85.9h-85.9c-47.4 0-85.9 38.5-85.9 85.9Z" fill="#acbaff" fill-opacity=".1" transform="translate(132,0)" style="animation: 2s linear .67s infinite both a39_o;"/><path d="M1256 773.1h85.9c47.4 0 85.9-38.5 85.9-85.9h-85.9c-47.4 0-85.9 38.5-85.9 85.9Z" fill="#acbaff" fill-opacity=".1" transform="translate(132,0)" style="animation: 2s linear 2.37s infinite both a40_o;"/><path d="M568.8 773.1h85.9c47.4 0 85.9-38.5 85.9-85.9h-85.9c-47.4 0-85.9 38.5-85.9 85.9Z" fill="#acbaff" fill-opacity=".1" transform="translate(132,0)" style="animation: 2s linear .2s infinite both a41_o;"/></svg>