<svg width="768" height="707" viewBox="0 0 768 707" fill="none" xmlns="http://www.w3.org/2000/svg">
<g clip-path="url(#clip0_1888_6991)">
<path d="M674.242 188.444H720.889C746.908 188.444 768 167.352 768 141.333H721.353C695.335 141.333 674.242 162.426 674.242 188.444Z" fill="#ACBAFF" fill-opacity="0.1"/>
<path d="M299.211 188.444H345.858C371.876 188.444 392.969 167.352 392.969 141.333H346.322C320.303 141.333 299.211 162.426 299.211 188.444Z" fill="#2AA0FF" fill-opacity="0.07"/>
<path d="M486.727 376.889H533.373C559.392 376.889 580.484 355.797 580.484 329.778H533.838C507.819 329.778 486.727 350.87 486.727 376.889Z" fill="#2AA0FF" fill-opacity="0.07"/>
<path d="M486.727 94.2222H533.373C559.392 94.2222 580.484 73.1298 580.484 47.1111H533.838C507.819 47.1111 486.727 68.2034 486.727 94.2222Z" fill="#2AA0FF" fill-opacity="0.07"/>
<path d="M674.242 376.889H720.889C746.908 376.889 768 355.797 768 329.778H721.353C695.335 329.778 674.242 350.87 674.242 376.889Z" fill="#ACBAFF" fill-opacity="0.1"/>
<path d="M299.211 376.889H345.858C371.876 376.889 392.969 355.797 392.969 329.778H346.322C320.303 329.778 299.211 350.87 299.211 376.889Z" fill="#2AA0FF" fill-opacity="0.07"/>
<path d="M674.242 94.2222H720.889C746.908 94.2222 768 73.1298 768 47.1111H721.353C695.335 47.1111 674.242 68.2034 674.242 94.2222Z" fill="#ACBAFF" fill-opacity="0.1"/>
<path d="M392.75 282.667H439.397C465.416 282.667 486.508 261.574 486.508 235.556H439.862C413.843 235.556 392.75 256.648 392.75 282.667Z" fill="#2AA0FF" fill-opacity="0.07"/>
<path d="M580.484 188.444H533.838C507.819 188.444 486.727 167.352 486.727 141.333H533.373C559.392 141.333 580.484 162.426 580.484 188.444Z" fill="#ACBAFF" fill-opacity="0.1"/>
<path d="M392.969 141.333H346.322C320.303 141.333 299.211 120.241 299.211 94.2224H345.858C371.876 94.2224 392.969 115.315 392.969 141.333Z" fill="#2AA0FF" fill-opacity="0.07"/>
<path d="M580.484 329.778H533.838C507.819 329.778 486.727 308.685 486.727 282.667H533.373C559.392 282.667 580.484 303.759 580.484 329.778Z" fill="#2AA0FF" fill-opacity="0.07"/>
<path d="M768 329.778H721.353C695.335 329.778 674.242 308.685 674.242 282.667H720.889C746.908 282.667 768 303.759 768 329.778Z" fill="#ACBAFF" fill-opacity="0.1"/>
<path d="M299.211 329.778H345.858C371.876 329.778 392.969 308.685 392.969 282.667H346.322C320.303 282.667 299.211 303.759 299.211 329.778Z" fill="#ACBAFF" fill-opacity="0.1"/>
<path d="M580.484 188.444H533.838C507.819 188.444 486.727 209.537 486.727 235.556H533.373C559.392 235.556 580.484 214.463 580.484 188.444Z" fill="#2AA0FF" fill-opacity="0.07"/>
<path d="M768 235.556H721.353C695.335 235.556 674.242 214.463 674.242 188.445H720.889C746.908 188.445 768 209.537 768 235.556Z" fill="#2AA0FF" fill-opacity="0.07"/>
<path d="M392.969 235.556H346.322C320.303 235.556 299.211 214.463 299.211 188.445H345.858C371.876 188.445 392.969 209.537 392.969 235.556Z" fill="#ACBAFF" fill-opacity="0.1"/>
<path d="M580.484 424H533.838C507.819 424 486.727 402.908 486.727 376.889H533.373C559.392 376.889 580.484 397.981 580.484 424Z" fill="#ACBAFF" fill-opacity="0.1"/>
<path d="M580.484 47.1111H533.838C507.819 47.1111 486.727 26.0187 486.727 -7.62939e-06H533.373C559.392 -7.62939e-06 580.484 21.0924 580.484 47.1111Z" fill="#ACBAFF" fill-opacity="0.1"/>
<path d="M768 424H721.353C695.335 424 674.242 402.908 674.242 376.889H720.889C746.908 376.889 768 397.981 768 424Z" fill="#ACBAFF" fill-opacity="0.1"/>
<path d="M392.969 424H346.322C320.303 424 299.211 402.908 299.211 376.889H345.858C371.876 376.889 392.969 397.981 392.969 424Z" fill="#ACBAFF" fill-opacity="0.1"/>
<path d="M580.484 188.444H627.131C653.15 188.444 674.242 167.352 674.242 141.333H627.595C601.577 141.333 580.484 162.426 580.484 188.444Z" fill="#2AA0FF" fill-opacity="0.07"/>
<path d="M486.727 376.889H440.08C414.061 376.889 392.969 355.797 392.969 329.778H439.615C465.634 329.778 486.727 350.87 486.727 376.889Z" fill="#2AA0FF" fill-opacity="0.07"/>
<path d="M486.727 94.2222H440.08C414.061 94.2222 392.969 73.1298 392.969 47.1111H439.615C465.634 47.1111 486.727 68.2034 486.727 94.2222Z" fill="#ACBAFF" fill-opacity="0.1"/>
<path d="M674.242 376.889H627.595C601.577 376.889 580.484 355.797 580.484 329.778H627.131C653.15 329.778 674.242 350.87 674.242 376.889Z" fill="#2AA0FF" fill-opacity="0.07"/>
<path d="M580.484 141.333H627.131C653.15 141.333 674.242 120.241 674.242 94.2224H627.595C601.577 94.2224 580.484 115.315 580.484 141.333Z" fill="#ACBAFF" fill-opacity="0.1"/>
<path d="M299.211 47.1111H252.564C226.545 47.1111 205.453 26.0187 205.453 -7.62939e-06H252.1C278.119 -7.62939e-06 299.211 21.0924 299.211 47.1111Z" fill="#ACBAFF" fill-opacity="0.1"/>
<path d="M580.484 47.1111H627.131C653.15 47.1111 674.242 26.0187 674.242 -7.62939e-06H627.595C601.577 -7.62939e-06 580.484 21.0924 580.484 47.1111Z" fill="#ACBAFF" fill-opacity="0.1"/>
<path d="M392.969 329.778H439.615C465.634 329.778 486.727 308.685 486.727 282.667H440.08C414.061 282.667 392.969 303.759 392.969 329.778Z" fill="#ACBAFF" fill-opacity="0.1"/>
<path d="M580.484 329.778H627.131C653.15 329.778 674.242 308.685 674.242 282.667H627.595C601.577 282.667 580.484 303.759 580.484 329.778Z" fill="#ACBAFF" fill-opacity="0.1"/>
<path d="M299.21 329.778H252.564C226.545 329.778 205.453 308.685 205.453 282.667H252.099C278.118 282.667 299.21 303.759 299.21 329.778Z" fill="#ACBAFF" fill-opacity="0.1"/>
<path d="M674.242 94.2222H627.595C601.577 94.2222 580.484 73.1298 580.484 47.1111H627.131C653.15 47.1111 674.242 68.2034 674.242 94.2222Z" fill="#2AA0FF" fill-opacity="0.07"/>
<path d="M674.242 282.667H627.595C601.577 282.667 580.484 261.574 580.484 235.556H627.131C653.15 235.556 674.242 256.648 674.242 282.667Z" fill="#2AA0FF" fill-opacity="0.07"/>
<path d="M486.727 188.444H440.08C414.061 188.444 392.969 167.352 392.969 141.333H439.615C465.634 141.333 486.727 162.426 486.727 188.444Z" fill="#ACBAFF" fill-opacity="0.1"/>
<path d="M580.484 188.444H627.131C653.15 188.444 674.242 209.537 674.242 235.556H627.595C601.577 235.556 580.484 214.463 580.484 188.444Z" fill="#ACBAFF" fill-opacity="0.1"/>
<path d="M392.969 424H439.615C465.634 424 486.727 402.908 486.727 376.889H440.08C414.061 376.889 392.969 397.981 392.969 424Z" fill="#ACBAFF" fill-opacity="0.1"/>
<path d="M392.969 141.333H439.615C465.634 141.333 486.727 120.241 486.727 94.2224H440.08C414.061 94.2224 392.969 115.315 392.969 141.333Z" fill="#ACBAFF" fill-opacity="0.1"/>
<path d="M580.484 424H627.131C653.15 424 674.242 402.908 674.242 376.889H627.595C601.577 376.889 580.484 397.981 580.484 424Z" fill="#ACBAFF" fill-opacity="0.1"/>
<path d="M205.453 141.333H252.1C278.119 141.333 299.211 120.241 299.211 94.2224H252.564C226.545 94.2224 205.453 115.315 205.453 141.333Z" fill="#ACBAFF" fill-opacity="0.1"/>
<path d="M299.211 376.889H252.564C226.545 376.889 205.453 355.797 205.453 329.778H252.1C278.119 329.778 299.211 350.87 299.211 376.889Z" fill="#2AA0FF" fill-opacity="0.07"/>
<path d="M111.695 377.029H158.342C184.361 377.029 205.453 355.936 205.453 329.918H158.806C132.788 329.918 111.695 351.01 111.695 377.029Z" fill="#ACBAFF" fill-opacity="0.1"/>
<path d="M205.453 424H252.1C278.119 424 299.211 402.908 299.211 376.889H252.564C226.545 376.889 205.453 397.981 205.453 424Z" fill="#ACBAFF" fill-opacity="0.1"/>
<path d="M674.242 659.556H720.889C746.908 659.556 768 680.648 768 706.667H721.353C695.335 706.667 674.242 685.574 674.242 659.556Z" fill="#ACBAFF" fill-opacity="0.1"/>
<path d="M299.211 659.556H345.858C371.876 659.556 392.969 680.648 392.969 706.667H346.322C320.303 706.667 299.211 685.574 299.211 659.556Z" fill="#2AA0FF" fill-opacity="0.07"/>
<path d="M486.727 471.111H533.373C559.392 471.111 580.484 492.203 580.484 518.222H533.838C507.819 518.222 486.727 497.13 486.727 471.111Z" fill="#2AA0FF" fill-opacity="0.07"/>
<path d="M674.242 471.111H720.889C746.908 471.111 768 492.203 768 518.222H721.353C695.335 518.222 674.242 497.13 674.242 471.111Z" fill="#ACBAFF" fill-opacity="0.1"/>
<path d="M299.211 471.111H345.858C371.876 471.111 392.969 492.203 392.969 518.222H346.322C320.303 518.222 299.211 497.13 299.211 471.111Z" fill="#2AA0FF" fill-opacity="0.07"/>
<path d="M392.75 565.333H439.397C465.416 565.333 486.508 586.426 486.508 612.444H439.862C413.843 612.444 392.75 591.352 392.75 565.333Z" fill="#2AA0FF" fill-opacity="0.07"/>
<path d="M580.484 659.556H533.838C507.819 659.556 486.727 680.648 486.727 706.667H533.373C559.392 706.667 580.484 685.574 580.484 659.556Z" fill="#ACBAFF" fill-opacity="0.1"/>
<path d="M392.969 706.667H346.322C320.303 706.667 299.211 727.759 299.211 753.778H345.858C371.876 753.778 392.969 732.685 392.969 706.667Z" fill="#2AA0FF" fill-opacity="0.07"/>
<path d="M580.484 518.222H533.838C507.819 518.222 486.727 539.315 486.727 565.333H533.373C559.392 565.333 580.484 544.241 580.484 518.222Z" fill="#2AA0FF" fill-opacity="0.07"/>
<path d="M768 518.222H721.353C695.335 518.222 674.242 539.315 674.242 565.333H720.889C746.908 565.333 768 544.241 768 518.222Z" fill="#ACBAFF" fill-opacity="0.1"/>
<path d="M299.211 518.222H345.858C371.876 518.222 392.969 539.315 392.969 565.333H346.322C320.303 565.333 299.211 544.241 299.211 518.222Z" fill="#ACBAFF" fill-opacity="0.1"/>
<path d="M580.484 659.556H533.838C507.819 659.556 486.727 638.463 486.727 612.444H533.373C559.392 612.444 580.484 633.537 580.484 659.556Z" fill="#2AA0FF" fill-opacity="0.07"/>
<path d="M768 612.444H721.353C695.335 612.444 674.242 633.537 674.242 659.555H720.889C746.908 659.555 768 638.463 768 612.444Z" fill="#2AA0FF" fill-opacity="0.07"/>
<path d="M392.969 612.444H346.322C320.303 612.444 299.211 633.537 299.211 659.555H345.858C371.876 659.555 392.969 638.463 392.969 612.444Z" fill="#ACBAFF" fill-opacity="0.1"/>
<path d="M580.484 424H533.838C507.819 424 486.727 445.092 486.727 471.111H533.373C559.392 471.111 580.484 450.019 580.484 424Z" fill="#ACBAFF" fill-opacity="0.1"/>
<path d="M768 424H721.353C695.335 424 674.242 445.092 674.242 471.111H720.889C746.908 471.111 768 450.019 768 424Z" fill="#ACBAFF" fill-opacity="0.1"/>
<path d="M392.969 424H346.322C320.303 424 299.211 445.092 299.211 471.111H345.858C371.876 471.111 392.969 450.019 392.969 424Z" fill="#ACBAFF" fill-opacity="0.1"/>
<path d="M580.484 659.556H627.131C653.15 659.556 674.242 680.648 674.242 706.667H627.595C601.577 706.667 580.484 685.574 580.484 659.556Z" fill="#2AA0FF" fill-opacity="0.07"/>
<path d="M486.727 471.111H440.08C414.061 471.111 392.969 492.203 392.969 518.222H439.615C465.634 518.222 486.727 497.13 486.727 471.111Z" fill="#2AA0FF" fill-opacity="0.07"/>
<path d="M674.242 471.111H627.595C601.577 471.111 580.484 492.203 580.484 518.222H627.131C653.15 518.222 674.242 497.13 674.242 471.111Z" fill="#2AA0FF" fill-opacity="0.07"/>
<path d="M580.484 706.667H627.131C653.15 706.667 674.242 727.759 674.242 753.778H627.595C601.577 753.778 580.484 732.685 580.484 706.667Z" fill="#ACBAFF" fill-opacity="0.1"/>
<path d="M392.969 518.222H439.615C465.634 518.222 486.727 539.315 486.727 565.333H440.08C414.061 565.333 392.969 544.241 392.969 518.222Z" fill="#ACBAFF" fill-opacity="0.1"/>
<path d="M580.484 518.222H627.131C653.15 518.222 674.242 539.315 674.242 565.333H627.595C601.577 565.333 580.484 544.241 580.484 518.222Z" fill="#ACBAFF" fill-opacity="0.1"/>
<path d="M299.21 518.222H252.564C226.545 518.222 205.453 539.315 205.453 565.333H252.099C278.118 565.333 299.21 544.241 299.21 518.222Z" fill="#ACBAFF" fill-opacity="0.1"/>
<path d="M674.242 565.333H627.595C601.577 565.333 580.484 586.426 580.484 612.444H627.131C653.15 612.444 674.242 591.352 674.242 565.333Z" fill="#2AA0FF" fill-opacity="0.07"/>
<path d="M486.727 659.556H440.08C414.061 659.556 392.969 680.648 392.969 706.667H439.615C465.634 706.667 486.727 685.574 486.727 659.556Z" fill="#ACBAFF" fill-opacity="0.1"/>
<path d="M580.484 659.556H627.131C653.15 659.556 674.242 638.463 674.242 612.444H627.595C601.577 612.444 580.484 633.537 580.484 659.556Z" fill="#ACBAFF" fill-opacity="0.1"/>
<path d="M392.969 424H439.615C465.634 424 486.727 445.092 486.727 471.111H440.08C414.061 471.111 392.969 450.019 392.969 424Z" fill="#ACBAFF" fill-opacity="0.1"/>
<path d="M392.969 706.667H439.615C465.634 706.667 486.727 727.759 486.727 753.778H440.08C414.061 753.778 392.969 732.685 392.969 706.667Z" fill="#ACBAFF" fill-opacity="0.1"/>
<path d="M580.484 424H627.131C653.15 424 674.242 445.092 674.242 471.111H627.595C601.577 471.111 580.484 450.019 580.484 424Z" fill="#ACBAFF" fill-opacity="0.1"/>
<path d="M205.453 706.667H252.1C278.119 706.667 299.211 727.759 299.211 753.778H252.564C226.545 753.778 205.453 732.685 205.453 706.667Z" fill="#ACBAFF" fill-opacity="0.1"/>
<path d="M299.211 471.111H252.564C226.545 471.111 205.453 492.203 205.453 518.222H252.1C278.119 518.222 299.211 497.13 299.211 471.111Z" fill="#2AA0FF" fill-opacity="0.07"/>
<path d="M111.695 470.971H158.342C184.361 470.971 205.453 492.064 205.453 518.082H158.806C132.788 518.082 111.695 496.99 111.695 470.971Z" fill="#ACBAFF" fill-opacity="0.1"/>
<path d="M205.453 424H252.1C278.119 424 299.211 445.092 299.211 471.111H252.564C226.545 471.111 205.453 450.019 205.453 424Z" fill="#ACBAFF" fill-opacity="0.1"/>
</g>
<defs>
<clipPath id="clip0_1888_6991">
<rect width="768" height="707" fill="white"/>
</clipPath>
</defs>
</svg>
