<svg width="375" height="424" viewBox="0 0 375 424" fill="none" xmlns="http://www.w3.org/2000/svg">
<path d="M191.211 188.444H237.858C263.877 188.444 284.969 167.352 284.969 141.333H238.322C212.303 141.333 191.211 162.426 191.211 188.444Z" fill="#2AA0FF" fill-opacity="0.07"/>
<path d="M191.211 376.889H237.858C263.877 376.889 284.969 355.797 284.969 329.778H238.322C212.303 329.778 191.211 350.87 191.211 376.889Z" fill="#2AA0FF" fill-opacity="0.07"/>
<path d="M284.75 282.667H331.397C357.416 282.667 378.508 261.574 378.508 235.556H331.862C305.843 235.556 284.75 256.648 284.75 282.667Z" fill="#2AA0FF" fill-opacity="0.07"/>
<path d="M284.969 141.333H238.322C212.304 141.333 191.211 120.241 191.211 94.2224H237.858C263.877 94.2224 284.969 115.315 284.969 141.333Z" fill="#2AA0FF" fill-opacity="0.07"/>
<path d="M191.211 329.778H237.858C263.877 329.778 284.969 308.685 284.969 282.667H238.322C212.303 282.667 191.211 303.759 191.211 329.778Z" fill="#ACBAFF" fill-opacity="0.1"/>
<path d="M284.969 235.556H238.322C212.304 235.556 191.211 214.463 191.211 188.445H237.858C263.877 188.445 284.969 209.537 284.969 235.556Z" fill="#ACBAFF" fill-opacity="0.1"/>
<path d="M284.969 424H238.322C212.304 424 191.211 402.908 191.211 376.889H237.858C263.877 376.889 284.969 397.981 284.969 424Z" fill="#ACBAFF" fill-opacity="0.1"/>
<path d="M378.727 376.889H332.08C306.061 376.889 284.969 355.797 284.969 329.778H331.615C357.634 329.778 378.727 350.87 378.727 376.889Z" fill="#2AA0FF" fill-opacity="0.07"/>
<path d="M378.727 94.2222H332.08C306.061 94.2222 284.969 73.1298 284.969 47.1111H331.615C357.634 47.1111 378.727 68.2034 378.727 94.2222Z" fill="#ACBAFF" fill-opacity="0.1"/>
<path d="M191.211 47.1111H144.564C118.546 47.1111 97.4533 26.0187 97.4533 -7.62939e-06H144.1C170.119 -7.62939e-06 191.211 21.0924 191.211 47.1111Z" fill="#ACBAFF" fill-opacity="0.1"/>
<path d="M284.969 329.778H331.616C357.634 329.778 378.727 308.685 378.727 282.667H332.08C306.061 282.667 284.969 303.759 284.969 329.778Z" fill="#ACBAFF" fill-opacity="0.1"/>
<path d="M191.211 329.778H144.564C118.545 329.778 97.4528 308.685 97.4528 282.667H144.1C170.118 282.667 191.211 303.759 191.211 329.778Z" fill="#ACBAFF" fill-opacity="0.1"/>
<path d="M378.727 188.444H332.08C306.061 188.444 284.969 167.352 284.969 141.333H331.615C357.634 141.333 378.727 162.426 378.727 188.444Z" fill="#ACBAFF" fill-opacity="0.1"/>
<path d="M284.969 424H331.616C357.634 424 378.727 402.908 378.727 376.889H332.08C306.061 376.889 284.969 397.981 284.969 424Z" fill="#ACBAFF" fill-opacity="0.1"/>
<path d="M284.969 141.333H331.616C357.634 141.333 378.727 120.241 378.727 94.2224H332.08C306.061 94.2224 284.969 115.315 284.969 141.333Z" fill="#ACBAFF" fill-opacity="0.1"/>
<path d="M97.4531 141.333H144.1C170.119 141.333 191.211 120.241 191.211 94.2224H144.564C118.545 94.2224 97.4531 115.315 97.4531 141.333Z" fill="#ACBAFF" fill-opacity="0.1"/>
<path d="M191.211 376.889H144.564C118.546 376.889 97.4533 355.797 97.4533 329.778H144.1C170.119 329.778 191.211 350.87 191.211 376.889Z" fill="#2AA0FF" fill-opacity="0.07"/>
<path d="M3.69531 377.029H50.342C76.3608 377.029 97.4531 355.936 97.4531 329.918H50.8064C24.7876 329.918 3.69531 351.01 3.69531 377.029Z" fill="#ACBAFF" fill-opacity="0.1"/>
<path d="M97.4531 424H144.1C170.119 424 191.211 402.908 191.211 376.889H144.564C118.545 376.889 97.4531 397.981 97.4531 424Z" fill="#ACBAFF" fill-opacity="0.1"/>
</svg>
