<svg width="180" height="181" viewBox="0 0 180 181" fill="none" xmlns="http://www.w3.org/2000/svg">
<g filter="url(#filter0_d_449_3489)">
<rect x="50" y="30.2616" width="80" height="80" rx="20" fill="url(#paint0_linear_449_3489)"/>
</g>
<path d="M91.6667 55.9283C91.6667 56.8488 92.4129 57.5949 93.3333 57.5949H98.3333C100.174 57.5949 101.667 59.0873 101.667 60.9283V80.9283C101.667 82.7692 100.174 84.2616 98.3333 84.2616H81.6667C79.8257 84.2616 78.3333 82.7692 78.3333 80.9283V60.9283C78.3333 59.0873 79.8257 57.5949 81.6667 57.5949H86.6667C87.5871 57.5949 88.3333 56.8488 88.3333 55.9283C88.3333 55.0078 87.5871 54.2616 86.6667 54.2616H81.6667C77.9848 54.2616 75 57.2464 75 60.9283V80.9283C75 84.6102 77.9848 87.5949 81.6667 87.5949H98.3333C102.015 87.5949 105 84.6102 105 80.9283V60.9283C105 57.2464 102.015 54.2616 98.3333 54.2616H93.3333C92.4129 54.2616 91.6667 55.0078 91.6667 55.9283Z" fill="white"/>
<path fill-rule="evenodd" clip-rule="evenodd" d="M88.3333 55.9283C88.3333 56.8488 89.0795 57.5949 90 57.5949C90.9205 57.5949 91.6667 56.8488 91.6667 55.9283C91.6667 55.0078 90.9205 54.2616 90 54.2616C89.0795 54.2616 88.3333 55.0078 88.3333 55.9283ZM90 50.9283C87.2386 50.9283 85 53.1669 85 55.9283C85 58.6897 87.2386 60.9283 90 60.9283C92.7614 60.9283 95 58.6897 95 55.9283C95 53.1669 92.7614 50.9283 90 50.9283Z" fill="white"/>
<path d="M83.3333 64.2616C82.4129 64.2616 81.6667 65.0078 81.6667 65.9283C81.6667 66.8488 82.4129 67.5949 83.3333 67.5949H96.6667C97.5871 67.5949 98.3333 66.8488 98.3333 65.9283C98.3333 65.0078 97.5871 64.2616 96.6667 64.2616H83.3333Z" fill="white"/>
<path d="M81.6667 72.595C81.6667 71.6745 82.4129 70.9283 83.3333 70.9283H96.6667C97.5871 70.9283 98.3333 71.6745 98.3333 72.595C98.3333 73.5154 97.5871 74.2616 96.6667 74.2616H83.3333C82.4129 74.2616 81.6667 73.5154 81.6667 72.595Z" fill="white"/>
<path d="M81.6667 79.2616C81.6667 78.3411 82.4129 77.595 83.3333 77.595H90C90.9205 77.595 91.6667 78.3411 91.6667 79.2616C91.6667 80.1821 90.9205 80.9283 90 80.9283H83.3333C82.4129 80.9283 81.6667 80.1821 81.6667 79.2616Z" fill="white"/>
<defs>
<filter id="filter0_d_449_3489" x="0" y="0.261597" width="180" height="180" filterUnits="userSpaceOnUse" color-interpolation-filters="sRGB">
<feFlood flood-opacity="0" result="BackgroundImageFix"/>
<feColorMatrix in="SourceAlpha" type="matrix" values="0 0 0 0 0 0 0 0 0 0 0 0 0 0 0 0 0 0 127 0" result="hardAlpha"/>
<feOffset dy="20"/>
<feGaussianBlur stdDeviation="25"/>
<feComposite in2="hardAlpha" operator="out"/>
<feColorMatrix type="matrix" values="0 0 0 0 0.0113084 0 0 0 0 0.198124 0 0 0 0 0.678508 0 0 0 0.2 0"/>
<feBlend mode="normal" in2="BackgroundImageFix" result="effect1_dropShadow_449_3489"/>
<feBlend mode="normal" in="SourceGraphic" in2="effect1_dropShadow_449_3489" result="shape"/>
</filter>
<linearGradient id="paint0_linear_449_3489" x1="50" y1="30.2616" x2="136.566" y2="38.1437" gradientUnits="userSpaceOnUse">
<stop stop-color="#226DFF"/>
<stop offset="1" stop-color="#2891FF"/>
</linearGradient>
</defs>
</svg>
