<svg width="180" height="181" viewBox="0 0 180 181" fill="none" xmlns="http://www.w3.org/2000/svg">
<g filter="url(#filter0_d_449_3491)">
<rect x="50" y="30.2616" width="80" height="80" rx="20" fill="url(#paint0_linear_449_3491)"/>
</g>
<path fill-rule="evenodd" clip-rule="evenodd" d="M85 59.7479C83.8885 60.0793 82.8266 60.5764 81.8517 61.2278C79.9332 62.5097 78.4378 64.3318 77.5548 66.4636C76.6718 68.5954 76.4407 70.9412 76.8909 73.2043C77.341 75.4674 78.4522 77.5462 80.0838 79.1778C81.7154 80.8094 83.7942 81.9206 86.0573 82.3707C88.3204 82.8209 90.6662 82.5899 92.798 81.7068C94.9298 80.8238 96.7519 79.3285 98.0339 77.4099C98.6852 76.435 99.1823 75.3731 99.5137 74.2616H89.1667C86.8655 74.2616 85 72.3961 85 70.0949L85 59.7479ZM86.6701 56.0207C87.5849 55.9187 88.3334 56.6744 88.3334 57.5949V70.0949C88.3334 70.5552 88.7065 70.9283 89.1667 70.9283H101.667C102.587 70.9283 103.343 71.6767 103.241 72.5915C102.976 74.9698 102.144 77.2587 100.805 79.2618C99.1572 81.7285 96.8145 83.6511 94.0736 84.7864C91.3327 85.9218 88.3167 86.2188 85.407 85.64C82.4973 85.0613 79.8246 83.6326 77.7268 81.5349C75.629 79.4371 74.2004 76.7643 73.6216 73.8546C73.0428 70.9449 73.3399 67.9289 74.4752 65.188C75.6105 62.4471 77.5331 60.1044 79.9998 58.4562C82.0029 57.1178 84.2918 56.2861 86.6701 56.0207Z" fill="white"/>
<path fill-rule="evenodd" clip-rule="evenodd" d="M102.847 64.2616C102.733 63.8786 102.599 63.5009 102.445 63.1303C101.859 61.7148 101 60.4287 99.9163 59.3453C98.8329 58.262 97.5468 57.4026 96.1314 56.8163C95.7607 56.6628 95.3831 56.5288 95 56.4146V64.2616H102.847ZM106.574 65.9317C106.676 66.8465 105.921 67.5949 105 67.5949H92.5C92.0398 67.5949 91.6667 67.2218 91.6667 66.7616V54.2616C91.6667 53.3411 92.4152 52.5854 93.33 52.6874C94.7288 52.8435 96.1015 53.196 97.407 53.7367C99.2268 54.4906 100.88 55.5954 102.273 56.9883C103.666 58.3812 104.771 60.0348 105.525 61.8547C106.066 63.1601 106.418 64.5328 106.574 65.9317Z" fill="white"/>
<defs>
<filter id="filter0_d_449_3491" x="0" y="0.261597" width="180" height="180" filterUnits="userSpaceOnUse" color-interpolation-filters="sRGB">
<feFlood flood-opacity="0" result="BackgroundImageFix"/>
<feColorMatrix in="SourceAlpha" type="matrix" values="0 0 0 0 0 0 0 0 0 0 0 0 0 0 0 0 0 0 127 0" result="hardAlpha"/>
<feOffset dy="20"/>
<feGaussianBlur stdDeviation="25"/>
<feComposite in2="hardAlpha" operator="out"/>
<feColorMatrix type="matrix" values="0 0 0 0 0.0113084 0 0 0 0 0.198124 0 0 0 0 0.678508 0 0 0 0.2 0"/>
<feBlend mode="normal" in2="BackgroundImageFix" result="effect1_dropShadow_449_3491"/>
<feBlend mode="normal" in="SourceGraphic" in2="effect1_dropShadow_449_3491" result="shape"/>
</filter>
<linearGradient id="paint0_linear_449_3491" x1="50" y1="30.2616" x2="136.566" y2="38.1437" gradientUnits="userSpaceOnUse">
<stop stop-color="#226DFF"/>
<stop offset="1" stop-color="#2891FF"/>
</linearGradient>
</defs>
</svg>
