<svg width="16" height="16" viewBox="0 0 16 16" fill="none" xmlns="http://www.w3.org/2000/svg">
<path d="M6.00065 0.583008C4.26001 0.583008 2.84646 0.926542 1.88699 1.88601C0.927519 2.84548 0.583984 4.25904 0.583984 5.99967V9.99967C0.583984 11.7403 0.927519 13.1539 1.88699 14.1133C2.84646 15.0728 4.26001 15.4163 6.00065 15.4163H10.0007C11.7413 15.4163 13.1548 15.0728 14.1143 14.1133C15.0738 13.1539 15.4173 11.7403 15.4173 9.99967V8.66634C15.4173 8.25213 15.0815 7.91634 14.6673 7.91634C14.2531 7.91634 13.9173 8.25213 13.9173 8.66634V9.99967C13.9173 11.5924 13.5942 12.5121 13.0537 13.0527C12.5131 13.5932 11.5933 13.9163 10.0007 13.9163H6.00065C4.40796 13.9163 3.48818 13.5932 2.94765 13.0527C2.40712 12.5121 2.08398 11.5924 2.08398 9.99967V5.99967C2.08398 4.40698 2.40712 3.4872 2.94765 2.94667C3.48818 2.40614 4.40796 2.08301 6.00065 2.08301H7.33398C7.7482 2.08301 8.08398 1.74722 8.08398 1.33301C8.08398 0.918794 7.7482 0.583008 7.33398 0.583008H6.00065Z" fill="#011235" fill-opacity="0.7"/>
<path d="M10.7173 1.33301C10.7173 0.918794 11.0531 0.583008 11.4673 0.583008H14.6673C15.0815 0.583008 15.4173 0.918794 15.4173 1.33301V4.53301C15.4173 4.94722 15.0815 5.28301 14.6673 5.28301C14.2531 5.28301 13.9173 4.94722 13.9173 4.53301V3.14337L9.19732 7.86333C8.90443 8.15622 8.42956 8.15622 8.13666 7.86333C7.84377 7.57044 7.84377 7.09556 8.13666 6.80267L12.8563 2.08301H11.4673C11.0531 2.08301 10.7173 1.74722 10.7173 1.33301Z" fill="#011235" fill-opacity="0.7"/>
</svg>
